<?xml version="1.0" standalone="no"?>
<!DOCTYPE svg PUBLIC "-//W3C//DTD SVG 1.1//EN" "http://www.w3.org/Graphics/SVG/1.1/DTD/svg11.dtd" >
<svg>
<metadata>
Created by FontForge 20090622 at Wed Jan 23 12:48:18 2019
 By deploy user
2011 Joerg Hemker published by FSI FontShop International GmbH
</metadata>
<defs>
<font id="SeroPro-Light" horiz-adv-x="1000" >
  <font-face 
    font-family="SeroPro-Light"
    font-weight="350"
    font-stretch="normal"
    units-per-em="1000"
    panose-1="2 11 5 4 2 1 1 2 1 2"
    ascent="778"
    descent="-222"
    x-height="510"
    cap-height="720"
    bbox="-157 -222 2733 948"
    underline-thickness="57"
    underline-position="-45"
    unicode-range="U+000D-U+1F4AC"
  />
<missing-glyph horiz-adv-x="500" 
d="M0 0v720h500v-720h-500zM58 660v-600h384v600h-384z" />
    <glyph glyph-name="f_b" unicode="fb" horiz-adv-x="892" 
d="M25 451v59h105v72q0 72 31 108t102 36q27 0 59 -6v-59q-27 6 -50 6q-41 0 -57 -21.5t-16 -63.5v-72h123v-59h-123v-451h-69v451h-105zM402 720h69v-284q76 86 173 86q88 0 143 -68.5t55 -193.5q0 -130 -58.5 -201t-149.5 -71q-94 0 -166 83v-71h-66v720zM629 461
q-82 0 -158 -86v-248q69 -80 153 -80q69 0 109 52.5t40 154.5q0 101 -39 154t-105 53z" />
    <glyph glyph-name="f_f" unicode="ff" horiz-adv-x="636" 
d="M199 451v-451h-69v451h-105v59h105v72q0 72 31 108t102 36q27 0 59 -6v-59q-27 6 -50 6q-41 0 -57 -21.5t-16 -63.5v-72h231v72q0 72 31 108t102 36q27 0 59 -6v-59q-27 6 -50 6q-41 0 -57 -21.5t-16 -63.5v-72h123v-59h-123v-451h-69v451h-231z" />
    <glyph glyph-name="f_f_i" unicode="ffi" horiz-adv-x="863" 
d="M708 0v510h69v-510h-69zM789 652q0 -20 -12.5 -33t-33.5 -13t-33.5 13t-12.5 33t12.5 33t33.5 13t33.5 -13t12.5 -33zM199 451v-451h-69v451h-105v59h105v72q0 72 31 108t102 36q27 0 59 -6v-59q-27 6 -50 6q-41 0 -57 -21.5t-16 -63.5v-72h231v72q0 72 31 108t102 36
q27 0 59 -6v-59q-27 6 -50 6q-41 0 -57 -21.5t-16 -63.5v-72h123v-59h-123v-451h-69v451h-231z" />
    <glyph glyph-name="f_f_l" unicode="ffl" horiz-adv-x="863" 
d="M708 0v720h69v-720h-69zM199 451v-451h-69v451h-105v59h105v72q0 72 31 108t102 36q27 0 59 -6v-59q-27 6 -50 6q-41 0 -57 -21.5t-16 -63.5v-72h231v72q0 72 31 108t102 36q27 0 59 -6v-59q-27 6 -50 6q-41 0 -57 -21.5t-16 -63.5v-72h123v-59h-123v-451h-69v451h-231z
" />
    <glyph glyph-name="f_h" unicode="fh" horiz-adv-x="889" 
d="M25 451v59h105v72q0 72 31 108t102 36q27 0 59 -6v-59q-27 6 -50 6q-41 0 -57 -21.5t-16 -63.5v-72h123v-59h-123v-451h-69v451h-105zM402 0v720h69v-289q36 38 89.5 64.5t113.5 26.5q63 0 101.5 -33.5t38.5 -108.5v-380h-69v366q0 94 -89 94q-93 0 -185 -90v-370h-69z
" />
    <glyph glyph-name="f_i" unicode="fi" horiz-adv-x="563" 
d="M408 0v510h69v-510h-69zM489 652q0 -20 -12.5 -33t-33.5 -13t-33.5 13t-12.5 33t12.5 33t33.5 13t33.5 -13t12.5 -33zM25 451v59h105v72q0 72 31 108t102 36q27 0 59 -6v-59q-27 6 -50 6q-41 0 -57 -21.5t-16 -63.5v-72h123v-59h-123v-451h-69v451h-105z" />
    <glyph glyph-name="f_j" unicode="fj" horiz-adv-x="563" 
d="M25 451v59h105v72q0 72 31 108t102 36q27 0 59 -6v-59q-27 6 -50 6q-41 0 -57 -21.5t-16 -63.5v-72h123v-59h-123v-451h-69v451h-105zM477 510v-582q0 -72 -31 -108t-102 -36q-28 0 -59 6v59q27 -6 49 -6q41 0 57.5 21t16.5 64v582h69zM489 652q0 -20 -13 -33t-33 -13
t-33 13t-13 33t13 33t33 13t33 -13t13 -33z" />
    <glyph glyph-name="f_k" unicode="fk" horiz-adv-x="846" 
d="M25 451v59h105v72q0 72 31 108t102 36q27 0 59 -6v-59q-27 6 -50 6q-41 0 -57 -21.5t-16 -63.5v-72h123v-59h-123v-451h-69v451h-105zM402 0v720h69v-432l235 222h88l-197 -180l220 -330h-76l-190 288l-80 -73v-215h-69z" />
    <glyph glyph-name="f_l" unicode="fl" horiz-adv-x="563" 
d="M408 0v720h69v-720h-69zM25 451v59h105v72q0 72 31 108t102 36q27 0 59 -6v-59q-27 6 -50 6q-41 0 -57 -21.5t-16 -63.5v-72h123v-59h-123v-451h-69v451h-105z" />
    <glyph glyph-name="f_t" unicode="ft" horiz-adv-x="675" 
d="M430 130v321h-231v-451h-69v451h-105v59h105v72q0 72 31 108t102 36q27 0 59 -6v-59q-27 6 -50 6q-41 0 -57 -21.5t-16 -63.5v-72h231v170h69v-170h135v-59h-135v-313q0 -50 12.5 -67.5t49.5 -17.5q30 0 73 13v-61q-53 -11 -86 -11q-65 0 -91.5 30t-26.5 106z" />
    <glyph glyph-name=".notdef" horiz-adv-x="500" 
d="M0 0v720h500v-720h-500zM58 660v-600h384v600h-384z" />
    <glyph glyph-name=".null" horiz-adv-x="0" 
 />
    <glyph glyph-name="nonmarkingreturn" horiz-adv-x="333" 
 />
    <glyph glyph-name="CR" unicode="&#xd;" horiz-adv-x="220" 
 />
    <glyph glyph-name="space" unicode=" " horiz-adv-x="220" 
 />
    <glyph glyph-name="exclam" unicode="!" horiz-adv-x="315" 
d="M132 197l-12 523h74l-12 -523h-50zM204 35q0 -20 -13 -33.5t-34 -13.5t-34 13.5t-13 33.5t13 33.5t34 13.5t34 -13.5t13 -33.5z" />
    <glyph glyph-name="quotedbl" unicode="&#x22;" horiz-adv-x="395" 
d="M253 467l-5 253h64l-5 -253h-54zM87 467l-5 253h64l-5 -253h-54z" />
    <glyph glyph-name="numbersign" unicode="#" horiz-adv-x="572" 
d="M292 0l46 216h-158l-46 -216h-57l46 216h-96v56h108l29 136h-99v56h111l46 216h57l-46 -216h158l46 216h57l-46 -216h96v-56h-108l-29 -136h99v-56h-111l-46 -216h-57zM221 408l-29 -136h158l29 136h-158z" />
    <glyph glyph-name="dollar" unicode="$" horiz-adv-x="559" 
d="M258 -100v100q-111 3 -205 66l23 64q96 -63 182 -68v284q-44 14 -70 25t-57 31.5t-45.5 52t-14.5 74.5q0 79 51 130t136 59v82h49v-81q95 -6 176 -64l-23 -65q-80 59 -153 66v-255q32 -10 49 -16t44.5 -18t43 -25.5t31.5 -32.5t23.5 -45t7.5 -58q0 -86 -53.5 -140.5
t-145.5 -63.5v-102h-49zM436 197q0 54 -33 83t-96 50v-266q60 8 94.5 43.5t34.5 89.5zM141 537q0 -48 30 -75t87 -46v239q-55 -7 -86 -38.5t-31 -79.5z" />
    <glyph glyph-name="percent" unicode="%" horiz-adv-x="742" 
d="M354 563q0 -71 -40 -118t-107 -47q-66 0 -105.5 46t-39.5 117t40 118t107 47q66 0 105.5 -46t39.5 -117zM299 562q0 53 -23 85.5t-68 32.5t-68 -32.5t-23 -85.5t23 -85.5t68 -32.5t68 32.5t23 85.5zM118 0l446 720h61l-446 -720h-61zM389 158q0 70 40 117t107 47
q66 0 105.5 -46t39.5 -117t-40 -118t-107 -47t-106 46.5t-39 117.5zM444 158q0 -53 23 -85.5t68 -32.5t68 32.5t23 85.5t-23 85.5t-68 32.5t-68 -32.5t-23 -85.5z" />
    <glyph glyph-name="ampersand" unicode="&#x26;" horiz-adv-x="609" 
d="M478 548q0 -28 -12 -52.5t-26 -41t-44.5 -36t-48.5 -29t-57 -28.5l169 -190q34 44 70 111l53 -30q-34 -67 -82 -128l81 -91l-49 -46l-78 88q-94 -88 -214 -88q-94 0 -148 49t-54 130q0 71 41 118.5t115 87.5q-29 34 -42.5 51.5t-25.5 46t-12 59.5q0 72 51 117.5t137 45.5
q81 0 128.5 -41t47.5 -103zM245 45q92 0 169 76l-183 208q-58 -32 -91.5 -68.5t-33.5 -89.5q0 -55 37 -90.5t102 -35.5zM180 528q0 -30 15.5 -53.5t58.5 -72.5l25 12t30.5 15t28.5 16t30 21l22 22t18 27.5t5 29.5q0 36 -29.5 63t-82.5 27q-55 0 -88 -30.5t-33 -76.5z" />
    <glyph glyph-name="quotesingle" unicode="'" horiz-adv-x="228" 
d="M87 467l-5 253h64l-5 -253h-54z" />
    <glyph glyph-name="parenleft" unicode="(" horiz-adv-x="363" 
d="M119 272q0 -251 204 -418l-35 -40q-46 37 -81 73.5t-74.5 93t-61 131t-21.5 160.5t21.5 160.5t61 131t74.5 93t81 73.5l35 -40q-204 -167 -204 -418z" />
    <glyph glyph-name="parenright" unicode=")" horiz-adv-x="363" 
d="M243 272q0 251 -204 418l35 40q46 -37 81 -73.5t74.5 -93t61 -131t21.5 -160.5t-21.5 -160.5t-61 -131t-74.5 -93t-81 -73.5l-35 40q204 167 204 418z" />
    <glyph glyph-name="asterisk" unicode="*" horiz-adv-x="423" 
d="M377 535l-140 11l80 -115l-46 -27l-60 126l-60 -126l-46 27l80 115l-140 -11v54l140 -11l-80 115l46 27l60 -126l60 126l46 -27l-80 -115l140 11v-54z" />
    <glyph glyph-name="plus" unicode="+" horiz-adv-x="572" 
d="M316 0h-60v225h-214v60h214v225h60v-225h214v-60h-214v-225z" />
    <glyph glyph-name="comma" unicode="," horiz-adv-x="279" 
d="M45 -131q85 52 98 122h-5q-23 0 -37 13.5t-14 34.5t13.5 35t35.5 14q26 0 43 -21t17 -57q0 -43 -27.5 -89.5t-85.5 -84.5z" />
    <glyph glyph-name="hyphen" unicode="-" horiz-adv-x="406" 
d="M66 282v59h274v-59h-274z" />
    <glyph glyph-name="period" unicode="." horiz-adv-x="279" 
d="M190 38q0 -21 -14 -35.5t-36 -14.5t-36 14.5t-14 35.5t14 35.5t36 14.5t36 -14.5t14 -35.5z" />
    <glyph glyph-name="slash" unicode="/" horiz-adv-x="557" 
d="M24 -40l438 760h71l-438 -760h-71z" />
    <glyph glyph-name="zero" unicode="0" horiz-adv-x="623" 
d="M498 360q0 153 -50 231.5t-136 78.5t-136 -78.5t-50 -231.5t50 -231.5t136 -78.5t136 78.5t50 231.5zM568 362q0 -178 -71.5 -276t-186.5 -98q-113 0 -183.5 96.5t-70.5 273.5q0 178 71.5 276t186.5 98q113 0 183.5 -96.5t70.5 -273.5z" />
    <glyph glyph-name="one" unicode="1" horiz-adv-x="354" 
d="M59 576l-25 59l159 85h57v-720h-70v641z" />
    <glyph glyph-name="two" unicode="2" horiz-adv-x="562" 
d="M415 530q0 62 -37.5 100.5t-102.5 38.5q-104 0 -192 -114l-28 60q91 117 226 117q93 0 148 -54t55 -145q0 -92 -71.5 -197t-254.5 -274h346v-62h-449v54q200 184 280 289t80 187z" />
    <glyph glyph-name="three" unicode="3" horiz-adv-x="545" 
d="M415 190q0 73 -55 109t-154 36q-12 0 -66 -2v62q257 0 257 153q0 58 -37.5 89.5t-101.5 31.5q-84 0 -177 -66l-22 60q97 69 204 69q91 0 148 -47t57 -130q0 -133 -154 -182q82 -17 127 -64t45 -122q0 -94 -68.5 -146.5t-179.5 -52.5q-115 0 -205 53l24 63q95 -55 186 -55
q78 0 125 36.5t47 104.5z" />
    <glyph glyph-name="four" unicode="4" horiz-adv-x="586" 
d="M33 155v60l330 505h88v-503h110v-62h-110v-155h-69v155h-349zM105 217h277v423z" />
    <glyph glyph-name="five" unicode="5" horiz-adv-x="537" 
d="M422 216q0 85 -52 127.5t-147 42.5q-79 0 -159 -26l12 360h384v-63h-319l-9 -223q55 12 107 12q113 0 183 -59.5t70 -170.5q0 -109 -68.5 -168.5t-182.5 -59.5q-115 0 -202 53l23 64q90 -55 183 -55q83 0 130 42t47 124z" />
    <glyph glyph-name="six" unicode="6" horiz-adv-x="581" 
d="M335 732q91 0 165 -46l-25 -63q-75 47 -145 47q-91 0 -145.5 -72.5t-58.5 -216.5q85 85 193 85q96 0 156.5 -64t60.5 -171q0 -112 -65.5 -177.5t-160.5 -65.5q-113 0 -183.5 96.5t-70.5 270.5q0 182 77 279.5t202 97.5zM308 405q-86 0 -181 -88q7 -130 56 -199t130 -69
q68 0 111 46t43 129q0 84 -43.5 132.5t-115.5 48.5z" />
    <glyph glyph-name="seven" unicode="7" horiz-adv-x="544" 
d="M210 0h-78q134 349 287 656h-368v64h449v-59q-146 -290 -290 -661z" />
    <glyph glyph-name="eight" unicode="8" horiz-adv-x="578" 
d="M538 186q0 -91 -72 -144.5t-182 -53.5q-108 0 -176 52.5t-68 140.5q0 75 47 119t128 77q-66 28 -104 68t-38 103q0 82 63 133t157 51q93 0 152.5 -49.5t59.5 -129.5q0 -62 -36.5 -98.5t-110.5 -69.5q38 -16 63 -30t55.5 -37.5t46 -56.5t15.5 -75zM142 552q0 -50 35 -79
t115 -60q76 31 110 60.5t34 78.5q0 54 -40.5 87.5t-106.5 33.5t-106.5 -33t-40.5 -88zM468 183q0 32 -13 56.5t-42.5 44.5t-56.5 33t-75 32q-89 -38 -130 -72t-41 -92q0 -64 49 -101.5t129 -37.5q79 0 129.5 37t50.5 100z" />
    <glyph glyph-name="nine" unicode="9" horiz-adv-x="581" 
d="M246 -12q-91 0 -165 46l25 62q75 -47 145 -47q91 0 145 71.5t59 218.5q-85 -85 -193 -85q-96 0 -156.5 64.5t-60.5 171.5q0 112 65.5 177t159.5 65q114 0 184.5 -96.5t70.5 -271.5q0 -181 -77 -278.5t-202 -97.5zM272 314q88 0 182 87q-8 132 -56.5 200.5t-129.5 68.5
q-69 0 -111.5 -46t-42.5 -129t43 -132t115 -49z" />
    <glyph glyph-name="colon" unicode=":" horiz-adv-x="279" 
d="M190 440q0 -21 -14 -35.5t-36 -14.5t-36 14.5t-14 35.5t14 35.5t36 14.5t36 -14.5t14 -35.5zM190 38q0 -21 -14 -35.5t-36 -14.5t-36 14.5t-14 35.5t14 35.5t36 14.5t36 -14.5t14 -35.5z" />
    <glyph glyph-name="semicolon" unicode=";" horiz-adv-x="279" 
d="M45 -131q85 52 98 122h-5q-23 0 -37 13.5t-14 34.5t13.5 35t35.5 14q26 0 43 -21t17 -57q0 -43 -27.5 -89.5t-85.5 -84.5zM187 440q0 -21 -14 -35.5t-36 -14.5t-36 14.5t-14 35.5t14 35.5t36 14.5t36 -14.5t14 -35.5z" />
    <glyph glyph-name="less" unicode="&#x3c;" horiz-adv-x="572" 
d="M42 227v56l488 227v-62l-419 -193l419 -193v-62z" />
    <glyph glyph-name="equal" unicode="=" horiz-adv-x="572" 
d="M530 385v-56h-488v56h488zM530 181v-56h-488v56h488z" />
    <glyph glyph-name="greater" unicode="&#x3e;" horiz-adv-x="572" 
d="M530 283v-56l-488 -227v62l419 193l-419 193v62z" />
    <glyph glyph-name="question" unicode="?" horiz-adv-x="423" 
d="M182 35q0 -20 -13 -33.5t-34 -13.5t-34 13.5t-13 33.5t13 33.5t34 13.5t34 -13.5t13 -33.5zM296 552q0 59 -44 89.5t-113 30.5q-48 0 -98 -14v59q57 15 110 15q94 0 154 -45.5t60 -129.5q0 -40 -15.5 -74.5t-38 -57t-49.5 -46.5l-49.5 -44t-38 -48.5t-15.5 -60.5
q0 -10 4 -29h-58q-6 29 -6 50q0 39 20.5 72.5t49.5 57.5l57.5 48t49 56.5t20.5 70.5z" />
    <glyph glyph-name="at" unicode="@" horiz-adv-x="836" 
d="M420 -95q-161 0 -265.5 93t-104.5 260q0 170 108.5 280.5t280.5 110.5q155 0 251 -92t96 -242q0 -112 -52 -173t-125 -61q-48 0 -76.5 26t-33.5 69q-38 -45 -73.5 -70t-78.5 -25q-51 0 -81.5 36t-30.5 110q0 97 53 171.5t160 74.5q62 0 121 -27l-22 -210q-2 -20 -2 -30
q0 -78 66 -78q54 0 89 52.5t35 136.5q0 128 -83 206t-215 78q-148 0 -242 -97t-94 -246q0 -146 90 -225.5t228 -79.5q94 0 198 40l15 -48q-104 -40 -212 -40zM355 130q66 0 140 103l18 177q-37 15 -72 15q-42 0 -74 -19.5t-48.5 -50.5t-24 -62.5t-7.5 -63.5q0 -51 18.5 -75
t49.5 -24z" />
    <glyph glyph-name="A" unicode="A" horiz-adv-x="673" 
d="M380 720l257 -720h-75l-72 206h-309l-72 -206h-73l261 720h83zM337 646l-134 -379h266z" />
    <glyph glyph-name="B" unicode="B" horiz-adv-x="643" 
d="M96 0v720h223q111 0 172 -47t61 -139q0 -123 -111 -163q141 -35 141 -178q0 -92 -62.5 -142.5t-184.5 -50.5h-239zM166 61h169q177 0 177 138t-177 138h-169v-276zM166 396h148q168 0 168 131q0 68 -41.5 99.5t-126.5 31.5h-148v-262z" />
    <glyph glyph-name="C" unicode="C" horiz-adv-x="607" 
d="M534 118l24 -61q-90 -69 -203 -69q-133 0 -214.5 95t-81.5 271q0 180 85 279t223 99q106 0 188 -63l-23 -67q-86 66 -170 66q-106 0 -169 -79.5t-63 -230.5q0 -150 63 -228.5t168 -78.5q89 0 173 67z" />
    <glyph glyph-name="D" unicode="D" horiz-adv-x="695" 
d="M95 720h220q146 0 233 -93.5t87 -266.5t-87.5 -266.5t-232.5 -93.5h-220v720zM166 64h149q115 0 182 74.5t67 220.5t-67 221t-182 75h-149v-591z" />
    <glyph glyph-name="E" unicode="E" horiz-adv-x="588" 
d="M96 0v720h438v-65h-367v-249h323v-63h-323v-279h369v-64h-440z" />
    <glyph glyph-name="F" unicode="F" horiz-adv-x="543" 
d="M96 0v720h411v-65h-340v-259h304v-63h-304v-333h-71z" />
    <glyph glyph-name="G" unicode="G" horiz-adv-x="675" 
d="M379 49q79 0 150 37v227h-164v61h232v-319q-105 -67 -226 -67q-145 0 -228.5 93t-83.5 271q0 183 87 281.5t233 98.5q123 0 218 -75l-24 -66q-96 77 -198 77q-113 0 -179 -78.5t-66 -233.5q0 -154 66 -230.5t183 -76.5z" />
    <glyph glyph-name="H" unicode="H" horiz-adv-x="703" 
d="M96 0v720h71v-312h369v312h71v-720h-71v343h-369v-343h-71z" />
    <glyph glyph-name="I" unicode="I" horiz-adv-x="281" 
d="M105 0v720h71v-720h-71z" />
    <glyph glyph-name="J" unicode="J" horiz-adv-x="405" 
d="M31 3v66q41 -11 88 -11q71 0 99 36t28 110v516h71v-516q0 -106 -45 -158t-148 -52q-52 0 -93 9z" />
    <glyph glyph-name="K" unicode="K" horiz-adv-x="643" 
d="M96 0v720h71v-355l339 355h90l-257 -263l282 -457h-81l-249 408l-124 -127v-281h-71z" />
    <glyph glyph-name="L" unicode="L" horiz-adv-x="530" 
d="M96 0v720h71v-655h332v-65h-403z" />
    <glyph glyph-name="M" unicode="M" horiz-adv-x="907" 
d="M681 720h93l55 -720h-73l-29 451q-7 105 -9 191h-2q-7 -41 -60 -185l-171 -457h-66l-168 457q-53 145 -60 185h-2q0 -52 -9 -183l-32 -459h-70l59 720h94l161 -450q39 -108 60 -182h2q18 61 61 178z" />
    <glyph glyph-name="N" unicode="N" horiz-adv-x="709" 
d="M96 0v720h81l369 -579v579h67v-720h-59l-391 612v-612h-67z" />
    <glyph glyph-name="O" unicode="O" horiz-adv-x="716" 
d="M657 362q0 -177 -83.5 -275.5t-217.5 -98.5q-132 0 -214.5 96.5t-82.5 273.5q0 178 83.5 276t217.5 98q132 0 214.5 -97t82.5 -273zM586 360q0 152 -61.5 230t-166.5 78t-166.5 -78t-61.5 -230t61.5 -230t166.5 -78t166.5 78t61.5 230z" />
    <glyph glyph-name="P" unicode="P" horiz-adv-x="617" 
d="M96 0v720h243q113 0 175 -52.5t62 -153.5q0 -102 -63.5 -154.5t-179.5 -52.5h-166v-307h-71zM167 655v-284h166q87 0 129.5 34.5t42.5 107.5t-42.5 107.5t-129.5 34.5h-166z" />
    <glyph glyph-name="Q" unicode="Q" horiz-adv-x="717" 
d="M657 362q0 -170 -76.5 -266.5t-202.5 -104.5q-1 -9 -1 -26q0 -53 24 -73.5t73 -20.5q43 0 97 16v-65q-56 -14 -107 -14q-73 0 -111 33t-38 107q0 29 3 44q-117 13 -188 107.5t-71 258.5q0 178 83.5 276t217.5 98q132 0 214.5 -97t82.5 -273zM586 360q0 152 -61.5 230
t-166.5 78t-166.5 -78t-61.5 -230t61.5 -230t166.5 -78t166.5 78t61.5 230z" />
    <glyph glyph-name="R" unicode="R" horiz-adv-x="670" 
d="M530 0l-202 329h-161v-329h-71v720h250q111 0 172 -49.5t61 -145.5q0 -81 -44 -130t-130 -62l205 -333h-80zM167 388h173q85 0 126.5 32t41.5 102q0 69 -41.5 101t-126.5 32h-173v-267z" />
    <glyph glyph-name="S" unicode="S" horiz-adv-x="579" 
d="M59 56l24 65q102 -70 201 -70q76 0 120.5 38t44.5 102q0 48 -27.5 80t-68 46.5l-88.5 31.5t-88.5 34.5t-68 56t-27.5 95.5q0 90 61.5 143.5t160.5 53.5q109 0 198 -66l-23 -67q-91 69 -179 69q-68 0 -107.5 -33.5t-39.5 -90.5q0 -39 20.5 -66t53 -41.5t71.5 -26.5
t78 -26.5t71.5 -35t53 -58t20.5 -89.5q0 -98 -65.5 -155.5t-173.5 -57.5q-120 0 -222 68z" />
    <glyph glyph-name="T" unicode="T" horiz-adv-x="561" 
d="M245 0v655h-214v65h499v-65h-214v-655h-71z" />
    <glyph glyph-name="U" unicode="U" horiz-adv-x="687" 
d="M88 252v468h72v-465q0 -106 43 -154.5t141 -48.5t141 48.5t43 154.5v465h70v-465q0 -137 -62.5 -202t-192.5 -65t-192.5 64.5t-62.5 199.5z" />
    <glyph glyph-name="V" unicode="V" horiz-adv-x="646" 
d="M285 0l-249 720h74l213 -627l216 627h72l-254 -720h-72z" />
    <glyph glyph-name="W" unicode="W" horiz-adv-x="953" 
d="M653 0l-120 415q-37 128 -55 209h-2q-11 -50 -55 -205l-124 -419h-69l-188 720h74l106 -415q0 -1 4 -16.5l10 -39l12.5 -49.5t12.5 -53.5t9 -45.5h2q24 106 53 205l121 414h68l119 -413q35 -122 54 -206h2q12 69 47 204l108 415h72l-193 -720h-68z" />
    <glyph glyph-name="X" unicode="X" horiz-adv-x="625" 
d="M33 0l234 371l-219 349h81l184 -297l183 297h80l-220 -349l234 -371h-81l-199 319l-197 -319h-80z" />
    <glyph glyph-name="Y" unicode="Y" horiz-adv-x="603" 
d="M266 0v309l-240 411h79l197 -341l198 341h77l-240 -411v-309h-71z" />
    <glyph glyph-name="Z" unicode="Z" horiz-adv-x="598" 
d="M41 0v54l409 601h-387v65h479v-55l-409 -601h414v-64h-506z" />
    <glyph glyph-name="bracketleft" unicode="[" horiz-adv-x="347" 
d="M307 -122v-58h-221v900h221v-58h-152v-784h152z" />
    <glyph glyph-name="backslash" unicode="\" horiz-adv-x="557" 
d="M95 720l438 -760h-71l-438 760h71z" />
    <glyph glyph-name="bracketright" unicode="]" horiz-adv-x="347" 
d="M40 -180v58h152v784h-152v58h221v-900h-221z" />
    <glyph glyph-name="asciicircum" unicode="^" horiz-adv-x="572" 
d="M258 720h56l227 -488h-62l-193 419l-193 -419h-62z" />
    <glyph glyph-name="underscore" unicode="_" horiz-adv-x="492" 
d="M-4 -130v57h500v-57h-500z" />
    <glyph glyph-name="grave" unicode="`" horiz-adv-x="500" 
d="M309 574h-56l-124 146h84z" />
    <glyph glyph-name="a" unicode="a" horiz-adv-x="521" 
d="M270 463q-78 0 -171 -55l-20 56q96 58 201 58q81 0 123.5 -39.5t42.5 -128.5v-238q0 -90 10 -116h-65q-9 16 -12 66q-75 -78 -174 -78q-70 0 -112.5 40.5t-42.5 114.5q0 169 239 169q41 0 89 -7v43q0 62 -26.5 88.5t-81.5 26.5zM378 124v129q-53 8 -90 8
q-91 0 -130.5 -27.5t-39.5 -85.5q0 -50 27 -76t73 -26q82 0 160 78z" />
    <glyph glyph-name="b" unicode="b" horiz-adv-x="570" 
d="M80 720h69v-284q76 86 173 86q88 0 143 -68.5t55 -193.5q0 -130 -58.5 -201t-149.5 -71q-94 0 -166 83v-71h-66v720zM307 461q-82 0 -158 -86v-248q69 -80 153 -80q69 0 109 52.5t40 154.5q0 101 -39 154t-105 53z" />
    <glyph glyph-name="c" unicode="c" horiz-adv-x="468" 
d="M424 476l-20 -61q-65 48 -123 48q-73 0 -117.5 -53t-44.5 -155t44.5 -155.5t119.5 -53.5q68 0 123 47l20 -56q-61 -49 -152 -49q-102 0 -163 66.5t-61 194.5q0 132 64 202.5t168 70.5q78 0 142 -46z" />
    <glyph glyph-name="d" unicode="d" horiz-adv-x="570" 
d="M434 0q-9 14 -13 74q-73 -86 -173 -86q-88 0 -143 67.5t-55 192.5q0 130 59 202t151 72t161 -79v277h69v-604q0 -90 10 -116h-66zM263 47q82 0 158 86v248q-69 80 -153 80q-69 0 -109 -52.5t-40 -154.5q0 -101 39 -154t105 -53z" />
    <glyph glyph-name="e" unicode="e" horiz-adv-x="537" 
d="M278 466q-66 0 -108.5 -45t-49.5 -127h295q0 87 -37 129.5t-100 42.5zM481 241h-361q2 -99 47 -147.5t122 -48.5q74 0 159 52l20 -55q-86 -54 -188 -54q-105 0 -167.5 67.5t-62.5 192.5q0 128 65 201t166 73q93 0 147 -63t54 -180q0 -24 -1 -38z" />
    <glyph glyph-name="f" unicode="f" horiz-adv-x="336" 
d="M25 451v59h105v72q0 72 31 108t102 36q27 0 59 -6v-59q-27 6 -50 6q-41 0 -57 -21.5t-16 -63.5v-72h123v-59h-123v-451h-69v451h-105z" />
    <glyph glyph-name="g" unicode="g" horiz-adv-x="577" 
d="M489 344q0 -86 -62.5 -135.5t-157.5 -49.5q-53 0 -95 16q-32 -25 -32 -55q0 -15 7 -24.5t23 -13.5t28.5 -5t34.5 -1h118q82 0 128.5 -32.5t46.5 -92.5q0 -81 -80 -127t-203 -46q-102 0 -161.5 33t-59.5 95q0 84 109 123q-56 23 -56 75q0 49 57 91q-75 48 -75 142
q0 86 62.5 135.5t155.5 49.5q99 0 157 -52q41 41 97 41q15 0 24 -1v-66q-12 2 -24 2q-36 0 -64 -15q22 -38 22 -87zM128 338q0 -63 40.5 -94.5t105.5 -31.5q67 0 107 32.5t40 95.5q0 64 -40.5 95.5t-105.5 31.5q-66 0 -106.5 -32.5t-40.5 -96.5zM339 15h-134
q-112 -33 -112 -100q0 -83 160 -83q94 0 149 29t55 81q0 73 -118 73z" />
    <glyph glyph-name="h" unicode="h" horiz-adv-x="567" 
d="M80 0v720h69v-289q36 38 89.5 64.5t113.5 26.5q63 0 101.5 -33.5t38.5 -108.5v-380h-69v366q0 94 -89 94q-93 0 -185 -90v-370h-69z" />
    <glyph glyph-name="i" unicode="i" horiz-adv-x="241" 
d="M86 0v510h69v-510h-69zM167 652q0 -20 -13 -33t-33 -13t-33 13t-13 33t13 33t33 13t33 -13t13 -33z" />
    <glyph glyph-name="j" unicode="j" horiz-adv-x="241" 
d="M155 510v-582q0 -72 -31 -108t-102 -36q-28 0 -59 6v59q27 -6 49 -6q41 0 57.5 21t16.5 64v582h69zM167 652q0 -20 -13 -33t-33 -13t-33 13t-13 33t13 33t33 13t33 -13t13 -33z" />
    <glyph glyph-name="k" unicode="k" horiz-adv-x="524" 
d="M80 0v720h69v-432l235 222h88l-197 -180l220 -330h-76l-190 288l-80 -73v-215h-69z" />
    <glyph glyph-name="l" unicode="l" horiz-adv-x="241" 
d="M86 0v720h69v-720h-69z" />
    <glyph glyph-name="m" unicode="m" horiz-adv-x="884" 
d="M80 0v510h69v-78q88 90 195 90q108 0 129 -90q92 90 201 90q135 0 135 -142v-380h-69v366q0 51 -21 72.5t-62 21.5q-90 0 -178 -86v-374h-69v366q0 94 -84 94q-85 0 -177 -90v-370h-69z" />
    <glyph glyph-name="n" unicode="n" horiz-adv-x="567" 
d="M80 0v510h69v-79q91 91 204 91q63 0 101 -33.5t38 -108.5v-380h-69v366q0 94 -89 94t-185 -90v-370h-69z" />
    <glyph glyph-name="o" unicode="o" horiz-adv-x="554" 
d="M119 255q0 -106 43.5 -157.5t114.5 -51.5t114.5 51.5t43.5 157.5t-43.5 157.5t-114.5 51.5t-114.5 -51.5t-43.5 -157.5zM504 257q0 -131 -64.5 -200t-164.5 -69q-98 0 -161.5 67t-63.5 198q0 132 65 200.5t164 68.5q98 0 161.5 -67.5t63.5 -197.5z" />
    <glyph glyph-name="p" unicode="p" horiz-adv-x="570" 
d="M80 510h69v-74q76 86 172 86q89 0 144 -68.5t55 -194.5q0 -129 -58.5 -200t-149.5 -71q-92 0 -163 79v-277h-69v720zM307 461q-82 0 -158 -86v-248q69 -80 153 -80q69 0 109 52.5t40 154.5q0 101 -39 154t-105 53z" />
    <glyph glyph-name="q" unicode="q" horiz-adv-x="570" 
d="M490 -210h-69v284q-76 -86 -173 -86q-89 0 -143.5 67.5t-54.5 192.5q0 130 58.5 202t150.5 72q93 0 165 -83v71h66v-720zM263 47q82 0 158 86v248q-69 80 -153 80q-69 0 -109 -52.5t-40 -154.5q0 -101 39 -154t105 -53z" />
    <glyph glyph-name="r" unicode="r" horiz-adv-x="367" 
d="M345 519v-64q-22 2 -34 2q-88 0 -162 -93v-364h-69v510h69v-82q67 94 163 94q18 0 33 -3z" />
    <glyph glyph-name="s" unicode="s" horiz-adv-x="454" 
d="M388 473l-20 -60q-73 51 -134 51q-44 0 -70 -23t-26 -58q0 -34 27.5 -54.5t66.5 -31t78 -23.5t66.5 -45t27.5 -83q0 -73 -50.5 -115.5t-134.5 -42.5q-92 0 -169 50l20 60q80 -53 154 -53q53 0 82.5 25t29.5 67q0 38 -27.5 60.5t-66.5 34l-78 24t-66.5 42.5t-27.5 78
q0 65 46 105.5t121 40.5q81 0 151 -49z" />
    <glyph glyph-name="t" unicode="t" horiz-adv-x="375" 
d="M25 451v59h105v170h69v-170h135v-59h-135v-313q0 -50 12.5 -67.5t49.5 -17.5q30 0 73 13v-61q-53 -11 -86 -11q-65 0 -91.5 30t-26.5 106v321h-105z" />
    <glyph glyph-name="u" unicode="u" horiz-adv-x="567" 
d="M486 510v-510h-69v79q-91 -91 -204 -91q-63 0 -101 33.5t-38 108.5v380h69v-368q0 -94 89 -94t185 90v372h69z" />
    <glyph glyph-name="v" unicode="v" horiz-adv-x="505" 
d="M214 0l-189 510h73l153 -422l157 422h71l-194 -510h-71z" />
    <glyph glyph-name="w" unicode="w" horiz-adv-x="751" 
d="M248 0h-68l-154 510h70l87 -292q24 -82 34 -141h2q8 52 35 139l91 294h65l87 -293q29 -97 36 -140h2q10 62 34 142l88 291h68l-158 -510h-67l-85 284q-27 89 -38 145h-2q-10 -47 -39 -143z" />
    <glyph glyph-name="x" unicode="x" horiz-adv-x="504" 
d="M29 0l181 265l-167 245h78l131 -200l132 200h76l-167 -245l181 -265h-78l-145 220l-147 -220h-75z" />
    <glyph glyph-name="y" unicode="y" horiz-adv-x="505" 
d="M38 -212v62q30 -6 46 -6q46 0 76.5 34t67.5 134h-24l-178 498h73l153 -441l156 441h71l-183 -498q-51 -138 -94 -183t-117 -45q-30 0 -47 4z" />
    <glyph glyph-name="z" unicode="z" horiz-adv-x="482" 
d="M32 0v50l314 401h-295v59h384v-50l-314 -401h319v-59h-408z" />
    <glyph glyph-name="braceleft" unicode="{" horiz-adv-x="347" 
d="M200 169v-219q0 -36 16.5 -54t58.5 -18h39v-58h-39q-144 0 -144 130v219q0 37 -16.5 54.5t-58.5 17.5h-23v58h23q42 0 58.5 17.5t16.5 54.5v219q0 130 144 130h39v-58h-39q-42 0 -58.5 -18t-16.5 -54v-219q0 -75 -63 -101q63 -25 63 -101z" />
    <glyph glyph-name="bar" unicode="|" horiz-adv-x="343" 
d="M138 -180v900h67v-900h-67z" />
    <glyph glyph-name="braceright" unicode="}" horiz-adv-x="347" 
d="M147 -50v219q0 76 63 101q-63 26 -63 101v219q0 36 -16.5 54t-58.5 18h-39v58h39q144 0 144 -130v-219q0 -37 16.5 -54.5t58.5 -17.5h23v-58h-23q-42 0 -58.5 -17.5t-16.5 -54.5v-219q0 -130 -144 -130h-39v58h39q42 0 58.5 18t16.5 54z" />
    <glyph glyph-name="asciitilde" unicode="~" horiz-adv-x="572" 
d="M165 250q-57 0 -106 -46l-29 52q60 54 136 54q40 0 124 -25t117 -25q57 0 106 46l29 -52q-60 -54 -136 -54q-40 0 -124 25t-117 25z" />
    <glyph glyph-name="uni00A0" unicode="&#xa0;" horiz-adv-x="220" 
 />
    <glyph glyph-name="exclamdown" unicode="&#xa1;" horiz-adv-x="315" 
d="M183 313l12 -523h-74l12 523h50zM111 475q0 20 13 33.5t34 13.5t34 -13.5t13 -33.5t-13 -33.5t-34 -13.5t-34 13.5t-13 33.5z" />
    <glyph glyph-name="cent" unicode="&#xa2;" horiz-adv-x="489" 
d="M172 -143l35 153q-73 21 -115 84.5t-42 166.5q0 131 66 202t173 71q21 0 39 -3l29 126h46l-32 -136q35 -11 66 -33l-21 -60q-28 20 -58 34l-94 -404q8 -1 25 -1q69 0 130 47l20 -55q-65 -49 -157 -49q-21 0 -31 1l-33 -144h-46zM118 266q0 -154 103 -197l93 405
q-16 2 -29 2q-74 0 -120.5 -53t-46.5 -157z" />
    <glyph glyph-name="sterling" unicode="&#xa3;" horiz-adv-x="474" 
d="M375 673q-52 0 -74.5 -26t-28.5 -78l-18 -172h178v-56h-184l-10 -102q-6 -66 -26 -105t-56 -65q17 -2 80 -12t95 -10q54 0 99 27l21 -57q-47 -29 -120 -29q-35 0 -105.5 12t-102.5 12q-55 0 -99 -27l-20 57q88 31 121.5 69t43.5 128l11 102h-152v56h158l18 172
q9 84 46 123.5t119 39.5q30 0 63 -5v-59q-33 5 -57 5z" />
    <glyph glyph-name="currency" unicode="&#xa4;" horiz-adv-x="572" 
d="M187 255q0 -43 28.5 -71.5t70.5 -28.5t70.5 28.5t28.5 71.5t-28.5 71.5t-70.5 28.5t-70.5 -28.5t-28.5 -71.5zM435 255q0 -47 -24 -83l86 -87l-40 -42l-88 89q-39 -23 -83 -23t-83 23l-88 -89l-40 42l86 87q-24 36 -24 83t24 83l-86 87l40 42l88 -89q39 23 83 23t83 -23
l88 89l40 -42l-86 -87q24 -36 24 -83z" />
    <glyph glyph-name="yen" unicode="&#xa5;" horiz-adv-x="594" 
d="M89 271v56h166l-229 393h77l195 -338l195 338h75l-229 -393h166v-56h-173v-80h173v-56h-173v-135h-70v135h-173v56h173v80h-173z" />
    <glyph glyph-name="brokenbar" unicode="&#xa6;" horiz-adv-x="343" 
d="M138 330v390h67v-390h-67zM138 -180v390h67v-390h-67z" />
    <glyph glyph-name="section" unicode="&#xa7;" horiz-adv-x="584" 
d="M324 732q88 0 164 -47l-22 -61q-76 49 -147 49q-64 0 -108.5 -34t-61.5 -95q50 -6 97.5 -20t96 -40.5t84.5 -61.5t58.5 -89t22.5 -118q0 -121 -72 -194t-188 -73q-92 0 -172 46l22 61q79 -49 156 -49q67 0 114 34t65 95q-64 8 -122 29t-113.5 58.5t-88.5 100t-33 143.5
q0 120 68.5 193t179.5 73zM444 193v18q0 68 -28.5 120t-77 82.5t-96.5 47t-102 24.5v-15q0 -69 28.5 -122t77 -83.5t96.5 -47t102 -24.5z" />
    <glyph glyph-name="dieresis" unicode="&#xa8;" horiz-adv-x="500" 
d="M114 622q0 18 12 30.5t31 12.5t31 -12.5t12 -30.5t-12 -30.5t-31 -12.5t-31 12.5t-12 30.5zM300 622q0 18 12 30.5t31 12.5t31 -12.5t12 -30.5t-12 -30.5t-31 -12.5t-31 12.5t-12 30.5z" />
    <glyph glyph-name="copyright" unicode="&#xa9;" horiz-adv-x="838" 
d="M527 250l15 -48q-48 -35 -113 -35q-75 0 -120 48.5t-45 138.5q0 93 47 144t122 51q64 0 107 -33l-13 -52q-46 35 -93 35q-51 0 -82 -36t-31 -105q0 -70 32 -106t83 -36q45 0 91 34zM92 360q0 -140 94.5 -233.5t232.5 -93.5t232.5 93.5t94.5 233.5t-94.5 233.5
t-232.5 93.5t-232.5 -93.5t-94.5 -233.5zM791 360q0 -159 -107.5 -265.5t-264.5 -106.5t-264.5 106.5t-107.5 265.5t107.5 265.5t264.5 106.5t264.5 -106.5t107.5 -265.5z" />
    <glyph glyph-name="ordfeminine" unicode="&#xaa;" horiz-adv-x="328" 
d="M173 704q107 0 107 -107v-145q0 -54 6 -72h-50q-6 12 -7 35q-45 -43 -101 -43q-42 0 -69 25.5t-27 72.5q0 105 144 105q24 0 52 -4v23q0 66 -65 66q-48 0 -104 -33l-13 43q60 34 127 34zM142 414q43 0 86 39v81q-24 4 -46 4q-52 0 -75 -16t-23 -49q0 -29 15.5 -44
t42.5 -15z" />
    <glyph glyph-name="guillemotleft" unicode="&#xab;" horiz-adv-x="487" 
d="M186 24l-138 231l138 231h66l-133 -231l133 -231h-66zM357 24l-138 231l138 231h66l-133 -231l133 -231h-66z" />
    <glyph glyph-name="logicalnot" unicode="&#xac;" horiz-adv-x="572" 
d="M530 66h-60v226h-428v59h488v-285z" />
    <glyph glyph-name="uni00AD" unicode="&#xad;" horiz-adv-x="406" 
d="M66 282v59h274v-59h-274z" />
    <glyph glyph-name="registered" unicode="&#xae;" horiz-adv-x="838" 
d="M791 360q0 -159 -107.5 -265.5t-264.5 -106.5t-264.5 106.5t-107.5 265.5t107.5 265.5t264.5 106.5t264.5 -106.5t107.5 -265.5zM92 360q0 -140 94.5 -233.5t232.5 -93.5t232.5 93.5t94.5 233.5t-94.5 233.5t-232.5 93.5t-232.5 -93.5t-94.5 -233.5zM513 175l-94 154h-73
v-154h-57v366h138q64 0 98.5 -27t34.5 -79q0 -81 -83 -101l98 -159h-62zM346 374h76q81 0 81 58q0 59 -81 59h-76v-117z" />
    <glyph glyph-name="macron" unicode="&#xaf;" horiz-adv-x="500" 
d="M110 585v57h280v-57h-280z" />
    <glyph glyph-name="degree" unicode="&#xb0;" horiz-adv-x="415" 
d="M109 586q0 -43 28.5 -71.5t70.5 -28.5t70.5 28.5t28.5 71.5t-28.5 71.5t-70.5 28.5t-70.5 -28.5t-28.5 -71.5zM357 586q0 -62 -42.5 -104t-106.5 -42t-106.5 42t-42.5 104t42.5 104t106.5 42t106.5 -42t42.5 -104z" />
    <glyph glyph-name="plusminus" unicode="&#xb1;" horiz-adv-x="572" 
d="M316 103h-60v175h-214v57h214v175h60v-175h214v-57h-214v-175zM42 -7v56h488v-56h-488z" />
    <glyph glyph-name="twosuperior" unicode="&#xb2;" horiz-adv-x="357" 
d="M253 705q0 36 -20.5 58.5t-59.5 22.5q-61 0 -119 -68l-18 45q58 71 142 71q59 0 93.5 -34t34.5 -92q0 -57 -42.5 -119t-151.5 -161h207v-48h-283v42q122 109 169.5 170.5t47.5 112.5z" />
    <glyph glyph-name="threesuperior" unicode="&#xb3;" horiz-adv-x="347" 
d="M168 834q57 0 93.5 -29.5t36.5 -82.5q0 -80 -90 -111q101 -23 101 -114q0 -59 -43.5 -92t-113.5 -33q-73 0 -130 32l16 48q59 -33 115 -33q48 0 75.5 20.5t27.5 59.5q0 83 -125 83q-10 0 -42 -2v47q74 0 115.5 23t41.5 67q0 33 -23 51t-62 18q-50 0 -107 -40l-15 45
q63 43 129 43z" />
    <glyph glyph-name="acute" unicode="&#xb4;" horiz-adv-x="500" 
d="M247 574h-56l96 146h84z" />
    <glyph glyph-name="mu" unicode="&#xb5;" horiz-adv-x="572" 
d="M148 -210h-68v720h69v-368q0 -94 89 -94t185 90v372h69v-510h-69v79q-38 -38 -91.5 -64.5t-107.5 -26.5q-50 0 -84 21q8 -99 8 -219z" />
    <glyph glyph-name="paragraph" unicode="&#xb6;" horiz-adv-x="511" 
d="M359 680h63v-554q0 -106 -46.5 -152t-153.5 -69l-17 57q82 16 118 50t36 116v552zM280 680v-403q-113 0 -176 54.5t-63 146.5t63 147t176 55z" />
    <glyph glyph-name="periodcentered" unicode="&#xb7;" horiz-adv-x="279" 
d="M190 257q0 -21 -14 -35.5t-36 -14.5t-36 14.5t-14 35.5t14 35.5t36 14.5t36 -14.5t14 -35.5z" />
    <glyph glyph-name="cedilla" unicode="&#xb8;" horiz-adv-x="500" 
d="M349 -99q0 -40 -30 -62.5t-81 -22.5q-46 0 -88 23l12 45q42 -22 75 -22q53 0 53 40q0 46 -73 63l13 37q54 -7 86.5 -33t32.5 -68z" />
    <glyph glyph-name="onesuperior" unicode="&#xb9;" horiz-adv-x="231" 
d="M39 728l-19 45l101 53h43v-446h-53v386z" />
    <glyph glyph-name="ordmasculine" unicode="&#xba;" horiz-adv-x="352" 
d="M320 539q0 -81 -41.5 -124t-103.5 -43t-102.5 42.5t-40.5 122.5q0 81 41.5 124t103.5 43t102.5 -42.5t40.5 -122.5zM268 538q0 62 -26 92.5t-66 30.5q-41 0 -66.5 -30.5t-25.5 -92.5t25.5 -92.5t66.5 -30.5q40 0 66 30.5t26 92.5z" />
    <glyph glyph-name="guillemotright" unicode="&#xbb;" horiz-adv-x="487" 
d="M267 255l-138 -231h-66l133 231l-133 231h66zM438 255l-138 -231h-66l133 231l-133 231h66z" />
    <glyph glyph-name="onequarter" unicode="&#xbc;" horiz-adv-x="716" 
d="M368 93v46l203 307h64v-306h68v-47h-68v-93h-52v93h-215zM422 140h161v243zM87 0l450 720h58l-450 -720h-58zM39 622l-19 45l101 53h43v-446h-53v386z" />
    <glyph glyph-name="onehalf" unicode="&#xbd;" horiz-adv-x="755" 
d="M74 0l450 720h58l-450 -720h-58zM39 622l-19 45l101 53h43v-446h-53v386zM653 325q0 36 -20.5 58.5t-59.5 22.5q-61 0 -119 -68l-18 45q58 71 142 71q59 0 93.5 -34t34.5 -92q0 -57 -42.5 -119t-151.5 -161h207v-48h-283v42q122 109 169.5 170.5t47.5 112.5z" />
    <glyph glyph-name="threequarters" unicode="&#xbe;" horiz-adv-x="788" 
d="M440 93v46l203 307h64v-306h68v-47h-68v-93h-52v93h-215zM494 140h161v243zM177 0l450 720h58l-450 -720h-58zM168 728q57 0 93.5 -29.5t36.5 -82.5q0 -80 -90 -111q101 -23 101 -114q0 -59 -43.5 -92t-113.5 -33q-73 0 -130 32l16 48q59 -33 115 -33q48 0 75.5 20.5
t27.5 59.5q0 83 -125 83q-10 0 -42 -2v47q74 0 115.5 23t41.5 67q0 33 -23 51t-62 18q-50 0 -107 -40l-15 45q63 43 129 43z" />
    <glyph glyph-name="questiondown" unicode="&#xbf;" horiz-adv-x="423" 
d="M240 475q0 20 13 33.5t34 13.5t34 -13.5t13 -33.5t-13 -33.5t-34 -13.5t-34 13.5t-13 33.5zM126 -42q0 -59 44 -89.5t113 -30.5q48 0 98 14v-59q-57 -15 -110 -15q-94 0 -154 45.5t-60 129.5q0 40 15.5 74.5t38 57t49.5 46.5l49.5 44t38 48.5t15.5 60.5q0 10 -4 29h58
q6 -28 6 -50q0 -39 -20.5 -72.5t-49.5 -57.5l-57.5 -48t-49 -56.5t-20.5 -70.5z" />
    <glyph glyph-name="Agrave" unicode="&#xc0;" horiz-adv-x="673" 
d="M380 720l257 -720h-75l-72 206h-309l-72 -206h-73l261 720h83zM337 646l-134 -379h266zM395 783h-56l-125 125h85z" />
    <glyph glyph-name="Aacute" unicode="&#xc1;" horiz-adv-x="673" 
d="M380 720l257 -720h-75l-72 206h-309l-72 -206h-73l261 720h83zM337 646l-134 -379h266zM333 783h-56l96 125h85z" />
    <glyph glyph-name="Acircumflex" unicode="&#xc2;" horiz-adv-x="673" 
d="M380 720l257 -720h-75l-72 206h-309l-72 -206h-73l261 720h83zM337 646l-134 -379h266zM242 783h-56l122 125h56l122 -125h-56l-94 68z" />
    <glyph glyph-name="Atilde" unicode="&#xc3;" horiz-adv-x="673" 
d="M380 720l257 -720h-75l-72 206h-309l-72 -206h-73l261 720h83zM337 646l-134 -379h266zM234 783h-46q0 55 22 79t55 24q31 0 77.5 -26.5t63.5 -26.5q32 0 32 47h46q0 -55 -22 -79t-55 -24q-31 0 -77.5 26.5t-63.5 26.5q-32 0 -32 -47z" />
    <glyph glyph-name="Adieresis" unicode="&#xc4;" horiz-adv-x="673" 
d="M380 720l257 -720h-75l-72 206h-309l-72 -206h-73l261 720h83zM337 646l-134 -379h266zM200 825q0 18 12 30.5t31 12.5t31 -12.5t12 -30.5t-12 -30.5t-31 -12.5t-31 12.5t-12 30.5zM386 825q0 18 12 30.5t31 12.5t31 -12.5t12 -30.5t-12 -30.5t-31 -12.5t-31 12.5
t-12 30.5z" />
    <glyph glyph-name="Aring" unicode="&#xc5;" horiz-adv-x="673" 
d="M426 756q0 -45 -35 -69l246 -687h-75l-72 206h-309l-72 -206h-73l249 687q-35 24 -35 69q0 36 25 61t63 25t63 -25t25 -61zM337 646l-134 -379h266zM289 756q0 -20 14 -33.5t35 -13.5t35 13.5t14 33.5t-14 33.5t-35 13.5t-35 -13.5t-14 -33.5z" />
    <glyph glyph-name="AE" unicode="&#xc6;" horiz-adv-x="933" 
d="M27 0l405 720h447v-65h-337v-249h294v-63h-294v-279h339v-64h-410v206h-252l-114 -206h-78zM253 267h218v393z" />
    <glyph glyph-name="Ccedilla" unicode="&#xc7;" horiz-adv-x="607" 
d="M436 -99q0 -40 -30 -62.5t-81 -22.5q-46 0 -88 23l12 45q42 -22 75 -22q53 0 53 40q0 46 -73 63l9 26q-116 14 -185 107.5t-69 255.5q0 180 85 279t223 99q106 0 188 -63l-23 -67q-86 66 -170 66q-106 0 -169 -79.5t-63 -230.5q0 -150 63 -228.5t168 -78.5q89 0 173 67
l24 -61q-82 -64 -188 -68q66 -28 66 -88z" />
    <glyph glyph-name="Egrave" unicode="&#xc8;" horiz-adv-x="588" 
d="M96 0v720h438v-65h-367v-249h323v-63h-323v-279h369v-64h-440zM374 783h-56l-125 125h85z" />
    <glyph glyph-name="Eacute" unicode="&#xc9;" horiz-adv-x="588" 
d="M96 0v720h438v-65h-367v-249h323v-63h-323v-279h369v-64h-440zM312 783h-56l96 125h85z" />
    <glyph glyph-name="Ecircumflex" unicode="&#xca;" horiz-adv-x="588" 
d="M96 0v720h438v-65h-367v-249h323v-63h-323v-279h369v-64h-440zM221 783h-56l122 125h56l122 -125h-56l-94 68z" />
    <glyph glyph-name="Edieresis" unicode="&#xcb;" horiz-adv-x="588" 
d="M96 0v720h438v-65h-367v-249h323v-63h-323v-279h369v-64h-440zM179 825q0 18 12 30.5t31 12.5t31 -12.5t12 -30.5t-12 -30.5t-31 -12.5t-31 12.5t-12 30.5zM365 825q0 18 12 30.5t31 12.5t31 -12.5t12 -30.5t-12 -30.5t-31 -12.5t-31 12.5t-12 30.5z" />
    <glyph glyph-name="Igrave" unicode="&#xcc;" horiz-adv-x="281" 
d="M105 0v720h71v-720h-71zM200 783h-56l-125 125h85z" />
    <glyph glyph-name="Iacute" unicode="&#xcd;" horiz-adv-x="281" 
d="M105 0v720h71v-720h-71zM138 783h-56l96 125h85z" />
    <glyph glyph-name="Icircumflex" unicode="&#xce;" horiz-adv-x="281" 
d="M105 0v720h71v-720h-71zM47 783h-56l122 125h56l122 -125h-56l-94 68z" />
    <glyph glyph-name="Idieresis" unicode="&#xcf;" horiz-adv-x="281" 
d="M105 0v720h71v-720h-71zM5 825q0 18 12 30.5t31 12.5t31 -12.5t12 -30.5t-12 -30.5t-31 -12.5t-31 12.5t-12 30.5zM191 825q0 18 12 30.5t31 12.5t31 -12.5t12 -30.5t-12 -30.5t-31 -12.5t-31 12.5t-12 30.5z" />
    <glyph glyph-name="Eth" unicode="&#xd0;" horiz-adv-x="695" 
d="M12 348v57h83v315h220q146 0 233 -93.5t87 -266.5t-87.5 -266.5t-232.5 -93.5h-220v348h-83zM166 64h149q115 0 182 74.5t67 220.5t-67 221t-182 75h-149v-250h197v-57h-197v-284z" />
    <glyph glyph-name="Ntilde" unicode="&#xd1;" horiz-adv-x="709" 
d="M96 0v720h81l369 -579v579h67v-720h-59l-391 612v-612h-67zM252 783h-46q0 55 22 79t55 24q31 0 77.5 -26.5t63.5 -26.5q32 0 32 47h46q0 -55 -22 -79t-55 -24q-31 0 -77.5 26.5t-63.5 26.5q-32 0 -32 -47z" />
    <glyph glyph-name="Ograve" unicode="&#xd2;" horiz-adv-x="716" 
d="M657 362q0 -177 -83.5 -275.5t-217.5 -98.5q-132 0 -214.5 96.5t-82.5 273.5q0 178 83.5 276t217.5 98q132 0 214.5 -97t82.5 -273zM586 360q0 152 -61.5 230t-166.5 78t-166.5 -78t-61.5 -230t61.5 -230t166.5 -78t166.5 78t61.5 230zM416 783h-56l-125 125h85z" />
    <glyph glyph-name="Oacute" unicode="&#xd3;" horiz-adv-x="716" 
d="M657 362q0 -177 -83.5 -275.5t-217.5 -98.5q-132 0 -214.5 96.5t-82.5 273.5q0 178 83.5 276t217.5 98q132 0 214.5 -97t82.5 -273zM586 360q0 152 -61.5 230t-166.5 78t-166.5 -78t-61.5 -230t61.5 -230t166.5 -78t166.5 78t61.5 230zM354 783h-56l96 125h85z" />
    <glyph glyph-name="Ocircumflex" unicode="&#xd4;" horiz-adv-x="716" 
d="M657 362q0 -177 -83.5 -275.5t-217.5 -98.5q-132 0 -214.5 96.5t-82.5 273.5q0 178 83.5 276t217.5 98q132 0 214.5 -97t82.5 -273zM586 360q0 152 -61.5 230t-166.5 78t-166.5 -78t-61.5 -230t61.5 -230t166.5 -78t166.5 78t61.5 230zM263 783h-56l122 125h56l122 -125
h-56l-94 68z" />
    <glyph glyph-name="Otilde" unicode="&#xd5;" horiz-adv-x="716" 
d="M657 362q0 -177 -83.5 -275.5t-217.5 -98.5q-132 0 -214.5 96.5t-82.5 273.5q0 178 83.5 276t217.5 98q132 0 214.5 -97t82.5 -273zM586 360q0 152 -61.5 230t-166.5 78t-166.5 -78t-61.5 -230t61.5 -230t166.5 -78t166.5 78t61.5 230zM255 783h-46q0 55 22 79t55 24
q31 0 77.5 -26.5t63.5 -26.5q32 0 32 47h46q0 -55 -22 -79t-55 -24q-31 0 -77.5 26.5t-63.5 26.5q-32 0 -32 -47z" />
    <glyph glyph-name="Odieresis" unicode="&#xd6;" horiz-adv-x="716" 
d="M657 362q0 -177 -83.5 -275.5t-217.5 -98.5q-132 0 -214.5 96.5t-82.5 273.5q0 178 83.5 276t217.5 98q132 0 214.5 -97t82.5 -273zM586 360q0 152 -61.5 230t-166.5 78t-166.5 -78t-61.5 -230t61.5 -230t166.5 -78t166.5 78t61.5 230zM221 825q0 18 12 30.5t31 12.5
t31 -12.5t12 -30.5t-12 -30.5t-31 -12.5t-31 12.5t-12 30.5zM407 825q0 18 12 30.5t31 12.5t31 -12.5t12 -30.5t-12 -30.5t-31 -12.5t-31 12.5t-12 30.5z" />
    <glyph glyph-name="multiply" unicode="&#xd7;" horiz-adv-x="572" 
d="M74 425l40 42l171 -172l171 172l40 -42l-170 -171l170 -170l-40 -42l-171 171l-171 -171l-40 42l170 170z" />
    <glyph glyph-name="Oslash" unicode="&#xd8;" horiz-adv-x="716" 
d="M128 359q0 -119 38 -192l356 429q-60 74 -165 74q-106 0 -167.5 -79t-61.5 -232zM588 361q0 119 -38 192l-356 -429q60 -74 165 -74q106 0 167.5 79t61.5 232zM657 362q0 -177 -83.5 -275.5t-217.5 -98.5q-125 0 -204 85l-71 -85l-37 32l77 93q-62 95 -62 245
q0 178 83.5 276t217.5 98q125 0 204 -85l71 85l37 -32l-77 -93q62 -95 62 -245z" />
    <glyph glyph-name="Ugrave" unicode="&#xd9;" horiz-adv-x="687" 
d="M88 252v468h72v-465q0 -106 43 -154.5t141 -48.5t141 48.5t43 154.5v465h70v-465q0 -137 -62.5 -202t-192.5 -65t-192.5 64.5t-62.5 199.5zM402 783h-56l-125 125h85z" />
    <glyph glyph-name="Uacute" unicode="&#xda;" horiz-adv-x="687" 
d="M88 252v468h72v-465q0 -106 43 -154.5t141 -48.5t141 48.5t43 154.5v465h70v-465q0 -137 -62.5 -202t-192.5 -65t-192.5 64.5t-62.5 199.5zM340 783h-56l96 125h85z" />
    <glyph glyph-name="Ucircumflex" unicode="&#xdb;" horiz-adv-x="687" 
d="M88 252v468h72v-465q0 -106 43 -154.5t141 -48.5t141 48.5t43 154.5v465h70v-465q0 -137 -62.5 -202t-192.5 -65t-192.5 64.5t-62.5 199.5zM249 783h-56l122 125h56l122 -125h-56l-94 68z" />
    <glyph glyph-name="Udieresis" unicode="&#xdc;" horiz-adv-x="687" 
d="M88 252v468h72v-465q0 -106 43 -154.5t141 -48.5t141 48.5t43 154.5v465h70v-465q0 -137 -62.5 -202t-192.5 -65t-192.5 64.5t-62.5 199.5zM207 825q0 18 12 30.5t31 12.5t31 -12.5t12 -30.5t-12 -30.5t-31 -12.5t-31 12.5t-12 30.5zM393 825q0 18 12 30.5t31 12.5
t31 -12.5t12 -30.5t-12 -30.5t-31 -12.5t-31 12.5t-12 30.5z" />
    <glyph glyph-name="Yacute" unicode="&#xdd;" horiz-adv-x="603" 
d="M266 0v309l-240 411h79l197 -341l198 341h77l-240 -411v-309h-71zM298 783h-56l96 125h85z" />
    <glyph glyph-name="Thorn" unicode="&#xde;" horiz-adv-x="616" 
d="M96 0v720h71v-100h172q113 0 175 -52.5t62 -153.5q0 -102 -63.5 -154.5t-179.5 -52.5h-166v-207h-71zM167 555v-284h166q87 0 129.5 34.5t42.5 107.5t-42.5 107.5t-129.5 34.5h-166z" />
    <glyph glyph-name="germandbls" unicode="&#xdf;" horiz-adv-x="586" 
d="M255 362v59q71 0 113.5 31t42.5 99q0 61 -34.5 92t-89.5 31q-61 0 -99.5 -38t-38.5 -115v-521h-69v521q0 103 58 157t149 54q85 0 138.5 -46t53.5 -131q0 -113 -114 -160q172 -48 172 -213q0 -92 -52.5 -143t-141.5 -51q-58 0 -109 20l15 57q47 -19 91 -19q60 0 94 34.5
t34 102.5q0 88 -57 133.5t-156 45.5z" />
    <glyph glyph-name="agrave" unicode="&#xe0;" horiz-adv-x="521" 
d="M270 463q-78 0 -171 -55l-20 56q96 58 201 58q81 0 123.5 -39.5t42.5 -128.5v-238q0 -90 10 -116h-65q-9 16 -12 66q-75 -78 -174 -78q-70 0 -112.5 40.5t-42.5 114.5q0 169 239 169q41 0 89 -7v43q0 62 -26.5 88.5t-81.5 26.5zM378 124v129q-53 8 -90 8
q-91 0 -130.5 -27.5t-39.5 -85.5q0 -50 27 -76t73 -26q82 0 160 78zM327 574h-56l-124 146h84z" />
    <glyph glyph-name="aacute" unicode="&#xe1;" horiz-adv-x="521" 
d="M270 463q-78 0 -171 -55l-20 56q96 58 201 58q81 0 123.5 -39.5t42.5 -128.5v-238q0 -90 10 -116h-65q-9 16 -12 66q-75 -78 -174 -78q-70 0 -112.5 40.5t-42.5 114.5q0 169 239 169q41 0 89 -7v43q0 62 -26.5 88.5t-81.5 26.5zM378 124v129q-53 8 -90 8
q-91 0 -130.5 -27.5t-39.5 -85.5q0 -50 27 -76t73 -26q82 0 160 78zM265 574h-56l96 146h84z" />
    <glyph glyph-name="acircumflex" unicode="&#xe2;" horiz-adv-x="521" 
d="M270 463q-78 0 -171 -55l-20 56q96 58 201 58q81 0 123.5 -39.5t42.5 -128.5v-238q0 -90 10 -116h-65q-9 16 -12 66q-75 -78 -174 -78q-70 0 -112.5 40.5t-42.5 114.5q0 169 239 169q41 0 89 -7v43q0 62 -26.5 88.5t-81.5 26.5zM378 124v129q-53 8 -90 8
q-91 0 -130.5 -27.5t-39.5 -85.5q0 -50 27 -76t73 -26q82 0 160 78zM174 574h-56l122 146h56l122 -146h-56l-94 89z" />
    <glyph glyph-name="atilde" unicode="&#xe3;" horiz-adv-x="521" 
d="M270 463q-78 0 -171 -55l-20 56q96 58 201 58q81 0 123.5 -39.5t42.5 -128.5v-238q0 -90 10 -116h-65q-9 16 -12 66q-75 -78 -174 -78q-70 0 -112.5 40.5t-42.5 114.5q0 169 239 169q41 0 89 -7v43q0 62 -26.5 88.5t-81.5 26.5zM378 124v129q-53 8 -90 8
q-91 0 -130.5 -27.5t-39.5 -85.5q0 -50 27 -76t73 -26q82 0 160 78zM166 580h-46q0 55 22 80t55 25q31 0 77 -28t63 -28q33 0 33 50h46q0 -55 -22 -80t-55 -25q-31 0 -77 28t-63 28q-33 0 -33 -50z" />
    <glyph glyph-name="adieresis" unicode="&#xe4;" horiz-adv-x="521" 
d="M270 463q-78 0 -171 -55l-20 56q96 58 201 58q81 0 123.5 -39.5t42.5 -128.5v-238q0 -90 10 -116h-65q-9 16 -12 66q-75 -78 -174 -78q-70 0 -112.5 40.5t-42.5 114.5q0 169 239 169q41 0 89 -7v43q0 62 -26.5 88.5t-81.5 26.5zM378 124v129q-53 8 -90 8
q-91 0 -130.5 -27.5t-39.5 -85.5q0 -50 27 -76t73 -26q82 0 160 78zM132 622q0 18 12 30.5t31 12.5t31 -12.5t12 -30.5t-12 -30.5t-31 -12.5t-31 12.5t-12 30.5zM318 622q0 18 12 30.5t31 12.5t31 -12.5t12 -30.5t-12 -30.5t-31 -12.5t-31 12.5t-12 30.5z" />
    <glyph glyph-name="aring" unicode="&#xe5;" horiz-adv-x="521" 
d="M270 463q-78 0 -171 -55l-20 56q96 58 201 58q81 0 123.5 -39.5t42.5 -128.5v-238q0 -90 10 -116h-65q-9 16 -12 66q-75 -78 -174 -78q-70 0 -112.5 40.5t-42.5 114.5q0 169 239 169q41 0 89 -7v43q0 62 -26.5 88.5t-81.5 26.5zM378 124v129q-53 8 -90 8
q-91 0 -130.5 -27.5t-39.5 -85.5q0 -50 27 -76t73 -26q82 0 160 78zM220 655q0 -20 13.5 -33.5t34.5 -13.5t34.5 13.5t13.5 33.5t-13.5 33.5t-34.5 13.5t-34.5 -13.5t-13.5 -33.5zM355 655q0 -36 -25 -61t-62 -25t-62 25t-25 61t25 61t62 25t62 -25t25 -61z" />
    <glyph glyph-name="ae" unicode="&#xe6;" horiz-adv-x="862" 
d="M806 241h-361q2 -99 47 -147.5t122 -48.5q74 0 159 52l20 -55q-86 -54 -188 -54q-135 0 -194 103q-92 -103 -205 -103q-69 0 -112.5 40.5t-43.5 114.5q0 169 239 169q41 0 89 -7v43q0 62 -26.5 88.5t-81.5 26.5q-78 0 -171 -55l-20 56q96 58 201 58q118 0 152 -83
q65 83 174 83q93 0 147 -63t54 -180q0 -24 -1 -38zM218 46q85 0 172 91q-15 48 -15 111v6q-52 7 -89 7q-90 0 -129 -27.5t-39 -84.5q0 -50 27 -76.5t73 -26.5zM603 466q-66 0 -108.5 -45t-49.5 -127h295q0 87 -37 129.5t-100 42.5z" />
    <glyph glyph-name="ccedilla" unicode="&#xe7;" horiz-adv-x="468" 
d="M365 -99q0 -40 -30 -62.5t-81 -22.5q-46 0 -88 23l12 45q42 -22 75 -22q53 0 53 40q0 46 -73 63l8 25q-88 10 -139.5 75.5t-51.5 183.5q0 132 64 202.5t168 70.5q78 0 142 -46l-20 -61q-65 48 -123 48q-73 0 -117.5 -53t-44.5 -155t44.5 -155.5t119.5 -53.5q68 0 123 47
l20 -56q-50 -41 -128 -48q67 -27 67 -88z" />
    <glyph glyph-name="egrave" unicode="&#xe8;" horiz-adv-x="537" 
d="M278 466q-66 0 -108.5 -45t-49.5 -127h295q0 87 -37 129.5t-100 42.5zM481 241h-361q2 -99 47 -147.5t122 -48.5q74 0 159 52l20 -55q-86 -54 -188 -54q-105 0 -167.5 67.5t-62.5 192.5q0 128 65 201t166 73q93 0 147 -63t54 -180q0 -24 -1 -38zM333 574h-56l-124 146h84
z" />
    <glyph glyph-name="eacute" unicode="&#xe9;" horiz-adv-x="537" 
d="M278 466q-66 0 -108.5 -45t-49.5 -127h295q0 87 -37 129.5t-100 42.5zM481 241h-361q2 -99 47 -147.5t122 -48.5q74 0 159 52l20 -55q-86 -54 -188 -54q-105 0 -167.5 67.5t-62.5 192.5q0 128 65 201t166 73q93 0 147 -63t54 -180q0 -24 -1 -38zM269 574h-56l96 146h84z
" />
    <glyph glyph-name="ecircumflex" unicode="&#xea;" horiz-adv-x="537" 
d="M278 466q-66 0 -108.5 -45t-49.5 -127h295q0 87 -37 129.5t-100 42.5zM481 241h-361q2 -99 47 -147.5t122 -48.5q74 0 159 52l20 -55q-86 -54 -188 -54q-105 0 -167.5 67.5t-62.5 192.5q0 128 65 201t166 73q93 0 147 -63t54 -180q0 -24 -1 -38zM179 574h-56l122 146h56
l122 -146h-56l-94 89z" />
    <glyph glyph-name="edieresis" unicode="&#xeb;" horiz-adv-x="537" 
d="M278 466q-66 0 -108.5 -45t-49.5 -127h295q0 87 -37 129.5t-100 42.5zM481 241h-361q2 -99 47 -147.5t122 -48.5q74 0 159 52l20 -55q-86 -54 -188 -54q-105 0 -167.5 67.5t-62.5 192.5q0 128 65 201t166 73q93 0 147 -63t54 -180q0 -24 -1 -38zM137 622q0 18 12 30.5
t31 12.5t31 -12.5t12 -30.5t-12 -30.5t-31 -12.5t-31 12.5t-12 30.5zM323 622q0 18 12 30.5t31 12.5t31 -12.5t12 -30.5t-12 -30.5t-31 -12.5t-31 12.5t-12 30.5z" />
    <glyph glyph-name="igrave" unicode="&#xec;" horiz-adv-x="241" 
d="M180 574h-56l-124 146h84zM86 0v510h69v-510h-69z" />
    <glyph glyph-name="iacute" unicode="&#xed;" horiz-adv-x="241" 
d="M118 574h-56l96 146h84zM86 0v510h69v-510h-69z" />
    <glyph glyph-name="icircumflex" unicode="&#xee;" horiz-adv-x="241" 
d="M86 0v510h69v-510h-69zM27 574h-56l122 146h56l122 -146h-56l-94 89z" />
    <glyph glyph-name="idieresis" unicode="&#xef;" horiz-adv-x="241" 
d="M-15 622q0 18 12 30.5t31 12.5t31 -12.5t12 -30.5t-12 -30.5t-31 -12.5t-31 12.5t-12 30.5zM171 622q0 18 12 30.5t31 12.5t31 -12.5t12 -30.5t-12 -30.5t-31 -12.5t-31 12.5t-12 30.5zM86 0v510h69v-510h-69z" />
    <glyph glyph-name="eth" unicode="&#xf0;" horiz-adv-x="554" 
d="M253 540l-23 43l71 39q-24 26 -70 66l41 44q53 -44 84 -79l89 50l24 -43l-81 -45q51 -64 83.5 -158t32.5 -192q0 -129 -59 -203t-168 -74q-101 0 -164 64t-63 186t62 187t155 65q92 0 149 -66q-29 90 -83 160zM277 46q71 0 114.5 47.5t43.5 145.5q0 97 -43.5 145
t-114.5 48t-114.5 -48t-43.5 -145q0 -98 43.5 -145.5t114.5 -47.5z" />
    <glyph glyph-name="ntilde" unicode="&#xf1;" horiz-adv-x="567" 
d="M183 580h-46q0 55 22 80t55 25q31 0 77 -28t63 -28q33 0 33 50h46q0 -55 -22 -80t-55 -25q-31 0 -77 28t-63 28q-33 0 -33 -50zM80 0v510h69v-79q91 91 204 91q63 0 101 -33.5t38 -108.5v-380h-69v366q0 94 -89 94t-185 -90v-370h-69z" />
    <glyph glyph-name="ograve" unicode="&#xf2;" horiz-adv-x="554" 
d="M119 255q0 -106 43.5 -157.5t114.5 -51.5t114.5 51.5t43.5 157.5t-43.5 157.5t-114.5 51.5t-114.5 -51.5t-43.5 -157.5zM504 257q0 -131 -64.5 -200t-164.5 -69q-98 0 -161.5 67t-63.5 198q0 132 65 200.5t164 68.5q98 0 161.5 -67.5t63.5 -197.5zM335 574h-56l-124 146
h84z" />
    <glyph glyph-name="oacute" unicode="&#xf3;" horiz-adv-x="554" 
d="M119 255q0 -106 43.5 -157.5t114.5 -51.5t114.5 51.5t43.5 157.5t-43.5 157.5t-114.5 51.5t-114.5 -51.5t-43.5 -157.5zM504 257q0 -131 -64.5 -200t-164.5 -69q-98 0 -161.5 67t-63.5 198q0 132 65 200.5t164 68.5q98 0 161.5 -67.5t63.5 -197.5zM273 574h-56l96 146h84
z" />
    <glyph glyph-name="ocircumflex" unicode="&#xf4;" horiz-adv-x="554" 
d="M119 255q0 -106 43.5 -157.5t114.5 -51.5t114.5 51.5t43.5 157.5t-43.5 157.5t-114.5 51.5t-114.5 -51.5t-43.5 -157.5zM504 257q0 -131 -64.5 -200t-164.5 -69q-98 0 -161.5 67t-63.5 198q0 132 65 200.5t164 68.5q98 0 161.5 -67.5t63.5 -197.5zM182 574h-56l122 146
h56l122 -146h-56l-94 89z" />
    <glyph glyph-name="otilde" unicode="&#xf5;" horiz-adv-x="554" 
d="M119 255q0 -106 43.5 -157.5t114.5 -51.5t114.5 51.5t43.5 157.5t-43.5 157.5t-114.5 51.5t-114.5 -51.5t-43.5 -157.5zM504 257q0 -131 -64.5 -200t-164.5 -69q-98 0 -161.5 67t-63.5 198q0 132 65 200.5t164 68.5q98 0 161.5 -67.5t63.5 -197.5zM174 580h-46
q0 55 22 80t55 25q31 0 77 -28t63 -28q33 0 33 50h46q0 -55 -22 -80t-55 -25q-31 0 -77 28t-63 28q-33 0 -33 -50z" />
    <glyph glyph-name="odieresis" unicode="&#xf6;" horiz-adv-x="554" 
d="M119 255q0 -106 43.5 -157.5t114.5 -51.5t114.5 51.5t43.5 157.5t-43.5 157.5t-114.5 51.5t-114.5 -51.5t-43.5 -157.5zM504 257q0 -131 -64.5 -200t-164.5 -69q-98 0 -161.5 67t-63.5 198q0 132 65 200.5t164 68.5q98 0 161.5 -67.5t63.5 -197.5zM140 622q0 18 12 30.5
t31 12.5t31 -12.5t12 -30.5t-12 -30.5t-31 -12.5t-31 12.5t-12 30.5zM326 622q0 18 12 30.5t31 12.5t31 -12.5t12 -30.5t-12 -30.5t-31 -12.5t-31 12.5t-12 30.5z" />
    <glyph glyph-name="divide" unicode="&#xf7;" horiz-adv-x="572" 
d="M331 456q0 -20 -12.5 -32.5t-33.5 -12.5q-20 0 -32.5 12.5t-12.5 32.5t12.5 32t32.5 12q21 0 33.5 -12t12.5 -32zM530 285v-60h-488v60h488zM331 54q0 -20 -12.5 -32t-33.5 -12q-20 0 -32.5 12t-12.5 32t12.5 32.5t32.5 12.5q21 0 33.5 -12.5t12.5 -32.5z" />
    <glyph glyph-name="oslash" unicode="&#xf8;" horiz-adv-x="554" 
d="M117 254q0 -75 23 -124l249 287q-42 49 -112 49q-71 0 -115.5 -52.5t-44.5 -159.5zM437 256q0 75 -23 124l-249 -287q42 -49 112 -49q71 0 115.5 52.5t44.5 159.5zM504 255q0 -130 -65 -198.5t-164 -68.5q-94 0 -152 57l-60 -69l-32 28l64 74q-45 69 -45 175
q0 132 65 200.5t164 68.5q92 0 151 -58l61 70l32 -28l-65 -75q46 -69 46 -176z" />
    <glyph glyph-name="ugrave" unicode="&#xf9;" horiz-adv-x="567" 
d="M339 574h-56l-124 146h84zM486 510v-510h-69v79q-91 -91 -204 -91q-63 0 -101 33.5t-38 108.5v380h69v-368q0 -94 89 -94t185 90v372h69z" />
    <glyph glyph-name="uacute" unicode="&#xfa;" horiz-adv-x="567" 
d="M277 574h-56l96 146h84zM486 510v-510h-69v79q-91 -91 -204 -91q-63 0 -101 33.5t-38 108.5v380h69v-368q0 -94 89 -94t185 90v372h69z" />
    <glyph glyph-name="ucircumflex" unicode="&#xfb;" horiz-adv-x="567" 
d="M186 574h-56l122 146h56l122 -146h-56l-94 89zM486 510v-510h-69v79q-91 -91 -204 -91q-63 0 -101 33.5t-38 108.5v380h69v-368q0 -94 89 -94t185 90v372h69z" />
    <glyph glyph-name="udieresis" unicode="&#xfc;" horiz-adv-x="567" 
d="M144 622q0 18 12 30.5t31 12.5t31 -12.5t12 -30.5t-12 -30.5t-31 -12.5t-31 12.5t-12 30.5zM330 622q0 18 12 30.5t31 12.5t31 -12.5t12 -30.5t-12 -30.5t-31 -12.5t-31 12.5t-12 30.5zM486 510v-510h-69v79q-91 -91 -204 -91q-63 0 -101 33.5t-38 108.5v380h69v-368
q0 -94 89 -94t185 90v372h69z" />
    <glyph glyph-name="yacute" unicode="&#xfd;" horiz-adv-x="505" 
d="M38 -212v62q30 -6 46 -6q46 0 76.5 34t67.5 134h-24l-178 498h73l153 -441l156 441h71l-183 -498q-51 -138 -94 -183t-117 -45q-30 0 -47 4zM249 574h-56l96 146h84z" />
    <glyph glyph-name="thorn" unicode="&#xfe;" horiz-adv-x="570" 
d="M80 720h69v-284q76 86 172 86q89 0 144 -68.5t55 -194.5q0 -129 -58.5 -200t-149.5 -71q-92 0 -163 79v-277h-69v930zM307 461q-82 0 -158 -86v-248q69 -80 153 -80q69 0 109 52.5t40 154.5q0 101 -39 154t-105 53z" />
    <glyph glyph-name="ydieresis" unicode="&#xff;" horiz-adv-x="505" 
d="M38 -212v62q30 -6 46 -6q46 0 76.5 34t67.5 134h-24l-178 498h73l153 -441l156 441h71l-183 -498q-51 -138 -94 -183t-117 -45q-30 0 -47 4zM116 622q0 18 12 30.5t31 12.5t31 -12.5t12 -30.5t-12 -30.5t-31 -12.5t-31 12.5t-12 30.5zM302 622q0 18 12 30.5t31 12.5
t31 -12.5t12 -30.5t-12 -30.5t-31 -12.5t-31 12.5t-12 30.5z" />
    <glyph glyph-name="Amacron" unicode="&#x100;" horiz-adv-x="673" 
d="M380 720l257 -720h-75l-72 206h-309l-72 -206h-73l261 720h83zM337 646l-134 -379h266zM193 789v56h280v-56h-280z" />
    <glyph glyph-name="amacron" unicode="&#x101;" horiz-adv-x="521" 
d="M270 463q-78 0 -171 -55l-20 56q96 58 201 58q81 0 123.5 -39.5t42.5 -128.5v-238q0 -90 10 -116h-65q-9 16 -12 66q-75 -78 -174 -78q-70 0 -112.5 40.5t-42.5 114.5q0 169 239 169q41 0 89 -7v43q0 62 -26.5 88.5t-81.5 26.5zM378 124v129q-53 8 -90 8
q-91 0 -130.5 -27.5t-39.5 -85.5q0 -50 27 -76t73 -26q82 0 160 78zM128 585v57h280v-57h-280z" />
    <glyph glyph-name="Abreve" unicode="&#x102;" horiz-adv-x="673" 
d="M380 720l257 -720h-75l-72 206h-309l-72 -206h-73l261 720h83zM337 646l-134 -379h266zM336 783q-143 0 -143 125h46q6 -37 27 -53t70 -16t70 16t27 53h46q0 -125 -143 -125z" />
    <glyph glyph-name="abreve" unicode="&#x103;" horiz-adv-x="521" 
d="M270 463q-78 0 -171 -55l-20 56q96 58 201 58q81 0 123.5 -39.5t42.5 -128.5v-238q0 -90 10 -116h-65q-9 16 -12 66q-75 -78 -174 -78q-70 0 -112.5 40.5t-42.5 114.5q0 169 239 169q41 0 89 -7v43q0 62 -26.5 88.5t-81.5 26.5zM378 124v129q-53 8 -90 8
q-91 0 -130.5 -27.5t-39.5 -85.5q0 -50 27 -76t73 -26q82 0 160 78zM268 580q-72 0 -107.5 36.5t-35.5 103.5h46q6 -44 26.5 -63.5t70.5 -19.5t70.5 19.5t26.5 63.5h46q0 -67 -35.5 -103.5t-107.5 -36.5z" />
    <glyph glyph-name="Aogonek" unicode="&#x104;" horiz-adv-x="673" 
d="M562 0l-72 206h-309l-72 -206h-73l261 720h83l257 -720h-15q-89 -47 -89 -100q0 -38 44 -38q17 0 33 5l12 -45q-22 -6 -52 -6q-45 0 -70.5 19.5t-25.5 55.5q0 71 88 109zM337 646l-134 -379h266z" />
    <glyph glyph-name="aogonek" unicode="&#x105;" horiz-adv-x="521" 
d="M379 66q-75 -78 -174 -78q-70 0 -112.5 40.5t-42.5 114.5q0 169 239 169q41 0 89 -7v43q0 62 -26.5 88.5t-81.5 26.5q-78 0 -171 -55l-20 56q96 58 201 58q81 0 123.5 -39.5t42.5 -128.5v-238q0 -90 10 -116h-5q-89 -47 -89 -100q0 -38 44 -38q17 0 33 5l12 -45
q-23 -6 -52 -6q-45 0 -70.5 19.5t-25.5 55.5q0 71 88 109q-9 16 -12 66zM378 124v129q-53 8 -90 8q-91 0 -130.5 -27.5t-39.5 -85.5q0 -50 27 -76t73 -26q82 0 160 78z" />
    <glyph glyph-name="Cacute" unicode="&#x106;" horiz-adv-x="607" 
d="M534 118l24 -61q-90 -69 -203 -69q-133 0 -214.5 95t-81.5 271q0 180 85 279t223 99q106 0 188 -63l-23 -67q-86 66 -170 66q-106 0 -169 -79.5t-63 -230.5q0 -150 63 -228.5t168 -78.5q89 0 173 67zM345 783h-56l96 125h85z" />
    <glyph glyph-name="cacute" unicode="&#x107;" horiz-adv-x="468" 
d="M424 476l-20 -61q-65 48 -123 48q-73 0 -117.5 -53t-44.5 -155t44.5 -155.5t119.5 -53.5q68 0 123 47l20 -56q-61 -49 -152 -49q-102 0 -163 66.5t-61 194.5q0 132 64 202.5t168 70.5q78 0 142 -46zM265 574h-56l96 146h84z" />
    <glyph glyph-name="Ccircumflex" unicode="&#x108;" horiz-adv-x="607" 
d="M534 118l24 -61q-90 -69 -203 -69q-133 0 -214.5 95t-81.5 271q0 180 85 279t223 99q106 0 188 -63l-23 -67q-86 66 -170 66q-106 0 -169 -79.5t-63 -230.5q0 -150 63 -228.5t168 -78.5q89 0 173 67zM254 783h-56l122 125h56l122 -125h-56l-94 68z" />
    <glyph glyph-name="ccircumflex" unicode="&#x109;" horiz-adv-x="468" 
d="M424 476l-20 -61q-65 48 -123 48q-73 0 -117.5 -53t-44.5 -155t44.5 -155.5t119.5 -53.5q68 0 123 47l20 -56q-61 -49 -152 -49q-102 0 -163 66.5t-61 194.5q0 132 64 202.5t168 70.5q78 0 142 -46zM174 574h-56l122 146h56l122 -146h-56l-94 89z" />
    <glyph glyph-name="Cdotaccent" unicode="&#x10a;" horiz-adv-x="607" 
d="M534 118l24 -61q-90 -69 -203 -69q-133 0 -214.5 95t-81.5 271q0 180 85 279t223 99q106 0 188 -63l-23 -67q-86 66 -170 66q-106 0 -169 -79.5t-63 -230.5q0 -150 63 -228.5t168 -78.5q89 0 173 67zM394 827q0 -20 -13 -33t-33 -13t-33 13t-13 33t13 33t33 13t33 -13
t13 -33z" />
    <glyph glyph-name="cdotaccent" unicode="&#x10b;" horiz-adv-x="468" 
d="M424 476l-20 -61q-65 48 -123 48q-73 0 -117.5 -53t-44.5 -155t44.5 -155.5t119.5 -53.5q68 0 123 47l20 -56q-61 -49 -152 -49q-102 0 -163 66.5t-61 194.5q0 132 64 202.5t168 70.5q78 0 142 -46zM314 619q0 -20 -13 -33t-33 -13t-33 13t-13 33t13 33t33 13t33 -13
t13 -33z" />
    <glyph glyph-name="Ccaron" unicode="&#x10c;" horiz-adv-x="607" 
d="M534 118l24 -61q-90 -69 -203 -69q-133 0 -214.5 95t-81.5 271q0 180 85 279t223 99q106 0 188 -63l-23 -67q-86 66 -170 66q-106 0 -169 -79.5t-63 -230.5q0 -150 63 -228.5t168 -78.5q89 0 173 67zM442 908h56l-122 -125h-56l-122 125h56l94 -68z" />
    <glyph glyph-name="ccaron" unicode="&#x10d;" horiz-adv-x="468" 
d="M424 476l-20 -61q-65 48 -123 48q-73 0 -117.5 -53t-44.5 -155t44.5 -155.5t119.5 -53.5q68 0 123 47l20 -56q-61 -49 -152 -49q-102 0 -163 66.5t-61 194.5q0 132 64 202.5t168 70.5q78 0 142 -46zM362 720h56l-122 -146h-56l-122 146h56l94 -89z" />
    <glyph glyph-name="Dcaron" unicode="&#x10e;" horiz-adv-x="695" 
d="M95 720h220q146 0 233 -93.5t87 -266.5t-87.5 -266.5t-232.5 -93.5h-220v720zM166 64h149q115 0 182 74.5t67 220.5t-67 221t-182 75h-149v-591zM429 908h56l-122 -125h-56l-122 125h56l94 -68z" />
    <glyph glyph-name="dcaron" unicode="&#x10f;" horiz-adv-x="576" 
d="M572 571h-45l29 149h67zM434 0q-9 14 -13 74q-73 -86 -173 -86q-88 0 -143 67.5t-55 192.5q0 130 59 202t151 72t161 -79v277h69v-604q0 -90 10 -116h-66zM263 47q82 0 158 86v248q-69 80 -153 80q-69 0 -109 -52.5t-40 -154.5q0 -101 39 -154t105 -53z" />
    <glyph glyph-name="Dcroat" unicode="&#x110;" horiz-adv-x="695" 
d="M12 348v57h83v315h220q146 0 233 -93.5t87 -266.5t-87.5 -266.5t-232.5 -93.5h-220v348h-83zM166 64h149q115 0 182 74.5t67 220.5t-67 221t-182 75h-149v-250h197v-57h-197v-284z" />
    <glyph glyph-name="dcroat" unicode="&#x111;" horiz-adv-x="570" 
d="M270 585v57h151v78h69v-78h80v-57h-80v-469q0 -90 10 -116h-66q-9 14 -13 74q-73 -86 -173 -86q-88 0 -143 67.5t-55 193.5q0 129 58.5 201t151.5 72q92 0 161 -79v142h-151zM263 47q82 0 158 86v248q-69 80 -153 80q-69 0 -109 -52.5t-40 -154.5q0 -101 39 -154t105 -53
z" />
    <glyph glyph-name="Emacron" unicode="&#x112;" horiz-adv-x="588" 
d="M96 0v720h438v-65h-367v-249h323v-63h-323v-279h369v-64h-440zM175 789v56h280v-56h-280z" />
    <glyph glyph-name="emacron" unicode="&#x113;" horiz-adv-x="537" 
d="M278 466q-66 0 -108.5 -45t-49.5 -127h295q0 87 -37 129.5t-100 42.5zM481 241h-361q2 -99 47 -147.5t122 -48.5q74 0 159 52l20 -55q-86 -54 -188 -54q-105 0 -167.5 67.5t-62.5 192.5q0 128 65 201t166 73q93 0 147 -63t54 -180q0 -24 -1 -38zM133 585v57h280v-57h-280
z" />
    <glyph glyph-name="Ebreve" unicode="&#x114;" horiz-adv-x="588" 
d="M96 0v720h438v-65h-367v-249h323v-63h-323v-279h369v-64h-440zM315 783q-143 0 -143 125h46q6 -37 27 -53t70 -16t70 16t27 53h46q0 -125 -143 -125z" />
    <glyph glyph-name="ebreve" unicode="&#x115;" horiz-adv-x="537" 
d="M278 466q-66 0 -108.5 -45t-49.5 -127h295q0 87 -37 129.5t-100 42.5zM481 241h-361q2 -99 47 -147.5t122 -48.5q74 0 159 52l20 -55q-86 -54 -188 -54q-105 0 -167.5 67.5t-62.5 192.5q0 128 65 201t166 73q93 0 147 -63t54 -180q0 -24 -1 -38zM273 580
q-72 0 -107.5 36.5t-35.5 103.5h46q6 -44 26.5 -63.5t70.5 -19.5t70.5 19.5t26.5 63.5h46q0 -67 -35.5 -103.5t-107.5 -36.5z" />
    <glyph glyph-name="Edotaccent" unicode="&#x116;" horiz-adv-x="588" 
d="M96 0v720h438v-65h-367v-249h323v-63h-323v-279h369v-64h-440zM361 827q0 -20 -13 -33t-33 -13t-33 13t-13 33t13 33t33 13t33 -13t13 -33z" />
    <glyph glyph-name="edotaccent" unicode="&#x117;" horiz-adv-x="537" 
d="M278 466q-66 0 -108.5 -45t-49.5 -127h295q0 87 -37 129.5t-100 42.5zM481 241h-361q2 -99 47 -147.5t122 -48.5q74 0 159 52l20 -55q-86 -54 -188 -54q-105 0 -167.5 67.5t-62.5 192.5q0 128 65 201t166 73q93 0 147 -63t54 -180q0 -24 -1 -38zM319 619q0 -20 -13 -33
t-33 -13t-33 13t-13 33t13 33t33 13t33 -13t13 -33z" />
    <glyph glyph-name="Eogonek" unicode="&#x118;" horiz-adv-x="588" 
d="M96 0v720h438v-65h-367v-249h323v-63h-323v-279h369v-63q-91 -48 -91 -101q0 -38 44 -38q17 0 33 5l12 -45q-22 -6 -53 -6q-45 0 -70 19t-25 55q0 72 90 110h-380z" />
    <glyph glyph-name="eogonek" unicode="&#x119;" horiz-adv-x="537" 
d="M481 241h-361q2 -99 47 -147.5t122 -48.5q74 0 159 52l20 -55q-75 -48 -104 -78t-29 -63q0 -39 44 -39q30 0 59 14l12 -45q-33 -15 -78 -15q-96 0 -96 77q0 21 8.5 39.5t19.5 30.5t33 32q-33 -7 -61 -7q-102 0 -164 67.5t-62 192.5q0 128 65 201t166 73q93 0 147 -63
t54 -180q0 -24 -1 -38zM278 466q-66 0 -108.5 -45t-49.5 -127h295q0 87 -37 129.5t-100 42.5z" />
    <glyph glyph-name="Ecaron" unicode="&#x11a;" horiz-adv-x="588" 
d="M96 0v720h438v-65h-367v-249h323v-63h-323v-279h369v-64h-440zM409 908h56l-122 -125h-56l-122 125h56l94 -68z" />
    <glyph glyph-name="ecaron" unicode="&#x11b;" horiz-adv-x="537" 
d="M278 466q-66 0 -108.5 -45t-49.5 -127h295q0 87 -37 129.5t-100 42.5zM481 241h-361q2 -99 47 -147.5t122 -48.5q74 0 159 52l20 -55q-86 -54 -188 -54q-105 0 -167.5 67.5t-62.5 192.5q0 128 65 201t166 73q93 0 147 -63t54 -180q0 -24 -1 -38zM367 720h56l-122 -146
h-56l-122 146h56l94 -89z" />
    <glyph glyph-name="Gcircumflex" unicode="&#x11c;" horiz-adv-x="675" 
d="M379 49q79 0 150 37v227h-164v61h232v-319q-105 -67 -226 -67q-145 0 -228.5 93t-83.5 271q0 183 87 281.5t233 98.5q123 0 218 -75l-24 -66q-96 77 -198 77q-113 0 -179 -78.5t-66 -233.5q0 -154 66 -230.5t183 -76.5zM274 783h-56l122 125h56l122 -125h-56l-94 68z" />
    <glyph glyph-name="gcircumflex" unicode="&#x11d;" horiz-adv-x="577" 
d="M489 344q0 -86 -62.5 -135.5t-157.5 -49.5q-53 0 -95 16q-32 -25 -32 -55q0 -15 7 -24.5t23 -13.5t28.5 -5t34.5 -1h118q82 0 128.5 -32.5t46.5 -92.5q0 -81 -80 -127t-203 -46q-102 0 -161.5 33t-59.5 95q0 84 109 123q-56 23 -56 75q0 49 57 91q-75 48 -75 142
q0 86 62.5 135.5t155.5 49.5q99 0 157 -52q41 41 97 41q15 0 24 -1v-66q-12 2 -24 2q-36 0 -64 -15q22 -38 22 -87zM128 338q0 -63 40.5 -94.5t105.5 -31.5q67 0 107 32.5t40 95.5q0 64 -40.5 95.5t-105.5 31.5q-66 0 -106.5 -32.5t-40.5 -96.5zM339 15h-134
q-112 -33 -112 -100q0 -83 160 -83q94 0 149 29t55 81q0 73 -118 73zM180 574h-56l122 146h56l122 -146h-56l-94 89z" />
    <glyph glyph-name="Gbreve" unicode="&#x11e;" horiz-adv-x="675" 
d="M379 49q79 0 150 37v227h-164v61h232v-319q-105 -67 -226 -67q-145 0 -228.5 93t-83.5 271q0 183 87 281.5t233 98.5q123 0 218 -75l-24 -66q-96 77 -198 77q-113 0 -179 -78.5t-66 -233.5q0 -154 66 -230.5t183 -76.5zM368 783q-143 0 -143 125h46q6 -37 27 -53t70 -16
t70 16t27 53h46q0 -125 -143 -125z" />
    <glyph glyph-name="gbreve" unicode="&#x11f;" horiz-adv-x="577" 
d="M489 344q0 -86 -62.5 -135.5t-157.5 -49.5q-53 0 -95 16q-32 -25 -32 -55q0 -15 7 -24.5t23 -13.5t28.5 -5t34.5 -1h118q82 0 128.5 -32.5t46.5 -92.5q0 -81 -80 -127t-203 -46q-102 0 -161.5 33t-59.5 95q0 84 109 123q-56 23 -56 75q0 49 57 91q-75 48 -75 142
q0 86 62.5 135.5t155.5 49.5q99 0 157 -52q41 41 97 41q15 0 24 -1v-66q-12 2 -24 2q-36 0 -64 -15q22 -38 22 -87zM128 338q0 -63 40.5 -94.5t105.5 -31.5q67 0 107 32.5t40 95.5q0 64 -40.5 95.5t-105.5 31.5q-66 0 -106.5 -32.5t-40.5 -96.5zM339 15h-134
q-112 -33 -112 -100q0 -83 160 -83q94 0 149 29t55 81q0 73 -118 73zM274 580q-72 0 -107.5 36.5t-35.5 103.5h46q6 -44 26.5 -63.5t70.5 -19.5t70.5 19.5t26.5 63.5h46q0 -67 -35.5 -103.5t-107.5 -36.5z" />
    <glyph glyph-name="Gdotaccent" unicode="&#x120;" horiz-adv-x="675" 
d="M379 49q79 0 150 37v227h-164v61h232v-319q-105 -67 -226 -67q-145 0 -228.5 93t-83.5 271q0 183 87 281.5t233 98.5q123 0 218 -75l-24 -66q-96 77 -198 77q-113 0 -179 -78.5t-66 -233.5q0 -154 66 -230.5t183 -76.5zM414 827q0 -20 -13 -33t-33 -13t-33 13t-13 33
t13 33t33 13t33 -13t13 -33z" />
    <glyph glyph-name="gdotaccent" unicode="&#x121;" horiz-adv-x="577" 
d="M489 344q0 -86 -62.5 -135.5t-157.5 -49.5q-53 0 -95 16q-32 -25 -32 -55q0 -15 7 -24.5t23 -13.5t28.5 -5t34.5 -1h118q82 0 128.5 -32.5t46.5 -92.5q0 -81 -80 -127t-203 -46q-102 0 -161.5 33t-59.5 95q0 84 109 123q-56 23 -56 75q0 49 57 91q-75 48 -75 142
q0 86 62.5 135.5t155.5 49.5q99 0 157 -52q41 41 97 41q15 0 24 -1v-66q-12 2 -24 2q-36 0 -64 -15q22 -38 22 -87zM128 338q0 -63 40.5 -94.5t105.5 -31.5q67 0 107 32.5t40 95.5q0 64 -40.5 95.5t-105.5 31.5q-66 0 -106.5 -32.5t-40.5 -96.5zM339 15h-134
q-112 -33 -112 -100q0 -83 160 -83q94 0 149 29t55 81q0 73 -118 73zM320 619q0 -20 -13 -33t-33 -13t-33 13t-13 33t13 33t33 13t33 -13t13 -33z" />
    <glyph glyph-name="Gcommaaccent" unicode="&#x122;" horiz-adv-x="675" 
d="M379 49q79 0 150 37v227h-164v61h232v-319q-105 -67 -226 -67q-145 0 -228.5 93t-83.5 271q0 183 87 281.5t233 98.5q123 0 218 -75l-24 -66q-96 77 -198 77q-113 0 -179 -78.5t-66 -233.5q0 -154 66 -230.5t183 -76.5zM338 -205l-27 34q42 24 55 57q-19 0 -30.5 11.5
t-11.5 29.5t11.5 29.5t31.5 11.5q23 0 37.5 -15.5t14.5 -43.5q0 -70 -81 -114z" />
    <glyph glyph-name="gcommaaccent" unicode="&#x123;" horiz-adv-x="577" 
d="M489 344q0 -86 -62.5 -135.5t-157.5 -49.5q-53 0 -95 16q-32 -25 -32 -55q0 -15 7 -24.5t23 -13.5t28.5 -5t34.5 -1h118q82 0 128.5 -32.5t46.5 -92.5q0 -81 -80 -127t-203 -46q-102 0 -161.5 33t-59.5 95q0 84 109 123q-56 23 -56 75q0 49 57 91q-75 48 -75 142
q0 86 62.5 135.5t155.5 49.5q99 0 157 -52q41 41 97 41q15 0 24 -1v-66q-12 2 -24 2q-36 0 -64 -15q22 -38 22 -87zM128 338q0 -63 40.5 -94.5t105.5 -31.5q67 0 107 32.5t40 95.5q0 64 -40.5 95.5t-105.5 31.5q-66 0 -106.5 -32.5t-40.5 -96.5zM339 15h-134
q-112 -33 -112 -100q0 -83 160 -83q94 0 149 29t55 81q0 73 -118 73zM305 746l27 -34q-42 -24 -55 -57q19 0 30.5 -11.5t11.5 -29.5t-11.5 -29.5t-31.5 -11.5q-23 0 -37.5 15.5t-14.5 43.5q0 70 81 114z" />
    <glyph glyph-name="Hcircumflex" unicode="&#x124;" horiz-adv-x="703" 
d="M96 0v720h71v-312h369v312h71v-720h-71v343h-369v-343h-71zM258 783h-56l122 125h56l122 -125h-56l-94 68z" />
    <glyph glyph-name="hcircumflex" unicode="&#x125;" horiz-adv-x="567" 
d="M80 0v720h69v-289q36 38 89.5 64.5t113.5 26.5q63 0 101.5 -33.5t38.5 -108.5v-380h-69v366q0 94 -89 94q-93 0 -185 -90v-370h-69zM191 774h-56l122 146h56l122 -146h-56l-94 89z" />
    <glyph glyph-name="Hbar" unicode="&#x126;" horiz-adv-x="703" 
d="M13 525v57h83v138h71v-138h369v138h71v-138h83v-57h-83v-525h-71v343h-369v-343h-71v525h-83zM167 408h369v117h-369v-117z" />
    <glyph glyph-name="hbar" unicode="&#x127;" horiz-adv-x="567" 
d="M0 585v57h80v78h69v-78h151v-57h-151v-154q36 38 89.5 64.5t113.5 26.5q63 0 101.5 -33.5t38.5 -108.5v-380h-69v366q0 94 -89 94q-93 0 -185 -90v-370h-69v585h-80z" />
    <glyph glyph-name="Itilde" unicode="&#x128;" horiz-adv-x="281" 
d="M105 0v720h71v-720h-71zM39 783h-46q0 55 22 79t55 24q31 0 77.5 -26.5t63.5 -26.5q32 0 32 47h46q0 -55 -22 -79t-55 -24q-31 0 -77.5 26.5t-63.5 26.5q-32 0 -32 -47z" />
    <glyph glyph-name="itilde" unicode="&#x129;" horiz-adv-x="241" 
d="M19 580h-46q0 55 22 80t55 25q31 0 77 -28t63 -28q33 0 33 50h46q0 -55 -22 -80t-55 -25q-31 0 -77 28t-63 28q-33 0 -33 -50zM86 0v510h69v-510h-69z" />
    <glyph glyph-name="Imacron" unicode="&#x12a;" horiz-adv-x="281" 
d="M105 0v720h71v-720h-71zM0 789v56h281v-56h-281z" />
    <glyph glyph-name="imacron" unicode="&#x12b;" horiz-adv-x="241" 
d="M-19 585v57h280v-57h-280zM86 0v510h69v-510h-69z" />
    <glyph glyph-name="Ibreve" unicode="&#x12c;" horiz-adv-x="281" 
d="M105 0v720h71v-720h-71zM141 783q-143 0 -143 125h46q6 -37 27 -53t70 -16t70 16t27 53h46q0 -125 -143 -125z" />
    <glyph glyph-name="ibreve" unicode="&#x12d;" horiz-adv-x="241" 
d="M121 580q-72 0 -107.5 36.5t-35.5 103.5h46q6 -44 26.5 -63.5t70.5 -19.5t70.5 19.5t26.5 63.5h46q0 -67 -35.5 -103.5t-107.5 -36.5zM86 0v510h69v-510h-69z" />
    <glyph glyph-name="Iogonek" unicode="&#x12e;" horiz-adv-x="281" 
d="M176 0h-11q-77 -48 -77 -99q0 -39 44 -39q17 0 33 5l12 -45q-23 -6 -52 -6q-46 0 -71 19.5t-25 56.5q0 69 76 108v720h71v-720z" />
    <glyph glyph-name="iogonek" unicode="&#x12f;" horiz-adv-x="241" 
d="M155 0h-9q-77 -48 -77 -99q0 -39 44 -39q17 0 33 5l12 -45q-23 -6 -52 -6q-46 0 -71 19.5t-25 56.5q0 69 76 108v510h69v-510zM167 652q0 -20 -12.5 -33t-33.5 -13t-33.5 13t-12.5 33t12.5 33t33.5 13t33.5 -13t12.5 -33z" />
    <glyph glyph-name="Idotaccent" unicode="&#x130;" horiz-adv-x="281" 
d="M105 0v720h71v-720h-71zM187 827q0 -20 -13 -33t-33 -13t-33 13t-13 33t13 33t33 13t33 -13t13 -33z" />
    <glyph glyph-name="dotlessi" unicode="&#x131;" horiz-adv-x="241" 
d="M86 0v510h69v-510h-69z" />
    <glyph glyph-name="IJ" unicode="&#x132;" horiz-adv-x="686" 
d="M105 0v720h71v-720h-71zM311 3v66q41 -11 88 -11q71 0 99 36t28 110v516h71v-516q0 -106 -45 -158t-148 -52q-52 0 -93 9z" />
    <glyph glyph-name="ij" unicode="&#x133;" horiz-adv-x="481" 
d="M86 0v510h69v-510h-69zM167 652q0 -20 -13 -33t-33 -13t-33 13t-13 33t13 33t33 13t33 -13t13 -33zM395 510v-582q0 -72 -31 -108t-102 -36q-28 0 -59 6v59q27 -6 49 -6q41 0 57.5 21t16.5 64v582h69zM407 652q0 -20 -13 -33t-33 -13t-33 13t-13 33t13 33t33 13t33 -13
t13 -33z" />
    <glyph glyph-name="Jcircumflex" unicode="&#x134;" horiz-adv-x="405" 
d="M31 3v66q41 -11 88 -11q71 0 99 36t28 110v516h71v-516q0 -106 -45 -158t-148 -52q-52 0 -93 9zM194 783h-56l122 125h56l122 -125h-56l-94 68z" />
    <glyph glyph-name="jcircumflex" unicode="&#x135;" horiz-adv-x="241" 
d="M155 510v-582q0 -72 -31 -108t-102 -36q-28 0 -59 6v59q27 -6 49 -6q41 0 57.5 21t16.5 64v582h69zM27 574h-56l122 146h56l122 -146h-56l-94 89z" />
    <glyph glyph-name="Kcommaaccent" unicode="&#x136;" horiz-adv-x="643" 
d="M96 0v720h71v-355l339 355h90l-257 -263l282 -457h-81l-249 408l-124 -127v-281h-71zM307 -205l-27 34q42 24 55 57q-19 0 -30.5 11.5t-11.5 29.5t11.5 29.5t31.5 11.5q23 0 37.5 -15.5t14.5 -43.5q0 -70 -81 -114z" />
    <glyph glyph-name="kcommaaccent" unicode="&#x137;" horiz-adv-x="524" 
d="M80 0v720h69v-432l235 222h88l-197 -180l220 -330h-76l-190 288l-80 -73v-215h-69zM236 -205l-27 34q42 24 55 57q-19 0 -30.5 11.5t-11.5 29.5t11.5 29.5t31.5 11.5q23 0 37.5 -15.5t14.5 -43.5q0 -70 -81 -114z" />
    <glyph glyph-name="kgreenlandic" unicode="&#x138;" horiz-adv-x="524" 
d="M80 0v510h69v-222l235 222h88l-197 -180l220 -330h-76l-190 288l-80 -73v-215h-69z" />
    <glyph glyph-name="Lacute" unicode="&#x139;" horiz-adv-x="530" 
d="M96 0v720h71v-655h332v-65h-403zM125 783h-56l96 125h85z" />
    <glyph glyph-name="lacute" unicode="&#x13a;" horiz-adv-x="241" 
d="M86 0v720h69v-720h-69zM118 774h-56l96 146h84z" />
    <glyph glyph-name="Lcommaaccent" unicode="&#x13b;" horiz-adv-x="530" 
d="M96 0v720h71v-655h332v-65h-403zM275 -205l-27 34q42 24 55 57q-19 0 -30.5 11.5t-11.5 29.5t11.5 29.5t31.5 11.5q23 0 37.5 -15.5t14.5 -43.5q0 -70 -81 -114z" />
    <glyph glyph-name="lcommaaccent" unicode="&#x13c;" horiz-adv-x="241" 
d="M86 0v720h69v-720h-69zM82 -205l-27 34q42 24 55 57q-19 0 -30.5 11.5t-11.5 29.5t11.5 29.5t31.5 11.5q23 0 37.5 -15.5t14.5 -43.5q0 -70 -81 -114z" />
    <glyph glyph-name="Lcaron" unicode="&#x13d;" horiz-adv-x="530" 
d="M268 571h-45l29 149h67zM96 0v720h71v-655h332v-65h-403z" />
    <glyph glyph-name="lcaron" unicode="&#x13e;" horiz-adv-x="246" 
d="M239 571h-45l29 149h67zM86 0v720h69v-720h-69z" />
    <glyph glyph-name="Ldot" unicode="&#x13f;" horiz-adv-x="530" 
d="M96 0v720h71v-655h332v-65h-403zM438 360q0 -20 -13 -33t-33 -13t-33 13t-13 33t13 33t33 13t33 -13t13 -33z" />
    <glyph glyph-name="ldot" unicode="&#x140;" horiz-adv-x="269" 
d="M86 0v720h69v-720h-69zM306 360q0 -20 -13 -33t-33 -13t-33 13t-13 33t13 33t33 13t33 -13t13 -33z" />
    <glyph glyph-name="Lslash" unicode="&#x141;" horiz-adv-x="530" 
d="M12 304v59l84 21v336h71v-318l206 51v-59l-206 -51v-278h332v-65h-403v325z" />
    <glyph glyph-name="lslash" unicode="&#x142;" horiz-adv-x="298" 
d="M12 326v56l102 26v312h69v-294l103 26v-56l-103 -26v-370h-69v352z" />
    <glyph glyph-name="Nacute" unicode="&#x143;" horiz-adv-x="709" 
d="M96 0v720h81l369 -579v579h67v-720h-59l-391 612v-612h-67zM351 783h-56l96 125h85z" />
    <glyph glyph-name="nacute" unicode="&#x144;" horiz-adv-x="567" 
d="M282 574h-56l96 146h84zM80 0v510h69v-79q91 91 204 91q63 0 101 -33.5t38 -108.5v-380h-69v366q0 94 -89 94t-185 -90v-370h-69z" />
    <glyph glyph-name="Ncommaaccent" unicode="&#x145;" horiz-adv-x="709" 
d="M96 0v720h81l369 -579v579h67v-720h-59l-391 612v-612h-67zM324 -205l-27 34q42 24 55 57q-19 0 -30.5 11.5t-11.5 29.5t11.5 29.5t31.5 11.5q23 0 37.5 -15.5t14.5 -43.5q0 -70 -81 -114z" />
    <glyph glyph-name="ncommaaccent" unicode="&#x146;" horiz-adv-x="567" 
d="M243 -205l-27 34q42 24 55 57q-19 0 -30.5 11.5t-11.5 29.5t11.5 29.5t31.5 11.5q23 0 37.5 -15.5t14.5 -43.5q0 -70 -81 -114zM80 0v510h69v-79q91 91 204 91q63 0 101 -33.5t38 -108.5v-380h-69v366q0 94 -89 94t-185 -90v-370h-69z" />
    <glyph glyph-name="Ncaron" unicode="&#x147;" horiz-adv-x="709" 
d="M96 0v720h81l369 -579v579h67v-720h-59l-391 612v-612h-67zM448 908h56l-122 -125h-56l-122 125h56l94 -68z" />
    <glyph glyph-name="ncaron" unicode="&#x148;" horiz-adv-x="567" 
d="M379 720h56l-122 -146h-56l-122 146h56l94 -89zM80 0v510h69v-79q91 91 204 91q63 0 101 -33.5t38 -108.5v-380h-69v366q0 94 -89 94t-185 -90v-370h-69z" />
    <glyph glyph-name="napostrophe" unicode="&#x149;" horiz-adv-x="567" 
d="M4 559l-27 34q42 24 55 57q-19 0 -30.5 11.5t-11.5 29.5t11.5 29.5t31.5 11.5q23 0 37.5 -15.5t14.5 -43.5q0 -70 -81 -114zM80 0v510h69v-79q91 91 204 91q63 0 101 -33.5t38 -108.5v-380h-69v366q0 94 -89 94t-185 -90v-370h-69z" />
    <glyph glyph-name="Eng" unicode="&#x14a;" horiz-adv-x="709" 
d="M96 0v720h81l369 -579v579h67v-754q0 -72 -31 -108t-102 -36q-28 0 -59 6v59q27 -6 49 -6q41 0 57.5 21t16.5 64v49l-381 597v-612h-67z" />
    <glyph glyph-name="eng" unicode="&#x14b;" horiz-adv-x="567" 
d="M80 0v510h69v-79q91 91 204 91q63 0 101 -33.5t38 -108.5v-414q0 -72 -31 -108t-102 -36q-27 0 -59 6v59q27 -6 49 -6q41 0 57.5 21t16.5 64v400q0 94 -89 94t-185 -90v-370h-69z" />
    <glyph glyph-name="Omacron" unicode="&#x14c;" horiz-adv-x="716" 
d="M657 362q0 -177 -83.5 -275.5t-217.5 -98.5q-132 0 -214.5 96.5t-82.5 273.5q0 178 83.5 276t217.5 98q132 0 214.5 -97t82.5 -273zM586 360q0 152 -61.5 230t-166.5 78t-166.5 -78t-61.5 -230t61.5 -230t166.5 -78t166.5 78t61.5 230zM217 789v56h280v-56h-280z" />
    <glyph glyph-name="omacron" unicode="&#x14d;" horiz-adv-x="554" 
d="M119 255q0 -106 43.5 -157.5t114.5 -51.5t114.5 51.5t43.5 157.5t-43.5 157.5t-114.5 51.5t-114.5 -51.5t-43.5 -157.5zM504 257q0 -131 -64.5 -200t-164.5 -69q-98 0 -161.5 67t-63.5 198q0 132 65 200.5t164 68.5q98 0 161.5 -67.5t63.5 -197.5zM136 585v57h280v-57
h-280z" />
    <glyph glyph-name="Obreve" unicode="&#x14e;" horiz-adv-x="716" 
d="M657 362q0 -177 -83.5 -275.5t-217.5 -98.5q-132 0 -214.5 96.5t-82.5 273.5q0 178 83.5 276t217.5 98q132 0 214.5 -97t82.5 -273zM586 360q0 152 -61.5 230t-166.5 78t-166.5 -78t-61.5 -230t61.5 -230t166.5 -78t166.5 78t61.5 230zM357 783q-143 0 -143 125h46
q6 -37 27 -53t70 -16t70 16t27 53h46q0 -125 -143 -125z" />
    <glyph glyph-name="obreve" unicode="&#x14f;" horiz-adv-x="554" 
d="M119 255q0 -106 43.5 -157.5t114.5 -51.5t114.5 51.5t43.5 157.5t-43.5 157.5t-114.5 51.5t-114.5 -51.5t-43.5 -157.5zM504 257q0 -131 -64.5 -200t-164.5 -69q-98 0 -161.5 67t-63.5 198q0 132 65 200.5t164 68.5q98 0 161.5 -67.5t63.5 -197.5zM276 580
q-72 0 -107.5 36.5t-35.5 103.5h46q6 -44 26.5 -63.5t70.5 -19.5t70.5 19.5t26.5 63.5h46q0 -67 -35.5 -103.5t-107.5 -36.5z" />
    <glyph glyph-name="Ohungarumlaut" unicode="&#x150;" horiz-adv-x="716" 
d="M657 362q0 -177 -83.5 -275.5t-217.5 -98.5q-132 0 -214.5 96.5t-82.5 273.5q0 178 83.5 276t217.5 98q132 0 214.5 -97t82.5 -273zM586 360q0 152 -61.5 230t-166.5 78t-166.5 -78t-61.5 -230t61.5 -230t166.5 -78t166.5 78t61.5 230zM276 783h-56l96 125h85zM421 783
h-56l107 125h85z" />
    <glyph glyph-name="ohungarumlaut" unicode="&#x151;" horiz-adv-x="554" 
d="M119 255q0 -106 43.5 -157.5t114.5 -51.5t114.5 51.5t43.5 157.5t-43.5 157.5t-114.5 51.5t-114.5 -51.5t-43.5 -157.5zM504 257q0 -131 -64.5 -200t-164.5 -69q-98 0 -161.5 67t-63.5 198q0 132 65 200.5t164 68.5q98 0 161.5 -67.5t63.5 -197.5zM195 574h-55l95 146h85
zM339 574h-55l107 146h84z" />
    <glyph glyph-name="OE" unicode="&#x152;" horiz-adv-x="941" 
d="M378 732q50 0 105 -12h403v-65h-337v-249h294v-63h-294v-279h340v-64h-409q-60 -12 -110 -12q-142 0 -226.5 94.5t-84.5 271.5q0 181 87.5 279.5t231.5 98.5zM376 51q51 0 102 14v586q-49 17 -102 17q-114 0 -180 -78.5t-66 -230.5q0 -151 66 -229.5t180 -78.5z" />
    <glyph glyph-name="oe" unicode="&#x153;" horiz-adv-x="921" 
d="M865 241h-361q2 -99 47 -147.5t122 -48.5q74 0 159 52l20 -55q-86 -54 -188 -54q-138 0 -197 108q-61 -108 -192 -108q-98 0 -161.5 67t-63.5 198q0 132 65 200.5t164 68.5q62 0 112.5 -28.5t79.5 -84.5q30 55 80.5 84t113.5 29q93 0 147 -63t54 -180q0 -24 -1 -38z
M119 255q0 -106 43.5 -157.5t114.5 -51.5t114.5 51.5t43.5 157.5t-43.5 157.5t-114.5 51.5t-114.5 -51.5t-43.5 -157.5zM662 466q-66 0 -108.5 -45t-49.5 -127h295q0 87 -37 129.5t-100 42.5z" />
    <glyph glyph-name="Racute" unicode="&#x154;" horiz-adv-x="670" 
d="M530 0l-202 329h-161v-329h-71v720h250q111 0 172 -49.5t61 -145.5q0 -81 -44 -130t-130 -62l205 -333h-80zM167 388h173q85 0 126.5 32t41.5 102q0 69 -41.5 101t-126.5 32h-173v-267zM319 783h-56l96 125h85z" />
    <glyph glyph-name="racute" unicode="&#x155;" horiz-adv-x="367" 
d="M345 519v-64q-22 2 -34 2q-88 0 -162 -93v-364h-69v510h69v-82q67 94 163 94q18 0 33 -3zM209 574h-56l96 146h84z" />
    <glyph glyph-name="Rcommaaccent" unicode="&#x156;" horiz-adv-x="670" 
d="M530 0l-202 329h-161v-329h-71v720h250q111 0 172 -49.5t61 -145.5q0 -81 -44 -130t-130 -62l205 -333h-80zM167 388h173q85 0 126.5 32t41.5 102q0 69 -41.5 101t-126.5 32h-173v-267zM293 -205l-27 34q42 24 55 57q-19 0 -30.5 11.5t-11.5 29.5t11.5 29.5t31.5 11.5
q23 0 37.5 -15.5t14.5 -43.5q0 -70 -81 -114z" />
    <glyph glyph-name="rcommaaccent" unicode="&#x157;" horiz-adv-x="367" 
d="M345 519v-64q-22 2 -34 2q-88 0 -162 -93v-364h-69v510h69v-82q67 94 163 94q18 0 33 -3zM77 -205l-27 34q42 24 55 57q-19 0 -30.5 11.5t-11.5 29.5t11.5 29.5t31.5 11.5q23 0 37.5 -15.5t14.5 -43.5q0 -70 -81 -114z" />
    <glyph glyph-name="Rcaron" unicode="&#x158;" horiz-adv-x="670" 
d="M530 0l-202 329h-161v-329h-71v720h250q111 0 172 -49.5t61 -145.5q0 -81 -44 -130t-130 -62l205 -333h-80zM167 388h173q85 0 126.5 32t41.5 102q0 69 -41.5 101t-126.5 32h-173v-267zM416 908h56l-122 -125h-56l-122 125h56l94 -68z" />
    <glyph glyph-name="rcaron" unicode="&#x159;" horiz-adv-x="367" 
d="M345 519v-64q-22 2 -34 2q-88 0 -162 -93v-364h-69v510h69v-82q67 94 163 94q18 0 33 -3zM306 720h56l-122 -146h-56l-122 146h56l94 -89z" />
    <glyph glyph-name="Sacute" unicode="&#x15a;" horiz-adv-x="579" 
d="M59 56l24 65q102 -70 201 -70q76 0 120.5 38t44.5 102q0 48 -27.5 80t-68 46.5l-88.5 31.5t-88.5 34.5t-68 56t-27.5 95.5q0 90 61.5 143.5t160.5 53.5q109 0 198 -66l-23 -67q-91 69 -179 69q-68 0 -107.5 -33.5t-39.5 -90.5q0 -39 20.5 -66t53 -41.5t71.5 -26.5
t78 -26.5t71.5 -35t53 -58t20.5 -89.5q0 -98 -65.5 -155.5t-173.5 -57.5q-120 0 -222 68zM287 783h-56l96 125h85z" />
    <glyph glyph-name="sacute" unicode="&#x15b;" horiz-adv-x="454" 
d="M388 473l-20 -60q-73 51 -134 51q-44 0 -70 -23t-26 -58q0 -34 27.5 -54.5t66.5 -31t78 -23.5t66.5 -45t27.5 -83q0 -73 -50.5 -115.5t-134.5 -42.5q-92 0 -169 50l20 60q80 -53 154 -53q53 0 82.5 25t29.5 67q0 38 -27.5 60.5t-66.5 34l-78 24t-66.5 42.5t-27.5 78
q0 65 46 105.5t121 40.5q81 0 151 -49zM225 574h-56l96 146h84z" />
    <glyph glyph-name="Scircumflex" unicode="&#x15c;" horiz-adv-x="579" 
d="M59 56l24 65q102 -70 201 -70q76 0 120.5 38t44.5 102q0 48 -27.5 80t-68 46.5l-88.5 31.5t-88.5 34.5t-68 56t-27.5 95.5q0 90 61.5 143.5t160.5 53.5q109 0 198 -66l-23 -67q-91 69 -179 69q-68 0 -107.5 -33.5t-39.5 -90.5q0 -39 20.5 -66t53 -41.5t71.5 -26.5
t78 -26.5t71.5 -35t53 -58t20.5 -89.5q0 -98 -65.5 -155.5t-173.5 -57.5q-120 0 -222 68zM196 783h-56l122 125h56l122 -125h-56l-94 68z" />
    <glyph glyph-name="scircumflex" unicode="&#x15d;" horiz-adv-x="454" 
d="M388 473l-20 -60q-73 51 -134 51q-44 0 -70 -23t-26 -58q0 -34 27.5 -54.5t66.5 -31t78 -23.5t66.5 -45t27.5 -83q0 -73 -50.5 -115.5t-134.5 -42.5q-92 0 -169 50l20 60q80 -53 154 -53q53 0 82.5 25t29.5 67q0 38 -27.5 60.5t-66.5 34l-78 24t-66.5 42.5t-27.5 78
q0 65 46 105.5t121 40.5q81 0 151 -49zM134 574h-56l122 146h56l122 -146h-56l-94 89z" />
    <glyph glyph-name="Scedilla" unicode="&#x15e;" horiz-adv-x="579" 
d="M389 -99q0 -40 -30 -62.5t-81 -22.5q-46 0 -88 23l12 45q42 -22 75 -22q53 0 53 40q0 46 -73 63l8 23q-110 4 -206 68l24 65q102 -70 201 -70q76 0 120.5 38t44.5 102q0 48 -27.5 80t-68 46.5l-88.5 31.5t-88.5 34.5t-68 56t-27.5 95.5q0 90 61.5 143.5t160.5 53.5
q109 0 198 -66l-23 -67q-91 69 -179 69q-68 0 -107.5 -33.5t-39.5 -90.5q0 -39 20.5 -66t53 -41.5t71.5 -26.5t78 -26.5t71.5 -35t53 -58t20.5 -89.5q0 -89 -54.5 -145t-146.5 -66q70 -27 70 -89z" />
    <glyph glyph-name="scedilla" unicode="&#x15f;" horiz-adv-x="454" 
d="M326 -99q0 -40 -30 -62.5t-81 -22.5q-46 0 -88 23l12 45q42 -22 75 -22q53 0 53 40q0 46 -73 63l8 24q-84 4 -152 49l20 60q80 -53 154 -53q53 0 82.5 25t29.5 67q0 38 -27.5 60.5t-66.5 34l-78 24t-66.5 42.5t-27.5 78q0 65 46 105.5t121 40.5q81 0 151 -49l-20 -60
q-73 51 -134 51q-44 0 -70 -23t-26 -58q0 -34 27.5 -54.5t66.5 -31t78 -23.5t66.5 -45t27.5 -83q0 -65 -40 -106t-109 -49q71 -26 71 -90z" />
    <glyph glyph-name="Scaron" unicode="&#x160;" horiz-adv-x="579" 
d="M59 56l24 65q102 -70 201 -70q76 0 120.5 38t44.5 102q0 48 -27.5 80t-68 46.5l-88.5 31.5t-88.5 34.5t-68 56t-27.5 95.5q0 90 61.5 143.5t160.5 53.5q109 0 198 -66l-23 -67q-91 69 -179 69q-68 0 -107.5 -33.5t-39.5 -90.5q0 -39 20.5 -66t53 -41.5t71.5 -26.5
t78 -26.5t71.5 -35t53 -58t20.5 -89.5q0 -98 -65.5 -155.5t-173.5 -57.5q-120 0 -222 68zM384 908h56l-122 -125h-56l-122 125h56l94 -68z" />
    <glyph glyph-name="scaron" unicode="&#x161;" horiz-adv-x="454" 
d="M388 473l-20 -60q-73 51 -134 51q-44 0 -70 -23t-26 -58q0 -34 27.5 -54.5t66.5 -31t78 -23.5t66.5 -45t27.5 -83q0 -73 -50.5 -115.5t-134.5 -42.5q-92 0 -169 50l20 60q80 -53 154 -53q53 0 82.5 25t29.5 67q0 38 -27.5 60.5t-66.5 34l-78 24t-66.5 42.5t-27.5 78
q0 65 46 105.5t121 40.5q81 0 151 -49zM322 720h56l-122 -146h-56l-122 146h56l94 -89z" />
    <glyph glyph-name="Tcommaaccent" unicode="&#x162;" horiz-adv-x="561" 
d="M245 0v655h-214v65h499v-65h-214v-655h-28q43 -12 67.5 -37.5t24.5 -61.5q0 -40 -30 -62.5t-81 -22.5q-46 0 -88 23l12 45q42 -22 75 -22q53 0 53 40q0 46 -73 63l11 35h-14z" />
    <glyph glyph-name="tcommaaccent" unicode="&#x163;" horiz-adv-x="375" 
d="M303 -99q0 -40 -30 -62.5t-81 -22.5q-46 0 -88 23l12 45q42 -22 75 -22q53 0 53 40q0 46 -73 63l12 39q-28 13 -40.5 42.5t-12.5 83.5v321h-105v59h105v170h69v-170h135v-59h-135v-313q0 -50 12.5 -67.5t49.5 -17.5q30 0 73 13v-61q-53 -11 -80 -11q-6 0 -14 0.5t-12 0.5
q75 -29 75 -94z" />
    <glyph glyph-name="Tcaron" unicode="&#x164;" horiz-adv-x="561" 
d="M245 0v655h-214v65h499v-65h-214v-655h-71zM374 908h56l-122 -125h-56l-122 125h56l94 -68z" />
    <glyph glyph-name="tcaron" unicode="&#x165;" horiz-adv-x="375" 
d="M293 571h-45l29 149h67zM25 451v59h105v170h69v-170h135v-59h-135v-313q0 -50 12.5 -67.5t49.5 -17.5q30 0 73 13v-61q-53 -11 -86 -11q-65 0 -91.5 30t-26.5 106v321h-105z" />
    <glyph glyph-name="Tbar" unicode="&#x166;" horiz-adv-x="561" 
d="M98 348v57h147v250h-214v65h499v-65h-214v-250h147v-57h-147v-348h-71v348h-147z" />
    <glyph glyph-name="tbar" unicode="&#x167;" horiz-adv-x="375" 
d="M25 451v59h105v170h69v-170h135v-59h-135v-152h111v-56h-111v-105q0 -50 12.5 -67.5t49.5 -17.5q30 0 73 13v-61q-53 -11 -86 -11q-65 0 -91.5 30t-26.5 106v113h-80v56h80v152h-105z" />
    <glyph glyph-name="Utilde" unicode="&#x168;" horiz-adv-x="687" 
d="M88 252v468h72v-465q0 -106 43 -154.5t141 -48.5t141 48.5t43 154.5v465h70v-465q0 -137 -62.5 -202t-192.5 -65t-192.5 64.5t-62.5 199.5zM241 783h-46q0 55 22 79t55 24q31 0 77.5 -26.5t63.5 -26.5q32 0 32 47h46q0 -55 -22 -79t-55 -24q-31 0 -77.5 26.5t-63.5 26.5
q-32 0 -32 -47z" />
    <glyph glyph-name="utilde" unicode="&#x169;" horiz-adv-x="567" 
d="M178 580h-46q0 55 22 80t55 25q31 0 77 -28t63 -28q33 0 33 50h46q0 -55 -22 -80t-55 -25q-31 0 -77 28t-63 28q-33 0 -33 -50zM486 510v-510h-69v79q-91 -91 -204 -91q-63 0 -101 33.5t-38 108.5v380h69v-368q0 -94 89 -94t185 90v372h69z" />
    <glyph glyph-name="Umacron" unicode="&#x16a;" horiz-adv-x="687" 
d="M88 252v468h72v-465q0 -106 43 -154.5t141 -48.5t141 48.5t43 154.5v465h70v-465q0 -137 -62.5 -202t-192.5 -65t-192.5 64.5t-62.5 199.5zM203 789v56h280v-56h-280z" />
    <glyph glyph-name="umacron" unicode="&#x16b;" horiz-adv-x="567" 
d="M140 585v57h280v-57h-280zM486 510v-510h-69v79q-91 -91 -204 -91q-63 0 -101 33.5t-38 108.5v380h69v-368q0 -94 89 -94t185 90v372h69z" />
    <glyph glyph-name="Ubreve" unicode="&#x16c;" horiz-adv-x="687" 
d="M87 252v468h72v-465q0 -106 43 -154.5t141 -48.5t141 48.5t43 154.5v465h70v-465q0 -137 -62.5 -202t-192.5 -65t-192.5 64.5t-62.5 199.5zM343 783q-143 0 -143 125h46q6 -37 27 -53t70 -16t70 16t27 53h46q0 -125 -143 -125z" />
    <glyph glyph-name="ubreve" unicode="&#x16d;" horiz-adv-x="567" 
d="M280 580q-72 0 -107.5 36.5t-35.5 103.5h46q6 -44 26.5 -63.5t70.5 -19.5t70.5 19.5t26.5 63.5h46q0 -67 -35.5 -103.5t-107.5 -36.5zM486 510v-510h-69v79q-91 -91 -204 -91q-63 0 -101 33.5t-38 108.5v380h69v-368q0 -94 89 -94t185 90v372h69z" />
    <glyph glyph-name="Uring" unicode="&#x16e;" horiz-adv-x="687" 
d="M88 252v468h72v-465q0 -106 43 -154.5t141 -48.5t141 48.5t43 154.5v465h70v-465q0 -137 -62.5 -202t-192.5 -65t-192.5 64.5t-62.5 199.5zM295 862q0 -20 13.5 -33.5t34.5 -13.5t34.5 13.5t13.5 33.5t-13.5 33.5t-34.5 13.5t-34.5 -13.5t-13.5 -33.5zM430 862
q0 -36 -25 -61t-62 -25t-62 25t-25 61t25 61t62 25t62 -25t25 -61z" />
    <glyph glyph-name="uring" unicode="&#x16f;" horiz-adv-x="567" 
d="M232 655q0 -20 13.5 -33.5t34.5 -13.5t34.5 13.5t13.5 33.5t-13.5 33.5t-34.5 13.5t-34.5 -13.5t-13.5 -33.5zM367 655q0 -36 -25 -61t-62 -25t-62 25t-25 61t25 61t62 25t62 -25t25 -61zM486 510v-510h-69v79q-91 -91 -204 -91q-63 0 -101 33.5t-38 108.5v380h69v-368
q0 -94 89 -94t185 90v372h69z" />
    <glyph glyph-name="Uhungarumlaut" unicode="&#x170;" horiz-adv-x="687" 
d="M88 252v468h72v-465q0 -106 43 -154.5t141 -48.5t141 48.5t43 154.5v465h70v-465q0 -137 -62.5 -202t-192.5 -65t-192.5 64.5t-62.5 199.5zM262 783h-56l96 125h85zM407 783h-56l107 125h85z" />
    <glyph glyph-name="uhungarumlaut" unicode="&#x171;" horiz-adv-x="567" 
d="M200 574h-55l95 146h85zM344 574h-55l107 146h84zM486 510v-510h-69v79q-91 -91 -204 -91q-63 0 -101 33.5t-38 108.5v380h69v-368q0 -94 89 -94t185 90v372h69z" />
    <glyph glyph-name="Uogonek" unicode="&#x172;" horiz-adv-x="687" 
d="M88 252v468h72v-465q0 -106 43 -154.5t141 -48.5t141 48.5t43 154.5v465h70v-465q0 -118 -45 -181.5t-138 -79.5q-77 -44 -77 -94q0 -38 44 -38q17 0 33 5l12 -45q-23 -6 -53 -6q-45 0 -70 19.5t-25 55.5q0 60 64 97q-131 0 -193 64t-62 200z" />
    <glyph glyph-name="uogonek" unicode="&#x173;" horiz-adv-x="567" 
d="M486 510v-510h-9q-89 -47 -89 -100q0 -38 44 -38q17 0 33 5l12 -45q-22 -6 -52 -6q-45 0 -70.5 19.5t-25.5 55.5q0 71 88 109v79q-91 -91 -204 -91q-63 0 -101 33.5t-38 108.5v380h69v-368q0 -94 89 -94t185 90v372h69z" />
    <glyph glyph-name="Wcircumflex" unicode="&#x174;" horiz-adv-x="953" 
d="M653 0l-120 415q-37 128 -55 209h-2q-11 -50 -55 -205l-124 -419h-69l-188 720h74l106 -415q0 -1 4 -16.5l10 -39l12.5 -49.5t12.5 -53.5t9 -45.5h2q24 106 53 205l121 414h68l119 -413q35 -122 54 -206h2q12 69 47 204l108 415h72l-193 -720h-68zM382 783h-56l122 125
h56l122 -125h-56l-94 68z" />
    <glyph glyph-name="wcircumflex" unicode="&#x175;" horiz-adv-x="751" 
d="M248 0h-68l-154 510h70l87 -292q24 -82 34 -141h2q8 52 35 139l91 294h65l87 -293q29 -97 36 -140h2q10 62 34 142l88 291h68l-158 -510h-67l-85 284q-27 89 -38 145h-2q-10 -47 -39 -143zM281 574h-56l122 146h56l122 -146h-56l-94 89z" />
    <glyph glyph-name="Ycircumflex" unicode="&#x176;" horiz-adv-x="603" 
d="M266 0v309l-240 411h79l197 -341l198 341h77l-240 -411v-309h-71zM207 783h-56l122 125h56l122 -125h-56l-94 68z" />
    <glyph glyph-name="ycircumflex" unicode="&#x177;" horiz-adv-x="505" 
d="M38 -212v62q30 -6 46 -6q46 0 76.5 34t67.5 134h-24l-178 498h73l153 -441l156 441h71l-183 -498q-51 -138 -94 -183t-117 -45q-30 0 -47 4zM158 574h-56l122 146h56l122 -146h-56l-94 89z" />
    <glyph glyph-name="Ydieresis" unicode="&#x178;" horiz-adv-x="603" 
d="M266 0v309l-240 411h79l197 -341l198 341h77l-240 -411v-309h-71zM165 825q0 18 12 30.5t31 12.5t31 -12.5t12 -30.5t-12 -30.5t-31 -12.5t-31 12.5t-12 30.5zM351 825q0 18 12 30.5t31 12.5t31 -12.5t12 -30.5t-12 -30.5t-31 -12.5t-31 12.5t-12 30.5z" />
    <glyph glyph-name="Zacute" unicode="&#x179;" horiz-adv-x="598" 
d="M41 0v54l409 601h-387v65h479v-55l-409 -601h414v-64h-506zM294 783h-56l96 125h85z" />
    <glyph glyph-name="zacute" unicode="&#x17a;" horiz-adv-x="482" 
d="M32 0v50l314 401h-295v59h384v-50l-314 -401h319v-59h-408zM237 574h-56l96 146h84z" />
    <glyph glyph-name="Zdotaccent" unicode="&#x17b;" horiz-adv-x="598" 
d="M41 0v54l409 601h-387v65h479v-55l-409 -601h414v-64h-506zM343 827q0 -20 -13 -33t-33 -13t-33 13t-13 33t13 33t33 13t33 -13t13 -33z" />
    <glyph glyph-name="zdotaccent" unicode="&#x17c;" horiz-adv-x="482" 
d="M32 0v50l314 401h-295v59h384v-50l-314 -401h319v-59h-408zM286 619q0 -20 -13 -33t-33 -13t-33 13t-13 33t13 33t33 13t33 -13t13 -33z" />
    <glyph glyph-name="Zcaron" unicode="&#x17d;" horiz-adv-x="598" 
d="M41 0v54l409 601h-387v65h479v-55l-409 -601h414v-64h-506zM391 908h56l-122 -125h-56l-122 125h56l94 -68z" />
    <glyph glyph-name="zcaron" unicode="&#x17e;" horiz-adv-x="482" 
d="M32 0v50l314 401h-295v59h384v-50l-314 -401h319v-59h-408zM334 720h56l-122 -146h-56l-122 146h56l94 -89z" />
    <glyph glyph-name="longs" unicode="&#x17f;" horiz-adv-x="336" 
d="M25 451v59h105v72q0 72 31 108t102 36q27 0 59 -6v-59q-27 6 -50 6q-41 0 -57 -21.5t-16 -63.5v-582h-69v451h-105z" />
    <glyph glyph-name="uni018F" unicode="&#x18f;" horiz-adv-x="697" 
d="M343 51q97 0 156.5 71t65.5 213h-435q5 -142 60.5 -213t152.5 -71zM329 667q-105 0 -211 -74l-24 63q107 76 241 76q138 0 220 -96t82 -274q0 -179 -81.5 -276.5t-214.5 -97.5q-130 0 -206 95.5t-76 276.5v36h506q-8 131 -69 201t-167 70z" />
    <glyph glyph-name="florin" unicode="&#x192;" horiz-adv-x="456" 
d="M375 673q-52 0 -74.5 -26t-28.5 -78l-18 -172h178v-56h-184l-35 -341h-68l35 341h-152v56h158l18 172q9 84 46 123.5t119 39.5q30 0 63 -5v-59q-33 5 -57 5z" />
    <glyph glyph-name="uni01B5" unicode="&#x1b5;" horiz-adv-x="598" 
d="M116 348v57h164l170 250h-387v65h479v-55l-177 -260h119v-57h-158l-193 -284h414v-64h-506v54l200 294h-125z" />
    <glyph glyph-name="uni01B6" unicode="&#x1b6;" horiz-adv-x="482" 
d="M89 242v57h138l119 152h-295v59h384v-50l-126 -161h84v-57h-129l-143 -183h319v-59h-408v50l150 192h-93z" />
    <glyph glyph-name="Aringacute" unicode="&#x1fa;" horiz-adv-x="673" 
d="M333 858h-56l96 87h85zM426 756q0 -45 -35 -69l246 -687h-75l-72 206h-309l-72 -206h-73l249 687q-35 24 -35 69q0 36 25 61t63 25t63 -25t25 -61zM337 646l-134 -379h266zM289 756q0 -20 14 -33.5t35 -13.5t35 13.5t14 33.5t-14 33.5t-35 13.5t-35 -13.5t-14 -33.5z" />
    <glyph glyph-name="aringacute" unicode="&#x1fb;" horiz-adv-x="521" 
d="M270 463q-78 0 -171 -55l-20 56q96 58 201 58q81 0 123.5 -39.5t42.5 -128.5v-238q0 -90 10 -116h-65q-9 16 -12 66q-75 -78 -174 -78q-70 0 -112.5 40.5t-42.5 114.5q0 169 239 169q41 0 89 -7v43q0 62 -26.5 88.5t-81.5 26.5zM378 124v129q-53 8 -90 8
q-91 0 -130.5 -27.5t-39.5 -85.5q0 -50 27 -76t73 -26q82 0 160 78zM223 625q0 -20 13.5 -33.5t34.5 -13.5t34.5 13.5t13.5 33.5t-13.5 33.5t-34.5 13.5t-34.5 -13.5t-13.5 -33.5zM358 625q0 -36 -25 -61t-62 -25t-62 25t-25 61t25 61t62 25t62 -25t25 -61zM268 728h-56
l96 102h84z" />
    <glyph glyph-name="AEacute" unicode="&#x1fc;" horiz-adv-x="933" 
d="M27 0l405 720h447v-65h-337v-249h294v-63h-294v-279h339v-64h-410v206h-252l-114 -206h-78zM253 267h218v393zM647 783h-56l96 125h85z" />
    <glyph glyph-name="aeacute" unicode="&#x1fd;" horiz-adv-x="862" 
d="M806 241h-361q2 -99 47 -147.5t122 -48.5q74 0 159 52l20 -55q-86 -54 -188 -54q-135 0 -194 103q-92 -103 -205 -103q-69 0 -112.5 40.5t-43.5 114.5q0 169 239 169q41 0 89 -7v43q0 62 -26.5 88.5t-81.5 26.5q-78 0 -171 -55l-20 56q96 58 201 58q118 0 152 -83
q65 83 174 83q93 0 147 -63t54 -180q0 -24 -1 -38zM218 46q85 0 172 91q-15 48 -15 111v6q-52 7 -89 7q-90 0 -129 -27.5t-39 -84.5q0 -50 27 -76.5t73 -26.5zM603 466q-66 0 -108.5 -45t-49.5 -127h295q0 87 -37 129.5t-100 42.5zM454 574h-56l96 146h84z" />
    <glyph glyph-name="Oslashacute" unicode="&#x1fe;" horiz-adv-x="716" 
d="M128 359q0 -119 38 -192l356 429q-60 74 -165 74q-106 0 -167.5 -79t-61.5 -232zM588 361q0 119 -38 192l-356 -429q60 -74 165 -74q106 0 167.5 79t61.5 232zM657 362q0 -177 -83.5 -275.5t-217.5 -98.5q-125 0 -204 85l-71 -85l-37 32l77 93q-62 95 -62 245
q0 178 83.5 276t217.5 98q125 0 204 -85l71 85l37 -32l-77 -93q62 -95 62 -245zM354 783h-56l96 125h85z" />
    <glyph glyph-name="oslashacute" unicode="&#x1ff;" horiz-adv-x="554" 
d="M117 254q0 -75 23 -124l249 287q-42 49 -112 49q-71 0 -115.5 -52.5t-44.5 -159.5zM437 256q0 75 -23 124l-249 -287q42 -49 112 -49q71 0 115.5 52.5t44.5 159.5zM504 255q0 -130 -65 -198.5t-164 -68.5q-94 0 -152 57l-60 -69l-32 28l64 74q-45 69 -45 175
q0 132 65 200.5t164 68.5q92 0 151 -58l61 70l32 -28l-65 -75q46 -69 46 -176zM273 574h-56l96 146h84z" />
    <glyph glyph-name="Scommaaccent" unicode="&#x218;" horiz-adv-x="579" 
d="M59 56l24 65q102 -70 201 -70q76 0 120.5 38t44.5 102q0 48 -27.5 80t-68 46.5l-88.5 31.5t-88.5 34.5t-68 56t-27.5 95.5q0 90 61.5 143.5t160.5 53.5q109 0 198 -66l-23 -67q-91 69 -179 69q-68 0 -107.5 -33.5t-39.5 -90.5q0 -39 20.5 -66t53 -41.5t71.5 -26.5
t78 -26.5t71.5 -35t53 -58t20.5 -89.5q0 -98 -65.5 -155.5t-173.5 -57.5q-120 0 -222 68zM252 -205l-27 34q42 24 55 57q-19 0 -30.5 11.5t-11.5 29.5t11.5 29.5t31.5 11.5q23 0 37.5 -15.5t14.5 -43.5q0 -70 -81 -114z" />
    <glyph glyph-name="scommaaccent" unicode="&#x219;" horiz-adv-x="454" 
d="M388 473l-20 -60q-73 51 -134 51q-44 0 -70 -23t-26 -58q0 -34 27.5 -54.5t66.5 -31t78 -23.5t66.5 -45t27.5 -83q0 -73 -50.5 -115.5t-134.5 -42.5q-92 0 -169 50l20 60q80 -53 154 -53q53 0 82.5 25t29.5 67q0 38 -27.5 60.5t-66.5 34l-78 24t-66.5 42.5t-27.5 78
q0 65 46 105.5t121 40.5q81 0 151 -49zM191 -205l-27 34q42 24 55 57q-19 0 -30.5 11.5t-11.5 29.5t11.5 29.5t31.5 11.5q23 0 37.5 -15.5t14.5 -43.5q0 -70 -81 -114z" />
    <glyph glyph-name="uni021A" unicode="&#x21a;" horiz-adv-x="561" 
d="M245 0v655h-214v65h499v-65h-214v-655h-71zM243 -205l-27 34q42 24 55 57q-19 0 -30.5 11.5t-11.5 29.5t11.5 29.5t31.5 11.5q23 0 37.5 -15.5t14.5 -43.5q0 -70 -81 -114z" />
    <glyph glyph-name="uni021B" unicode="&#x21b;" horiz-adv-x="375" 
d="M25 451v59h105v170h69v-170h135v-59h-135v-313q0 -50 12.5 -67.5t49.5 -17.5q30 0 73 13v-61q-53 -11 -86 -11q-65 0 -91.5 30t-26.5 106v321h-105zM171 -205l-27 34q42 24 55 57q-19 0 -30.5 11.5t-11.5 29.5t11.5 29.5t31.5 11.5q23 0 37.5 -15.5t14.5 -43.5
q0 -70 -81 -114z" />
    <glyph glyph-name="uni0237" unicode="&#x237;" horiz-adv-x="241" 
d="M155 510v-582q0 -72 -31 -108t-102 -36q-28 0 -59 6v59q27 -6 49 -6q41 0 57.5 21t16.5 64v582h69z" />
    <glyph glyph-name="uni0259" unicode="&#x259;" horiz-adv-x="537" 
d="M264 43q69 0 109.5 48t43.5 144h-296q4 -192 143 -192zM54 287h362q-7 87 -50 131.5t-114 44.5q-73 0 -152 -52l-20 57q82 54 179 54q105 0 166 -68t61 -197q0 -131 -62.5 -200t-160.5 -69q-94 0 -152 64.5t-58 196.5q0 21 1 38z" />
    <glyph glyph-name="uni02BB" unicode="&#x2bb;" horiz-adv-x="262" 
d="M178 732l38 -33q-85 -52 -98 -122h5q23 0 37 -13.5t14 -34.5t-13.5 -35t-35.5 -14q-26 0 -43 21t-17 57q0 43 27.5 89.5t85.5 84.5z" />
    <glyph glyph-name="afii57929" unicode="&#x2bc;" horiz-adv-x="262" 
d="M45 513q85 52 98 122h-5q-23 0 -37 13.5t-14 34.5t13.5 35t35.5 14q26 0 43 -21t17 -57q0 -43 -27.5 -89.5t-85.5 -84.5z" />
    <glyph glyph-name="circumflex" unicode="&#x2c6;" horiz-adv-x="500" 
d="M156 574h-56l122 146h56l122 -146h-56l-94 89z" />
    <glyph glyph-name="caron" unicode="&#x2c7;" horiz-adv-x="500" 
d="M344 720h56l-122 -146h-56l-122 146h56l94 -89z" />
    <glyph glyph-name="breve" unicode="&#x2d8;" horiz-adv-x="500" 
d="M250 580q-72 0 -107.5 36.5t-35.5 103.5h46q6 -44 26.5 -63.5t70.5 -19.5t70.5 19.5t26.5 63.5h46q0 -67 -35.5 -103.5t-107.5 -36.5z" />
    <glyph glyph-name="dotaccent" unicode="&#x2d9;" horiz-adv-x="500" 
d="M296 619q0 -20 -13 -33t-33 -13t-33 13t-13 33t13 33t33 13t33 -13t13 -33z" />
    <glyph glyph-name="ring" unicode="&#x2da;" horiz-adv-x="500" 
d="M202 655q0 -20 13.5 -33.5t34.5 -13.5t34.5 13.5t13.5 33.5t-13.5 33.5t-34.5 13.5t-34.5 -13.5t-13.5 -33.5zM337 655q0 -36 -25 -61t-62 -25t-62 25t-25 61t25 61t62 25t62 -25t25 -61z" />
    <glyph glyph-name="ogonek" unicode="&#x2db;" horiz-adv-x="500" 
d="M264 0h60q-89 -47 -89 -100q0 -38 44 -38q17 0 33 5l12 -45q-23 -6 -52 -6q-45 0 -70.5 19.5t-25.5 55.5q0 71 88 109z" />
    <glyph glyph-name="tilde" unicode="&#x2dc;" horiz-adv-x="500" 
d="M148 580h-46q0 55 22 80t55 25q31 0 77 -28t63 -28q33 0 33 50h46q0 -55 -22 -80t-55 -25q-31 0 -77 28t-63 28q-33 0 -33 -50z" />
    <glyph glyph-name="hungarumlaut" unicode="&#x2dd;" horiz-adv-x="500" 
d="M169 574h-55l95 146h85zM313 574h-55l107 146h84z" />
    <glyph glyph-name="gravecomb" unicode="&#x300;" horiz-adv-x="1" 
d="M309 574h-56l-124 146h84z" />
    <glyph glyph-name="acutecomb" unicode="&#x301;" horiz-adv-x="1" 
d="M247 574h-56l96 146h84z" />
    <glyph glyph-name="uni0302" unicode="&#x302;" horiz-adv-x="1" 
d="M156 574h-56l122 146h56l122 -146h-56l-94 89z" />
    <glyph glyph-name="tildecomb" unicode="&#x303;" horiz-adv-x="1" 
d="M148 580h-46q0 55 22 80t55 25q31 0 77 -28t63 -28q33 0 33 50h46q0 -55 -22 -80t-55 -25q-31 0 -77 28t-63 28q-33 0 -33 -50z" />
    <glyph glyph-name="uni0304" unicode="&#x304;" horiz-adv-x="1" 
d="M110 585v57h280v-57h-280z" />
    <glyph glyph-name="uni0306" unicode="&#x306;" horiz-adv-x="1" 
d="M250 580q-72 0 -107.5 36.5t-35.5 103.5h46q6 -44 26.5 -63.5t70.5 -19.5t70.5 19.5t26.5 63.5h46q0 -67 -35.5 -103.5t-107.5 -36.5z" />
    <glyph glyph-name="uni0307" unicode="&#x307;" horiz-adv-x="1" 
d="M296 619q0 -20 -13 -33t-33 -13t-33 13t-13 33t13 33t33 13t33 -13t13 -33z" />
    <glyph glyph-name="uni0308" unicode="&#x308;" horiz-adv-x="1" 
d="M114 622q0 18 12 30.5t31 12.5t31 -12.5t12 -30.5t-12 -30.5t-31 -12.5t-31 12.5t-12 30.5zM300 622q0 18 12 30.5t31 12.5t31 -12.5t12 -30.5t-12 -30.5t-31 -12.5t-31 12.5t-12 30.5z" />
    <glyph glyph-name="uni030A" unicode="&#x30a;" horiz-adv-x="1" 
d="M202 655q0 -20 13.5 -33.5t34.5 -13.5t34.5 13.5t13.5 33.5t-13.5 33.5t-34.5 13.5t-34.5 -13.5t-13.5 -33.5zM337 655q0 -36 -25 -61t-62 -25t-62 25t-25 61t25 61t62 25t62 -25t25 -61z" />
    <glyph glyph-name="uni030B" unicode="&#x30b;" horiz-adv-x="1" 
d="M169 574h-55l95 146h85zM313 574h-55l107 146h84z" />
    <glyph glyph-name="uni030C" unicode="&#x30c;" horiz-adv-x="1" 
d="M344 720h56l-122 -146h-56l-122 146h56l94 -89z" />
    <glyph glyph-name="uni0312" unicode="&#x312;" horiz-adv-x="1" 
d="M280 746l27 -34q-42 -24 -55 -57q19 0 30.5 -11.5t11.5 -29.5t-11.5 -29.5t-31.5 -11.5q-23 0 -37.5 15.5t-14.5 43.5q0 70 81 114z" />
    <glyph glyph-name="uni0313" unicode="&#x313;" horiz-adv-x="1" 
d="M220 574l-27 34q42 24 55 57q-19 0 -30.5 11.5t-11.5 29.5t11.5 29.5t31.5 11.5q23 0 37.5 -15.5t14.5 -43.5q0 -70 -81 -114z" />
    <glyph glyph-name="uni0326" unicode="&#x326;" horiz-adv-x="1" 
d="M220 -205l-27 34q42 24 55 57q-19 0 -30.5 11.5t-11.5 29.5t11.5 29.5t31.5 11.5q23 0 37.5 -15.5t14.5 -43.5q0 -70 -81 -114z" />
    <glyph glyph-name="uni0327" unicode="&#x327;" horiz-adv-x="1" 
d="M349 -99q0 -40 -30 -62.5t-81 -22.5q-46 0 -88 23l12 45q42 -22 75 -22q53 0 53 40q0 46 -73 63l13 37q54 -7 86.5 -33t32.5 -68z" />
    <glyph glyph-name="uni0328" unicode="&#x328;" horiz-adv-x="1" 
d="M264 0h60q-89 -47 -89 -100q0 -38 44 -38q17 0 33 5l12 -45q-23 -6 -52 -6q-45 0 -70.5 19.5t-25.5 55.5q0 71 88 109z" />
    <glyph glyph-name="uni0335" unicode="&#x335;" horiz-adv-x="1" 
d="M64 280v63h372v-63h-372z" />
    <glyph glyph-name="uni0336" unicode="&#x336;" horiz-adv-x="1" 
d="M64 280v63h872v-63h-872z" />
    <glyph glyph-name="uni037E" unicode="&#x37e;" horiz-adv-x="279" 
d="M45 -131q85 52 98 122h-5q-23 0 -37 13.5t-14 34.5t13.5 35t35.5 14q26 0 43 -21t17 -57q0 -43 -27.5 -89.5t-85.5 -84.5zM187 440q0 -21 -14 -35.5t-36 -14.5t-36 14.5t-14 35.5t14 35.5t36 14.5t36 -14.5t14 -35.5z" />
    <glyph glyph-name="tonos" unicode="&#x384;" horiz-adv-x="500" 
d="M260 574h-52l56 146h80z" />
    <glyph glyph-name="dieresistonos" unicode="&#x385;" horiz-adv-x="500" 
d="M276 670h-52l37 105h76zM114 615q0 18 12 30.5t31 12.5t31 -12.5t12 -30.5t-12 -30.5t-31 -12.5t-31 12.5t-12 30.5zM300 615q0 18 12 30.5t31 12.5t31 -12.5t12 -30.5t-12 -30.5t-31 -12.5t-31 12.5t-12 30.5z" />
    <glyph glyph-name="Alphatonos" unicode="&#x386;" horiz-adv-x="673" 
d="M97 574h-52l55 146h81zM380 720l257 -720h-75l-72 206h-309l-72 -206h-73l261 720h83zM337 646l-134 -379h266z" />
    <glyph glyph-name="anoteleia" unicode="&#x387;" horiz-adv-x="279" 
d="M190 257q0 -21 -14 -35.5t-36 -14.5t-36 14.5t-14 35.5t14 35.5t36 14.5t36 -14.5t14 -35.5z" />
    <glyph glyph-name="Epsilontonos" unicode="&#x388;" horiz-adv-x="678" 
d="M45 574h-52l55 146h81zM185 0v720h438v-65h-367v-249h323v-63h-323v-279h369v-64h-440z" />
    <glyph glyph-name="Etatonos" unicode="&#x389;" horiz-adv-x="793" 
d="M45 574h-52l55 146h81zM185 0v720h71v-312h369v312h71v-720h-71v343h-369v-343h-71z" />
    <glyph glyph-name="Iotatonos" unicode="&#x38a;" horiz-adv-x="370" 
d="M45 574h-52l55 146h81zM194 0v720h71v-720h-71z" />
    <glyph glyph-name="Omicrontonos" unicode="&#x38c;" horiz-adv-x="798" 
d="M45 574h-52l55 146h81zM739 362q0 -177 -83.5 -275.5t-217.5 -98.5q-132 0 -214.5 96.5t-82.5 273.5q0 178 83.5 276t217.5 98q132 0 214.5 -97t82.5 -273zM668 360q0 152 -61.5 230t-166.5 78t-166.5 -78t-61.5 -230t61.5 -230t166.5 -78t166.5 78t61.5 230z" />
    <glyph glyph-name="Upsilontonos" unicode="&#x38e;" horiz-adv-x="717" 
d="M45 574h-52l55 146h81zM380 0v309l-240 411h79l197 -341l198 341h77l-240 -411v-309h-71z" />
    <glyph glyph-name="Omegatonos" unicode="&#x38f;" horiz-adv-x="801" 
d="M45 574h-52l55 146h81zM444 732q131 0 214.5 -91.5t83.5 -246.5q0 -203 -154 -330h184v-64h-267v55q84 69 125 149.5t41 183.5q0 132 -62 206t-166 74t-166 -74t-62 -206q0 -103 41 -183.5t125 -149.5v-55h-267v64h183q-153 127 -153 325q0 157 84 250t216 93z" />
    <glyph glyph-name="iotadieresistonos" unicode="&#x390;" horiz-adv-x="275" 
d="M80 106v404h69v-391q0 -39 12.5 -53t41.5 -14q24 0 50 7v-59q-24 -6 -60 -6q-58 0 -85.5 25.5t-27.5 86.5zM141 670h-52l37 105h76zM-21 615q0 18 12 30.5t31 12.5t31 -12.5t12 -30.5t-12 -30.5t-31 -12.5t-31 12.5t-12 30.5zM165 615q0 18 12 30.5t31 12.5t31 -12.5
t12 -30.5t-12 -30.5t-31 -12.5t-31 12.5t-12 30.5z" />
    <glyph glyph-name="Alpha" unicode="&#x391;" horiz-adv-x="673" 
d="M380 720l257 -720h-75l-72 206h-309l-72 -206h-73l261 720h83zM337 646l-134 -379h266z" />
    <glyph glyph-name="Beta" unicode="&#x392;" horiz-adv-x="643" 
d="M96 0v720h223q111 0 172 -47t61 -139q0 -123 -111 -163q141 -35 141 -178q0 -92 -62.5 -142.5t-184.5 -50.5h-239zM166 61h169q177 0 177 138t-177 138h-169v-276zM166 396h148q168 0 168 131q0 68 -41.5 99.5t-126.5 31.5h-148v-262z" />
    <glyph glyph-name="Gamma" unicode="&#x393;" horiz-adv-x="530" 
d="M96 0v720h403v-65h-332v-655h-71z" />
    <glyph glyph-name="uni0394" unicode="&#x394;" horiz-adv-x="673" 
d="M380 720l237 -665v-55h-561v55l241 665h83zM337 646l-206 -582h409z" />
    <glyph glyph-name="Epsilon" unicode="&#x395;" horiz-adv-x="588" 
d="M96 0v720h438v-65h-367v-249h323v-63h-323v-279h369v-64h-440z" />
    <glyph glyph-name="Zeta" unicode="&#x396;" horiz-adv-x="598" 
d="M41 0v54l409 601h-387v65h479v-55l-409 -601h414v-64h-506z" />
    <glyph glyph-name="Eta" unicode="&#x397;" horiz-adv-x="703" 
d="M96 0v720h71v-312h369v312h71v-720h-71v343h-369v-343h-71z" />
    <glyph glyph-name="Theta" unicode="&#x398;" horiz-adv-x="716" 
d="M358 52q102 0 163.5 71.5t66.5 211.5h-460q5 -140 66.5 -211.5t163.5 -71.5zM358 668q-99 0 -160 -68.5t-69 -201.5h458q-8 133 -69 201.5t-160 68.5zM657 362q0 -177 -83.5 -275.5t-217.5 -98.5q-132 0 -214.5 96.5t-82.5 273.5q0 178 83.5 276t217.5 98
q132 0 214.5 -97t82.5 -273z" />
    <glyph glyph-name="Iota" unicode="&#x399;" horiz-adv-x="281" 
d="M105 0v720h71v-720h-71z" />
    <glyph glyph-name="Kappa" unicode="&#x39a;" horiz-adv-x="643" 
d="M96 0v720h71v-355l339 355h90l-257 -263l282 -457h-81l-249 408l-124 -127v-281h-71z" />
    <glyph glyph-name="Lambda" unicode="&#x39b;" horiz-adv-x="646" 
d="M361 720l250 -720h-74l-214 626l-215 -626h-72l253 720h72z" />
    <glyph glyph-name="Mu" unicode="&#x39c;" horiz-adv-x="907" 
d="M681 720h93l55 -720h-73l-29 451q-7 105 -9 191h-2q-7 -41 -60 -185l-171 -457h-66l-168 457q-53 145 -60 185h-2q0 -52 -9 -183l-32 -459h-70l59 720h94l161 -450q39 -108 60 -182h2q18 61 61 178z" />
    <glyph glyph-name="Nu" unicode="&#x39d;" horiz-adv-x="709" 
d="M96 0v720h81l369 -579v579h67v-720h-59l-391 612v-612h-67z" />
    <glyph glyph-name="Xi" unicode="&#x39e;" horiz-adv-x="523" 
d="M38 655v65h446v-65h-446zM36 0v65h450v-65h-450zM81 345v64h360v-64h-360z" />
    <glyph glyph-name="Omicron" unicode="&#x39f;" horiz-adv-x="715" 
d="M657 362q0 -177 -83.5 -275.5t-217.5 -98.5q-132 0 -214.5 96.5t-82.5 273.5q0 178 83.5 276t217.5 98q132 0 214.5 -97t82.5 -273zM586 360q0 152 -61.5 230t-166.5 78t-166.5 -78t-61.5 -230t61.5 -230t166.5 -78t166.5 78t61.5 230z" />
    <glyph glyph-name="Pi" unicode="&#x3a0;" horiz-adv-x="703" 
d="M96 0v720h511v-720h-71v655h-369v-655h-71z" />
    <glyph glyph-name="Rho" unicode="&#x3a1;" horiz-adv-x="617" 
d="M96 0v720h243q113 0 175 -52.5t62 -153.5q0 -102 -63.5 -154.5t-179.5 -52.5h-166v-307h-71zM167 655v-284h166q87 0 129.5 34.5t42.5 107.5t-42.5 107.5t-129.5 34.5h-166z" />
    <glyph glyph-name="Sigma" unicode="&#x3a3;" horiz-adv-x="560" 
d="M49 0v54l254 310l-232 301v55h454v-65h-362l224 -290l-246 -301h387v-64h-479z" />
    <glyph glyph-name="Tau" unicode="&#x3a4;" horiz-adv-x="561" 
d="M245 0v655h-214v65h499v-65h-214v-655h-71z" />
    <glyph glyph-name="Upsilon" unicode="&#x3a5;" horiz-adv-x="603" 
d="M266 0v309l-240 411h79l197 -341l198 341h77l-240 -411v-309h-71z" />
    <glyph glyph-name="Phi" unicode="&#x3a6;" horiz-adv-x="790" 
d="M360 -12v83q-137 9 -219 83t-82 204t82 206t219 85v83h70v-83q136 -9 218.5 -83t82.5 -204q0 -131 -82.5 -206.5t-218.5 -84.5v-83h-70zM661 359q0 106 -61.5 164t-169.5 66v-460q107 8 169 66t62 164zM129 359q0 -106 61.5 -164t169.5 -66v460q-108 -8 -169.5 -66
t-61.5 -164z" />
    <glyph glyph-name="Chi" unicode="&#x3a7;" horiz-adv-x="625" 
d="M33 0l234 371l-219 349h81l184 -297l183 297h80l-220 -349l234 -371h-81l-199 319l-197 -319h-80z" />
    <glyph glyph-name="Psi" unicode="&#x3a8;" horiz-adv-x="776" 
d="M353 0v250q-151 7 -222.5 74t-71.5 201v195h70v-192q0 -106 53.5 -158t170.5 -58v408h70v-408q119 6 172.5 58t53.5 158v192h68v-192q0 -135 -72 -202.5t-222 -75.5v-250h-70z" />
    <glyph glyph-name="uni03A9" unicode="&#x3a9;" horiz-adv-x="716" 
d="M359 732q131 0 214.5 -91.5t83.5 -246.5q0 -203 -154 -330h184v-64h-267v55q84 69 125 149.5t41 183.5q0 132 -62 206t-166 74t-166 -74t-62 -206q0 -103 41 -183.5t125 -149.5v-55h-267v64h183q-153 127 -153 325q0 157 84 250t216 93z" />
    <glyph glyph-name="Iotadieresis" unicode="&#x3aa;" horiz-adv-x="281" 
d="M105 0v720h71v-720h-71zM5 825q0 18 12 30.5t31 12.5t31 -12.5t12 -30.5t-12 -30.5t-31 -12.5t-31 12.5t-12 30.5zM191 825q0 18 12 30.5t31 12.5t31 -12.5t12 -30.5t-12 -30.5t-31 -12.5t-31 12.5t-12 30.5z" />
    <glyph glyph-name="Upsilondieresis" unicode="&#x3ab;" horiz-adv-x="603" 
d="M266 0v309l-240 411h79l197 -341l198 341h77l-240 -411v-309h-71zM165 825q0 18 12 30.5t31 12.5t31 -12.5t12 -30.5t-12 -30.5t-31 -12.5t-31 12.5t-12 30.5zM351 825q0 18 12 30.5t31 12.5t31 -12.5t12 -30.5t-12 -30.5t-31 -12.5t-31 12.5t-12 30.5z" />
    <glyph glyph-name="alphatonos" unicode="&#x3ac;" horiz-adv-x="661" 
d="M542 510h70q-64 -146 -114 -247l112 -263h-73l-78 190q-63 -116 -112.5 -159t-110.5 -43q-85 0 -135.5 65t-50.5 183q0 132 61 209t153 77q59 0 103.5 -42t96.5 -149zM242 47q44 0 85.5 44.5t103.5 167.5q-52 119 -87.5 160.5t-81.5 41.5q-64 0 -103.5 -59t-39.5 -160
q0 -93 33.5 -144t89.5 -51zM303 574h-52l56 146h80z" />
    <glyph glyph-name="epsilontonos" unicode="&#x3ad;" horiz-adv-x="463" 
d="M419 474l-21 -61q-78 51 -147 51q-53 0 -84.5 -24t-31.5 -63t31.5 -62.5t84.5 -23.5h81v-57h-73q-62 0 -101 -24t-39 -71q0 -46 36.5 -70t94.5 -24q74 0 152 50l21 -55q-84 -52 -182 -52q-82 0 -136.5 36t-54.5 105q0 49 28.5 82.5t79.5 48.5q-92 29 -92 115
q0 65 50.5 106t136.5 41q88 0 166 -48zM251 574h-52l56 146h80z" />
    <glyph glyph-name="etatonos" unicode="&#x3ae;" horiz-adv-x="567" 
d="M80 0v510h69v-79q91 91 204 91q63 0 101 -33.5t38 -108.5v-590h-69v576q0 94 -89 94t-185 -90v-370h-69zM295 574h-52l56 146h80z" />
    <glyph glyph-name="iotatonos" unicode="&#x3af;" horiz-adv-x="275" 
d="M80 106v404h69v-391q0 -39 12.5 -53t41.5 -14q24 0 50 7v-59q-24 -6 -60 -6q-58 0 -85.5 25.5t-27.5 86.5zM125 574h-52l56 146h80z" />
    <glyph glyph-name="upsilondieresistonos" unicode="&#x3b0;" horiz-adv-x="559" 
d="M374 510h73q53 -96 53 -238q0 -147 -61.5 -215.5t-163.5 -68.5q-91 0 -145 52t-54 157v313h69v-313q0 -76 35.5 -113t94.5 -37q71 0 113.5 53.5t42.5 173.5q0 142 -57 236zM298 670h-52l37 105h76zM136 615q0 18 12 30.5t31 12.5t31 -12.5t12 -30.5t-12 -30.5t-31 -12.5
t-31 12.5t-12 30.5zM322 615q0 18 12 30.5t31 12.5t31 -12.5t12 -30.5t-12 -30.5t-31 -12.5t-31 12.5t-12 30.5z" />
    <glyph glyph-name="alpha" unicode="&#x3b1;" horiz-adv-x="661" 
d="M542 510h70q-64 -146 -114 -247l112 -263h-73l-78 190q-63 -116 -112.5 -159t-110.5 -43q-85 0 -135.5 65t-50.5 183q0 132 61 209t153 77q59 0 103.5 -42t96.5 -149zM242 47q44 0 85.5 44.5t103.5 167.5q-52 119 -87.5 160.5t-81.5 41.5q-64 0 -103.5 -59t-39.5 -160
q0 -93 33.5 -144t89.5 -51z" />
    <glyph glyph-name="beta" unicode="&#x3b2;" horiz-adv-x="576" 
d="M149 48v-258h-69v724q0 107 58 162.5t150 55.5q84 0 137.5 -46t53.5 -130q0 -117 -122 -162q170 -48 170 -209q0 -94 -58 -145.5t-151 -51.5q-96 0 -169 60zM244 362v59q76 0 121.5 31t45.5 100q0 60 -34.5 91t-89.5 31q-61 0 -99.5 -38t-38.5 -115v-409q76 -65 166 -65
q66 0 104.5 35.5t38.5 104.5q0 85 -57.5 130t-156.5 45z" />
    <glyph glyph-name="gamma" unicode="&#x3b3;" horiz-adv-x="498" 
d="M398 477q0 21 -3 33h69q2 -26 2 -39q0 -111 -63 -252t-116 -219v-211h-69v127q0 129 -63.5 308t-129.5 286h75q54 -85 99 -210t60 -222q139 242 139 399z" />
    <glyph glyph-name="delta" unicode="&#x3b4;" horiz-adv-x="562" 
d="M470 673l-20 -60q-89 61 -160 61q-41 0 -65 -16.5t-24 -43.5q0 -29 32 -58t77.5 -59t91.5 -66.5t78 -94t32 -127.5q0 -104 -64.5 -162.5t-167.5 -58.5q-102 0 -166 58t-64 163q0 177 202 250q-57 38 -88 74t-31 80q0 53 45 86t115 33q91 0 177 -59zM444 208q0 69 -35 115
t-107 99q-34 -12 -60 -25.5t-57 -38t-48.5 -62.5t-17.5 -87q0 -79 44.5 -121t117.5 -42t118 42t45 120z" />
    <glyph glyph-name="epsilon" unicode="&#x3b5;" horiz-adv-x="463" 
d="M419 474l-21 -61q-78 51 -147 51q-53 0 -84.5 -24t-31.5 -63t31.5 -62.5t84.5 -23.5h81v-57h-73q-62 0 -101 -24t-39 -71q0 -46 36.5 -70t94.5 -24q74 0 152 50l21 -55q-84 -52 -182 -52q-82 0 -136.5 36t-54.5 105q0 49 28.5 82.5t79.5 48.5q-92 29 -92 115
q0 65 50.5 106t136.5 41q88 0 166 -48z" />
    <glyph glyph-name="zeta" unicode="&#x3b6;" horiz-adv-x="459" 
d="M68 661v59h340v-49q-289 -285 -289 -469q0 -60 31.5 -92t76.5 -42t90 -17t76.5 -30t31.5 -68q0 -50 -45 -115l-50 22q36 51 36 78q0 30 -32.5 44.5t-79 22t-93 21.5t-79 55.5t-32.5 110.5q0 109 72 221.5t201 250.5q-45 -3 -107 -3h-148z" />
    <glyph glyph-name="eta" unicode="&#x3b7;" horiz-adv-x="567" 
d="M80 0v510h69v-79q91 91 204 91q63 0 101 -33.5t38 -108.5v-590h-69v576q0 94 -89 94t-185 -90v-370h-69z" />
    <glyph glyph-name="theta" unicode="&#x3b8;" horiz-adv-x="546" 
d="M273 46q151 0 155 300h-310q4 -300 155 -300zM273 674q-143 0 -154 -268h308q-11 268 -154 268zM496 362q0 -185 -61 -279.5t-164 -94.5q-101 0 -161 93t-60 277q0 185 61 279.5t164 94.5q101 0 161 -93t60 -277z" />
    <glyph glyph-name="iota" unicode="&#x3b9;" horiz-adv-x="275" 
d="M80 106v404h69v-391q0 -39 12.5 -53t41.5 -14q24 0 50 7v-59q-24 -6 -60 -6q-58 0 -85.5 25.5t-27.5 86.5z" />
    <glyph glyph-name="kappa" unicode="&#x3ba;" horiz-adv-x="524" 
d="M419 0l-189 285l-81 -85v-200h-69v510h69v-233l67.5 76l51.5 56t46 45l36.5 28.5t38.5 21.5t36 8t45 4v-59q-48 0 -83 -23.5t-112 -102.5l220 -331h-76z" />
    <glyph glyph-name="lambda" unicode="&#x3bb;" horiz-adv-x="520" 
d="M87 662v58q17 7 54 7q47 0 73 -20.5t43 -71.5l183 -530q11 -30 22 -41t32 -11q15 0 26 4v-58q-13 -5 -41 -5q-41 0 -62.5 19t-39.5 71l-121 344l-174 -428h-70l203 486h22l-43 128q-10 31 -25 42.5t-40 11.5q-20 0 -42 -6z" />
    <glyph glyph-name="uni03BC" unicode="&#x3bc;" horiz-adv-x="572" 
d="M148 -210h-68v720h69v-368q0 -94 89 -94t185 90v372h69v-510h-69v79q-38 -38 -91.5 -64.5t-107.5 -26.5q-50 0 -84 21q8 -99 8 -219z" />
    <glyph glyph-name="nu" unicode="&#x3bd;" horiz-adv-x="505" 
d="M216 0l-191 510h73l160 -434q140 242 140 397q0 20 -3 37h69q3 -16 3 -36q0 -111 -63.5 -254t-116.5 -220h-71z" />
    <glyph glyph-name="xi" unicode="&#x3be;" horiz-adv-x="459" 
d="M366 348h-26q-221 0 -221 -156q0 -57 31.5 -86.5t76.5 -38t90 -15.5t76.5 -30t31.5 -69q0 -50 -45 -115l-50 22q36 51 36 79q0 26 -23.5 40.5t-58.5 19t-76 14.5t-76 24.5t-58.5 52t-23.5 94.5q0 142 150 191q-128 38 -128 149q0 92 86.5 144t223.5 52v-59
q-112 0 -176.5 -34.5t-64.5 -102.5q0 -57 45 -87t128 -30h52v-59z" />
    <glyph glyph-name="omicron" unicode="&#x3bf;" horiz-adv-x="554" 
d="M119 255q0 -106 43.5 -157.5t114.5 -51.5t114.5 51.5t43.5 157.5t-43.5 157.5t-114.5 51.5t-114.5 -51.5t-43.5 -157.5zM504 257q0 -131 -64.5 -200t-164.5 -69q-98 0 -161.5 67t-63.5 198q0 132 65 200.5t164 68.5q98 0 161.5 -67.5t63.5 -197.5z" />
    <glyph glyph-name="pi" unicode="&#x3c0;" horiz-adv-x="636" 
d="M26 451v59h569v-59h-92v-335q0 -38 10.5 -51t35.5 -13q23 0 46 7v-59q-23 -6 -57 -6q-53 0 -78.5 25t-25.5 84v348h-247q0 -259 -16 -451h-71q18 183 18 451h-92z" />
    <glyph glyph-name="rho" unicode="&#x3c1;" horiz-adv-x="566" 
d="M296 -12q-84 0 -151 54v-252h-69v486q0 120 60.5 183t156.5 63q98 0 160.5 -67t62.5 -196q0 -128 -61.5 -199.5t-158.5 -71.5zM145 287v-182q66 -58 145 -58q73 0 115 52.5t42 154.5q0 104 -42.5 155.5t-113.5 51.5q-65 0 -105.5 -43t-40.5 -131z" />
    <glyph glyph-name="sigma1" unicode="&#x3c2;" horiz-adv-x="459" 
d="M380 -162l-50 22q36 51 36 79q0 23 -17.5 36.5t-45.5 19.5t-61.5 11.5t-67 18t-61.5 33.5t-45.5 63t-17.5 101q0 145 96 219.5t252 74.5v-59q-129 0 -204 -57.5t-75 -171.5q0 -71 31.5 -109.5t76.5 -49t90 -17t76.5 -29t31.5 -69.5q0 -51 -45 -116z" />
    <glyph glyph-name="sigma" unicode="&#x3c3;" horiz-adv-x="567" 
d="M534 510v-59h-138q108 -86 108 -220q0 -115 -64.5 -179t-161.5 -64q-99 0 -163.5 67.5t-64.5 188.5q0 132 77.5 199t203.5 67h203zM435 232q0 139 -117 219q-199 -10 -199 -205q0 -97 44.5 -149t115.5 -52q68 0 112 47.5t44 139.5z" />
    <glyph glyph-name="tau" unicode="&#x3c4;" horiz-adv-x="450" 
d="M26 451v59h398v-59h-170v-332q0 -39 12.5 -53t41.5 -14q24 0 50 7v-59q-24 -6 -60 -6q-58 0 -85.5 25.5t-27.5 86.5v345h-159z" />
    <glyph glyph-name="upsilon" unicode="&#x3c5;" horiz-adv-x="559" 
d="M374 510h73q53 -96 53 -238q0 -147 -61.5 -215.5t-163.5 -68.5q-91 0 -145 52t-54 157v313h69v-313q0 -76 35.5 -113t94.5 -37q71 0 113.5 53.5t42.5 173.5q0 142 -57 236z" />
    <glyph glyph-name="phi" unicode="&#x3c6;" horiz-adv-x="688" 
d="M638 266q0 -255 -263 -278v-198h-67v199q-117 9 -187.5 76t-70.5 190q0 155 113 261l59 -24q-104 -98 -104 -235q0 -99 51.5 -150.5t138.5 -60.5v314q0 80 40.5 121t103.5 41q84 0 135 -69.5t51 -186.5zM375 362v-317q97 11 146 63t49 158q0 89 -32.5 142.5t-84.5 53.5
q-34 0 -56 -24.5t-22 -75.5z" />
    <glyph glyph-name="chi" unicode="&#x3c7;" horiz-adv-x="532" 
d="M260 114l-173 -324h-72l209 381l-108 232q-15 32 -27.5 43t-33.5 11q-16 0 -27 -4v58q15 5 41 5q41 0 62.5 -18t43.5 -67l90 -204l1 1l150 282h72l-186 -339l127 -274q15 -31 28.5 -42.5t34.5 -11.5q16 0 28 4v-58q-17 -5 -43 -5q-40 0 -62 18t-44 67z" />
    <glyph glyph-name="psi" unicode="&#x3c8;" horiz-adv-x="703" 
d="M321 -210v199q-112 6 -179 67t-67 178v276h67v-276q0 -91 49 -137t130 -52v675h68v-674q91 11 138.5 62.5t47.5 166.5q0 138 -55 235h71q51 -98 51 -236q0 -140 -65.5 -207t-187.5 -77v-200h-68z" />
    <glyph glyph-name="omega" unicode="&#x3c9;" horiz-adv-x="709" 
d="M494 510h73q92 -113 92 -278q0 -120 -49 -182t-126 -62q-89 0 -130 99q-39 -99 -130 -99q-76 0 -125 61.5t-49 181.5q0 166 92 279h73q-98 -112 -98 -279q0 -93 31 -138.5t80 -45.5q92 0 92 141v134h69v-134q0 -141 92 -141q49 0 80 45.5t31 138.5q0 167 -98 279z" />
    <glyph glyph-name="iotadieresis" unicode="&#x3ca;" horiz-adv-x="275" 
d="M80 106v404h69v-391q0 -39 12.5 -53t41.5 -14q24 0 50 7v-59q-24 -6 -60 -6q-58 0 -85.5 25.5t-27.5 86.5zM-21 622q0 18 12 30.5t31 12.5t31 -12.5t12 -30.5t-12 -30.5t-31 -12.5t-31 12.5t-12 30.5zM165 622q0 18 12 30.5t31 12.5t31 -12.5t12 -30.5t-12 -30.5
t-31 -12.5t-31 12.5t-12 30.5z" />
    <glyph glyph-name="upsilondieresis" unicode="&#x3cb;" horiz-adv-x="559" 
d="M374 510h73q53 -96 53 -238q0 -147 -61.5 -215.5t-163.5 -68.5q-91 0 -145 52t-54 157v313h69v-313q0 -76 35.5 -113t94.5 -37q71 0 113.5 53.5t42.5 173.5q0 142 -57 236zM136 622q0 18 12 30.5t31 12.5t31 -12.5t12 -30.5t-12 -30.5t-31 -12.5t-31 12.5t-12 30.5z
M322 622q0 18 12 30.5t31 12.5t31 -12.5t12 -30.5t-12 -30.5t-31 -12.5t-31 12.5t-12 30.5z" />
    <glyph glyph-name="omicrontonos" unicode="&#x3cc;" horiz-adv-x="554" 
d="M119 255q0 -106 43.5 -157.5t114.5 -51.5t114.5 51.5t43.5 157.5t-43.5 157.5t-114.5 51.5t-114.5 -51.5t-43.5 -157.5zM504 257q0 -131 -64.5 -200t-164.5 -69q-98 0 -161.5 67t-63.5 198q0 132 65 200.5t164 68.5q98 0 161.5 -67.5t63.5 -197.5zM286 574h-52l56 146h80
z" />
    <glyph glyph-name="upsilontonos" unicode="&#x3cd;" horiz-adv-x="559" 
d="M374 510h73q53 -96 53 -238q0 -147 -61.5 -215.5t-163.5 -68.5q-91 0 -145 52t-54 157v313h69v-313q0 -76 35.5 -113t94.5 -37q71 0 113.5 53.5t42.5 173.5q0 142 -57 236zM282 574h-52l56 146h80z" />
    <glyph glyph-name="omegatonos" unicode="&#x3ce;" horiz-adv-x="709" 
d="M494 510h73q92 -113 92 -278q0 -120 -49 -182t-126 -62q-89 0 -130 99q-39 -99 -130 -99q-76 0 -125 61.5t-49 181.5q0 166 92 279h73q-98 -112 -98 -279q0 -93 31 -138.5t80 -45.5q92 0 92 141v134h69v-134q0 -141 92 -141q49 0 80 45.5t31 138.5q0 167 -98 279z
M368 574h-52l56 146h80z" />
    <glyph glyph-name="uni0400" unicode="&#x400;" horiz-adv-x="588" 
d="M96 0v720h438v-65h-367v-249h323v-63h-323v-279h369v-64h-440zM374 783h-56l-125 125h85z" />
    <glyph glyph-name="afii10023" unicode="&#x401;" horiz-adv-x="588" 
d="M96 0v720h438v-65h-367v-249h323v-63h-323v-279h369v-64h-440zM179 825q0 18 12 30.5t31 12.5t31 -12.5t12 -30.5t-12 -30.5t-31 -12.5t-31 12.5t-12 30.5zM365 825q0 18 12 30.5t31 12.5t31 -12.5t12 -30.5t-12 -30.5t-31 -12.5t-31 12.5t-12 30.5z" />
    <glyph glyph-name="afii10051" unicode="&#x402;" horiz-adv-x="777" 
d="M31 655v65h499v-65h-225v-236q100 33 190 33q108 0 165 -57t57 -171t-57.5 -172t-164.5 -58q-40 0 -70 5v65q32 -7 70 -7q151 0 151 167q0 86 -39.5 124.5t-124.5 38.5q-81 0 -177 -31v-356h-71v655h-203z" />
    <glyph glyph-name="afii10052" unicode="&#x403;" horiz-adv-x="530" 
d="M96 0v720h403v-65h-332v-655h-71zM303 783h-56l96 125h85z" />
    <glyph glyph-name="afii10053" unicode="&#x404;" horiz-adv-x="607" 
d="M534 118l24 -61q-90 -69 -203 -69q-133 0 -214.5 95t-81.5 271q0 180 85 279t223 99q106 0 188 -63l-23 -67q-86 66 -170 66q-98 0 -160.5 -69t-70.5 -201h332v-63h-333q5 -140 67.5 -212t163.5 -72q89 0 173 67z" />
    <glyph glyph-name="afii10054" unicode="&#x405;" horiz-adv-x="579" 
d="M59 56l24 65q102 -70 201 -70q76 0 120.5 38t44.5 102q0 48 -27.5 80t-68 46.5l-88.5 31.5t-88.5 34.5t-68 56t-27.5 95.5q0 90 61.5 143.5t160.5 53.5q109 0 198 -66l-23 -67q-91 69 -179 69q-68 0 -107.5 -33.5t-39.5 -90.5q0 -39 20.5 -66t53 -41.5t71.5 -26.5
t78 -26.5t71.5 -35t53 -58t20.5 -89.5q0 -98 -65.5 -155.5t-173.5 -57.5q-120 0 -222 68z" />
    <glyph glyph-name="afii10055" unicode="&#x406;" horiz-adv-x="281" 
d="M105 0v720h71v-720h-71z" />
    <glyph glyph-name="afii10056" unicode="&#x407;" horiz-adv-x="281" 
d="M105 0v720h71v-720h-71zM5 825q0 18 12 30.5t31 12.5t31 -12.5t12 -30.5t-12 -30.5t-31 -12.5t-31 12.5t-12 30.5zM191 825q0 18 12 30.5t31 12.5t31 -12.5t12 -30.5t-12 -30.5t-31 -12.5t-31 12.5t-12 30.5z" />
    <glyph glyph-name="afii10057" unicode="&#x408;" horiz-adv-x="405" 
d="M31 3v66q41 -11 88 -11q71 0 99 36t28 110v516h71v-516q0 -106 -45 -158t-148 -52q-52 0 -93 9z" />
    <glyph glyph-name="afii10058" unicode="&#x409;" horiz-adv-x="1040" 
d="M757 0h-239v655h-259l-20 -312q-5 -78 -13 -130.5t-22.5 -97t-37 -69.5t-56 -38.5t-80.5 -13.5q-16 0 -30 2v64q10 -2 25 -2q76 0 105 63.5t39 228.5l24 370h396v-314h173q113 0 174.5 -51.5t61.5 -151.5q0 -101 -63 -152t-178 -51zM589 62h168q86 0 128 34t42 107
q0 72 -42 106t-128 34h-168v-281z" />
    <glyph glyph-name="afii10059" unicode="&#x40a;" horiz-adv-x="1037" 
d="M753 0h-238v343h-349v-343h-70v720h70v-313h349v313h71v-313h173q113 0 174.5 -51.5t61.5 -152.5q0 -100 -63 -151.5t-179 -51.5zM586 62h167q86 0 128.5 34t42.5 107q0 72 -42.5 106t-128.5 34h-167v-281z" />
    <glyph glyph-name="afii10060" unicode="&#x40b;" horiz-adv-x="777" 
d="M31 655v65h499v-65h-225v-236q102 33 192 33q105 0 162.5 -47.5t57.5 -157.5v-247h-71v236q0 151 -164 151q-81 0 -177 -31v-356h-71v655h-203z" />
    <glyph glyph-name="afii10061" unicode="&#x40c;" horiz-adv-x="643" 
d="M96 0v720h71v-316h73q47 0 68.5 16t42.5 58l57 116q37 75 72.5 103.5t110.5 28.5v-63q-47 0 -68.5 -16t-42.5 -58l-57 -115q-20 -40 -39.5 -63t-50.5 -36q53 -15 87.5 -49t71.5 -100l129 -226h-80l-117 205q-44 77 -80.5 107t-101.5 30h-75v-342h-71zM329 783h-56l96 125
h85z" />
    <glyph glyph-name="uni040D" unicode="&#x40d;" horiz-adv-x="709" 
d="M413 783h-56l-125 125h85zM613 720v-720h-68v594l-384 -594h-65v720h68v-594l384 594h65z" />
    <glyph glyph-name="afii10062" unicode="&#x40e;" horiz-adv-x="603" 
d="M253 243l-227 477h77l199 -422l199 422h76l-228 -477q-70 -145 -121.5 -197t-134.5 -52q-30 0 -55 4v66q26 -6 55 -6q56 0 90.5 34t92.5 151h-23zM301 829q87 0 87 79h56q0 -125 -143 -125t-143 125h56q0 -79 87 -79z" />
    <glyph glyph-name="afii10145" unicode="&#x40f;" horiz-adv-x="703" 
d="M607 720v-720h-221v-154h-69v154h-221v720h71v-656h369v656h71z" />
    <glyph glyph-name="afii10017" unicode="&#x410;" horiz-adv-x="673" 
d="M380 720l257 -720h-75l-72 206h-309l-72 -206h-73l261 720h83zM337 646l-134 -379h266z" />
    <glyph glyph-name="afii10018" unicode="&#x411;" horiz-adv-x="617" 
d="M335 0h-239v720h416v-65h-345v-249h173q113 0 174.5 -51.5t61.5 -151.5q0 -101 -63 -152t-178 -51zM167 62h168q86 0 128 34t42 107q0 72 -42 106t-128 34h-168v-281z" />
    <glyph glyph-name="afii10019" unicode="&#x412;" horiz-adv-x="643" 
d="M96 0v720h223q111 0 172 -47t61 -139q0 -123 -111 -163q141 -35 141 -178q0 -92 -62.5 -142.5t-184.5 -50.5h-239zM166 61h169q177 0 177 138t-177 138h-169v-276zM166 396h148q168 0 168 131q0 68 -41.5 99.5t-126.5 31.5h-148v-262z" />
    <glyph glyph-name="afii10020" unicode="&#x413;" horiz-adv-x="530" 
d="M96 0v720h403v-65h-332v-655h-71z" />
    <glyph glyph-name="afii10021" unicode="&#x414;" horiz-adv-x="724" 
d="M36 -154v216h38q127 127 143 431l12 227h398v-658h55v-216h-68v154h-510v-154h-68zM295 654l-8 -161q-15 -300 -130 -429h399v590h-261z" />
    <glyph glyph-name="afii10022" unicode="&#x415;" horiz-adv-x="588" 
d="M96 0v720h438v-65h-367v-249h323v-63h-323v-279h369v-64h-440z" />
    <glyph glyph-name="afii10024" unicode="&#x416;" horiz-adv-x="971" 
d="M450 0v342h-51q-65 0 -101.5 -30t-80.5 -107l-117 -205h-78l129 226q37 65 71 99.5t87 49.5q-32 13 -52 36t-39 63l-57 115q-21 42 -42.5 58t-66.5 16v63q75 0 110.5 -28.5t72.5 -103.5l57 -116q21 -42 42.5 -58t68.5 -16h47v316h71v-316h47q47 0 68.5 16t42.5 58l57 116
q37 75 72.5 103.5t110.5 28.5v-63q-47 0 -68.5 -16t-42.5 -58l-57 -115q-20 -40 -39.5 -63t-50.5 -36q53 -15 87.5 -49t71.5 -100l129 -226h-80l-117 205q-44 77 -80.5 107t-101.5 30h-49v-342h-71z" />
    <glyph glyph-name="afii10025" unicode="&#x417;" horiz-adv-x="559" 
d="M170 405h69q78 0 128.5 33t50.5 101q0 63 -42 96t-107 33q-92 0 -183 -71l-24 61q97 74 213 74q91 0 152.5 -48.5t61.5 -135.5q0 -65 -36.5 -109t-101.5 -64q72 -21 110 -69t38 -115q0 -91 -66.5 -147t-178.5 -56q-123 0 -222 63l24 65q102 -65 200 -65q81 0 126.5 38.5
t45.5 105.5q0 70 -52 109t-145 39h-61v62z" />
    <glyph glyph-name="afii10026" unicode="&#x418;" horiz-adv-x="709" 
d="M613 720v-720h-68v594l-384 -594h-65v720h68v-594l384 594h65z" />
    <glyph glyph-name="afii10027" unicode="&#x419;" horiz-adv-x="709" 
d="M613 720v-720h-68v594l-384 -594h-65v720h68v-594l384 594h65zM354 829q87 0 87 79h56q0 -125 -143 -125t-143 125h56q0 -79 87 -79z" />
    <glyph glyph-name="afii10028" unicode="&#x41a;" horiz-adv-x="643" 
d="M96 0v720h71v-316h73q47 0 68.5 16t42.5 58l57 116q37 75 72.5 103.5t110.5 28.5v-63q-47 0 -68.5 -16t-42.5 -58l-57 -115q-20 -40 -39.5 -63t-50.5 -36q53 -15 87.5 -49t71.5 -100l129 -226h-80l-117 205q-44 77 -80.5 107t-101.5 30h-75v-342h-71z" />
    <glyph glyph-name="afii10029" unicode="&#x41b;" horiz-adv-x="706" 
d="M30 -6q-18 0 -30 2v64q10 -2 25 -2q76 0 105 64t39 228l24 370h417v-720h-71v655h-280l-20 -312q-13 -194 -54.5 -271.5t-154.5 -77.5z" />
    <glyph glyph-name="afii10030" unicode="&#x41c;" horiz-adv-x="907" 
d="M681 720h93l55 -720h-73l-29 451q-7 105 -9 191h-2q-7 -41 -60 -185l-171 -457h-66l-168 457q-53 145 -60 185h-2q0 -52 -9 -183l-32 -459h-70l59 720h94l161 -450q39 -108 60 -182h2q18 61 61 178z" />
    <glyph glyph-name="afii10031" unicode="&#x41d;" horiz-adv-x="703" 
d="M96 0v720h71v-312h369v312h71v-720h-71v343h-369v-343h-71z" />
    <glyph glyph-name="afii10032" unicode="&#x41e;" horiz-adv-x="716" 
d="M657 362q0 -177 -83.5 -275.5t-217.5 -98.5q-132 0 -214.5 96.5t-82.5 273.5q0 178 83.5 276t217.5 98q132 0 214.5 -97t82.5 -273zM586 360q0 152 -61.5 230t-166.5 78t-166.5 -78t-61.5 -230t61.5 -230t166.5 -78t166.5 78t61.5 230z" />
    <glyph glyph-name="afii10033" unicode="&#x41f;" horiz-adv-x="703" 
d="M96 0v720h511v-720h-71v655h-369v-655h-71z" />
    <glyph glyph-name="afii10034" unicode="&#x420;" horiz-adv-x="617" 
d="M96 0v720h243q113 0 175 -52.5t62 -153.5q0 -102 -63.5 -154.5t-179.5 -52.5h-166v-307h-71zM167 655v-284h166q87 0 129.5 34.5t42.5 107.5t-42.5 107.5t-129.5 34.5h-166z" />
    <glyph glyph-name="afii10035" unicode="&#x421;" horiz-adv-x="607" 
d="M534 118l24 -61q-90 -69 -203 -69q-133 0 -214.5 95t-81.5 271q0 180 85 279t223 99q106 0 188 -63l-23 -67q-86 66 -170 66q-106 0 -169 -79.5t-63 -230.5q0 -150 63 -228.5t168 -78.5q89 0 173 67z" />
    <glyph glyph-name="afii10036" unicode="&#x422;" horiz-adv-x="561" 
d="M245 0v655h-214v65h499v-65h-214v-655h-71z" />
    <glyph glyph-name="afii10037" unicode="&#x423;" horiz-adv-x="603" 
d="M253 243l-227 477h77l199 -422l199 422h76l-228 -477q-70 -145 -121.5 -197t-134.5 -52q-30 0 -55 4v66q26 -6 55 -6q56 0 90.5 34t92.5 151h-23z" />
    <glyph glyph-name="afii10038" unicode="&#x424;" horiz-adv-x="790" 
d="M360 -12v83q-137 9 -219 83t-82 204t82 206t219 85v83h70v-83q136 -9 218.5 -83t82.5 -204q0 -131 -82.5 -206.5t-218.5 -84.5v-83h-70zM661 359q0 106 -61.5 164t-169.5 66v-460q107 8 169 66t62 164zM129 359q0 -106 61.5 -164t169.5 -66v460q-108 -8 -169.5 -66
t-61.5 -164z" />
    <glyph glyph-name="afii10039" unicode="&#x425;" horiz-adv-x="625" 
d="M33 0l234 371l-219 349h81l184 -297l183 297h80l-220 -349l234 -371h-81l-199 319l-197 -319h-80z" />
    <glyph glyph-name="afii10040" unicode="&#x426;" horiz-adv-x="712" 
d="M607 720v-658h55v-216h-68v154h-498v720h71v-656h369v656h71z" />
    <glyph glyph-name="afii10041" unicode="&#x427;" horiz-adv-x="639" 
d="M295 360q81 0 177 31v329h71v-720h-71v330q-102 -33 -192 -33q-105 0 -162.5 47.5t-57.5 157.5v218h71v-209q0 -151 164 -151z" />
    <glyph glyph-name="afii10042" unicode="&#x428;" horiz-adv-x="1063" 
d="M967 720v-720h-871v720h71v-656h329v656h71v-656h329v656h71z" />
    <glyph glyph-name="afii10043" unicode="&#x429;" horiz-adv-x="1074" 
d="M967 720v-658h55v-216h-68v154h-859v720h71v-656h329v656h71v-656h330v656h71z" />
    <glyph glyph-name="afii10044" unicode="&#x42a;" horiz-adv-x="755" 
d="M473 0h-239v655h-203v65h274v-314h173q113 0 174.5 -51.5t61.5 -151.5q0 -101 -63 -152t-178 -51zM305 62h168q86 0 128 34t42 107q0 72 -42 106t-128 34h-168v-281z" />
    <glyph glyph-name="afii10045" unicode="&#x42b;" horiz-adv-x="848" 
d="M682 0v720h70v-720h-70zM335 0h-239v720h71v-314h173q113 0 174.5 -51.5t61.5 -151.5q0 -101 -63 -152t-178 -51zM167 62h168q86 0 128 34t42 107q0 72 -42 106t-128 34h-168v-281z" />
    <glyph glyph-name="afii10046" unicode="&#x42c;" horiz-adv-x="617" 
d="M335 0h-239v720h71v-314h173q113 0 174.5 -51.5t61.5 -151.5q0 -101 -63 -152t-178 -51zM167 62h168q86 0 128 34t42 107q0 72 -42 106t-128 34h-168v-281z" />
    <glyph glyph-name="afii10047" unicode="&#x42d;" horiz-adv-x="607" 
d="M144 335v63h332q-8 132 -69 201t-156 69q-84 0 -168 -67l-24 62q90 69 198 69q130 0 210.5 -95.5t80.5 -271.5q0 -181 -85 -279t-224 -98q-109 0 -191 63l23 66q86 -66 171 -66q102 0 165 72.5t69 211.5h-332z" />
    <glyph glyph-name="afii10048" unicode="&#x42e;" horiz-adv-x="937" 
d="M600 -12q-119 0 -193.5 93t-77.5 262h-162v-343h-71v720h71v-312h164q11 155 86 239.5t188 84.5q121 0 196 -97t75 -273q0 -178 -76.5 -276t-199.5 -98zM602 52q94 0 148.5 78t54.5 230t-54.5 230t-148.5 78t-148.5 -78t-54.5 -230t54.5 -230t148.5 -78z" />
    <glyph glyph-name="afii10049" unicode="&#x42f;" horiz-adv-x="670" 
d="M504 329h-163l-201 -329h-79l204 334q-166 29 -166 188q0 97 62.5 147.5t176.5 50.5h237v-720h-71v329zM338 388h166v267h-166q-85 0 -126.5 -32t-41.5 -101q0 -70 41.5 -102t126.5 -32z" />
    <glyph glyph-name="afii10065" unicode="&#x430;" horiz-adv-x="521" 
d="M270 463q-78 0 -171 -55l-20 56q96 58 201 58q81 0 123.5 -39.5t42.5 -128.5v-238q0 -90 10 -116h-65q-9 16 -12 66q-75 -78 -174 -78q-70 0 -112.5 40.5t-42.5 114.5q0 169 239 169q41 0 89 -7v43q0 62 -26.5 88.5t-81.5 26.5zM378 124v129q-53 8 -90 8
q-91 0 -130.5 -27.5t-39.5 -85.5q0 -50 27 -76t73 -26q82 0 160 78z" />
    <glyph glyph-name="afii10066" unicode="&#x431;" horiz-adv-x="554" 
d="M285 447q-86 0 -167 -86v-8q0 -308 166 -308q67 0 108.5 50t41.5 151q0 99 -40 150t-109 51zM326 660q-93 -1 -144 -57.5t-63 -177.5q80 83 180 83q91 0 147.5 -67.5t56.5 -189.5q0 -129 -62.5 -196t-157.5 -67q-108 0 -171 90t-63 270q0 191 72.5 284.5t204.5 93.5
q97 0 125 10v-66q-30 -10 -125 -10z" />
    <glyph glyph-name="afii10067" unicode="&#x432;" horiz-adv-x="532" 
d="M80 0v510h208q82 0 127 -34t45 -100q0 -85 -77 -113q98 -27 98 -126q0 -66 -46 -101.5t-137 -35.5h-218zM148 55h144q65 0 93 22.5t28 65.5q0 44 -27.5 66.5t-93.5 22.5h-144v-177zM148 287h129q60 0 87.5 20t27.5 63t-27.5 63t-87.5 20h-129v-166z" />
    <glyph glyph-name="afii10068" unicode="&#x433;" horiz-adv-x="405" 
d="M79 510h304v-59h-235v-451h-69v510z" />
    <glyph glyph-name="afii10069" unicode="&#x434;" horiz-adv-x="612" 
d="M36 -130v185h42q54 49 84 149.5t30 305.5h319v-455h51v-185h-67v130h-392v-130h-67zM256 451q-6 -296 -98 -394h284v394h-186z" />
    <glyph glyph-name="afii10070" unicode="&#x435;" horiz-adv-x="537" 
d="M278 466q-66 0 -108.5 -45t-49.5 -127h295q0 87 -37 129.5t-100 42.5zM481 241h-361q2 -99 47 -147.5t122 -48.5q74 0 159 52l20 -55q-86 -54 -188 -54q-105 0 -167.5 67.5t-62.5 192.5q0 128 65 201t166 73q93 0 147 -63t54 -180q0 -24 -1 -38z" />
    <glyph glyph-name="afii10072" unicode="&#x436;" horiz-adv-x="767" 
d="M349 0v239h-15q-54 0 -81.5 -19t-58.5 -70l-90 -150h-75l103 171q25 42 50.5 65.5t65.5 33.5q-23 8 -35.5 21.5t-25.5 37.5l-48 85q-14 24 -29.5 33.5t-50.5 9.5v59q61 0 89.5 -20.5t58.5 -73.5l48 -85q14 -25 29.5 -34.5t53.5 -9.5h11v217h69v-217h11q38 0 53.5 9.5
t29.5 34.5l48 85q30 53 58.5 73.5t89.5 20.5v-59q-36 0 -52 -9.5t-30 -33.5l-48 -85q-26 -47 -60 -59q41 -10 66 -33t51 -66l103 -171h-77l-90 150q-31 51 -58.5 70t-81.5 19h-13v-239h-69z" />
    <glyph glyph-name="afii10073" unicode="&#x437;" horiz-adv-x="473" 
d="M423 136q0 -66 -55 -107t-147 -41q-102 0 -181 50l20 59q81 -52 162 -52q60 0 96 26t36 69q0 44 -41 69t-123 25h-41v57h51q144 0 144 86q0 42 -32 64.5t-81 22.5q-68 0 -141 -51l-20 56q78 53 168 53q75 0 125 -36t50 -102q0 -92 -99 -120q109 -32 109 -128z" />
    <glyph glyph-name="afii10074" unicode="&#x438;" horiz-adv-x="573" 
d="M493 510v-510h-65v401l-287 -401h-62v510h65v-401l287 401h62z" />
    <glyph glyph-name="afii10075" unicode="&#x439;" horiz-adv-x="573" 
d="M493 510v-510h-65v401l-287 -401h-62v510h65v-401l287 401h62zM286 627q87 0 87 93h56q0 -140 -143 -140t-143 140h56q0 -93 87 -93z" />
    <glyph glyph-name="afii10076" unicode="&#x43a;" horiz-adv-x="524" 
d="M80 0v510h69v-217h37q38 0 53.5 9.5t29.5 34.5l48 85q30 53 58.5 73.5t89.5 20.5v-59q-36 0 -52 -9.5t-30 -33.5l-48 -85q-26 -47 -60 -59q41 -10 66 -33t51 -66l103 -171h-77l-90 150q-31 51 -58.5 70t-81.5 19h-39v-239h-69z" />
    <glyph glyph-name="afii10077" unicode="&#x43b;" horiz-adv-x="573" 
d="M154 510h339v-510h-69v451h-205q-3 -112 -9 -186t-18.5 -129.5t-34 -85t-51.5 -43t-75 -13.5q-23 0 -31 2v57q6 -2 25 -2q28 0 48 10.5t33.5 36.5t21.5 59t13 88.5t7.5 113.5t5.5 146v5z" />
    <glyph glyph-name="afii10078" unicode="&#x43c;" horiz-adv-x="733" 
d="M395 0h-59l-122 298q-39 96 -49 136h-2q-3 -81 -8 -142l-25 -292h-64l48 510h83l127 -318q30 -75 42 -119h2q9 37 42 119l129 318h82l46 -510h-66l-24 290q-7 79 -9 144h-2q-10 -42 -48 -135z" />
    <glyph glyph-name="afii10079" unicode="&#x43d;" horiz-adv-x="572" 
d="M423 0v241h-275v-241h-69v510h69v-211h275v211h69v-510h-69z" />
    <glyph glyph-name="afii10080" unicode="&#x43e;" horiz-adv-x="554" 
d="M119 255q0 -106 43.5 -157.5t114.5 -51.5t114.5 51.5t43.5 157.5t-43.5 157.5t-114.5 51.5t-114.5 -51.5t-43.5 -157.5zM504 257q0 -131 -64.5 -200t-164.5 -69q-98 0 -161.5 67t-63.5 198q0 132 65 200.5t164 68.5q98 0 161.5 -67.5t63.5 -197.5z" />
    <glyph glyph-name="afii10081" unicode="&#x43f;" horiz-adv-x="557" 
d="M408 0v451h-259v-451h-69v510h397v-510h-69z" />
    <glyph glyph-name="afii10082" unicode="&#x440;" horiz-adv-x="570" 
d="M80 510h69v-74q76 86 172 86q89 0 144 -68.5t55 -194.5q0 -129 -58.5 -200t-149.5 -71q-92 0 -163 79v-277h-69v720zM307 461q-82 0 -158 -86v-248q69 -80 153 -80q69 0 109 52.5t40 154.5q0 101 -39 154t-105 53z" />
    <glyph glyph-name="afii10083" unicode="&#x441;" horiz-adv-x="468" 
d="M424 476l-20 -61q-65 48 -123 48q-73 0 -117.5 -53t-44.5 -155t44.5 -155.5t119.5 -53.5q68 0 123 47l20 -56q-61 -49 -152 -49q-102 0 -163 66.5t-61 194.5q0 132 64 202.5t168 70.5q78 0 142 -46z" />
    <glyph glyph-name="afii10084" unicode="&#x442;" horiz-adv-x="486" 
d="M25 451v59h435v-59h-183v-451h-69v451h-183z" />
    <glyph glyph-name="afii10085" unicode="&#x443;" horiz-adv-x="505" 
d="M38 -212v62q30 -6 46 -6q46 0 76.5 34t67.5 134h-24l-178 498h73l153 -441l156 441h71l-183 -498q-51 -138 -94 -183t-117 -45q-30 0 -47 4z" />
    <glyph glyph-name="afii10086" unicode="&#x444;" horiz-adv-x="718" 
d="M325 -210v199q-123 8 -199 75t-76 189q0 123 76.5 190.5t198.5 76.5v200h68v-199q122 -8 198.5 -75t76.5 -189t-76.5 -190t-198.5 -77v-200h-68zM600 255q0 97 -56.5 149t-150.5 60v-420q94 8 150.5 60.5t56.5 150.5zM118 255q0 -98 56.5 -150.5t150.5 -60.5v420
q-94 -8 -150.5 -60t-56.5 -149z" />
    <glyph glyph-name="afii10087" unicode="&#x445;" horiz-adv-x="504" 
d="M29 0l181 265l-167 245h78l131 -200l132 200h76l-167 -245l181 -265h-78l-145 220l-147 -220h-75z" />
    <glyph glyph-name="afii10088" unicode="&#x446;" horiz-adv-x="581" 
d="M148 510v-453h262v453h69v-455h51v-185h-67v130h-384v510h69z" />
    <glyph glyph-name="afii10089" unicode="&#x447;" horiz-adv-x="529" 
d="M50 510h69v-144q0 -65 31.5 -87t90.5 -22q65 0 139 21v232h69v-510h-69v223q-85 -23 -154 -23q-85 0 -130.5 35t-45.5 116v159z" />
    <glyph glyph-name="afii10090" unicode="&#x448;" horiz-adv-x="865" 
d="M467 510v-452h249v452h69v-510h-705v510h69v-452h249v452h69z" />
    <glyph glyph-name="afii10091" unicode="&#x449;" horiz-adv-x="886" 
d="M466 510v-453h250v453h69v-455h51v-185h-67v130h-690v510h69v-453h249v453h69z" />
    <glyph glyph-name="afii10092" unicode="&#x44a;" horiz-adv-x="651" 
d="M410 0h-208v451h-177v59h246v-198h144q89 0 137.5 -39.5t48.5 -116.5t-49.5 -116.5t-141.5 -39.5zM271 55h134q127 0 127 100q0 101 -127 101h-134v-201z" />
    <glyph glyph-name="afii10093" unicode="&#x44b;" horiz-adv-x="756" 
d="M607 0v510h69v-510h-69zM148 55h134q127 0 127 100q0 101 -127 101h-134v-201zM287 0h-208v510h69v-198h144q88 0 137 -39.5t49 -116.5t-49.5 -116.5t-141.5 -39.5z" />
    <glyph glyph-name="afii10094" unicode="&#x44c;" horiz-adv-x="528" 
d="M148 55h134q127 0 127 100q0 101 -127 101h-134v-201zM287 0h-208v510h69v-198h144q88 0 137 -39.5t49 -116.5t-49.5 -116.5t-141.5 -39.5z" />
    <glyph glyph-name="afii10095" unicode="&#x44d;" horiz-adv-x="468" 
d="M109 235v55h237q-7 85 -49 129t-107 44q-62 0 -119 -46l-20 56q64 49 148 49q98 0 158 -68t60 -195q0 -131 -64.5 -201t-169.5 -70q-82 0 -144 46l20 59q64 -47 125 -47q70 0 114.5 48t48.5 141h-238z" />
    <glyph glyph-name="afii10096" unicode="&#x44e;" horiz-adv-x="745" 
d="M486 -12q-88 0 -145 64t-60 189h-133v-241h-69v510h69v-211h135q11 109 68 166t139 57q89 0 147 -67.5t58 -197.5q0 -132 -59 -200.5t-150 -68.5zM626 254q0 106 -38 158t-100 52t-100 -52t-38 -158t38 -158t100 -52t100 52t38 158z" />
    <glyph glyph-name="afii10097" unicode="&#x44f;" horiz-adv-x="536" 
d="M258 510h198v-510h-69v210h-155l-128 -210h-74l138 223q-100 31 -100 134q0 75 50 114t140 39zM259 262h128v191h-128q-123 0 -123 -96q0 -48 29.5 -71.5t93.5 -23.5z" />
    <glyph glyph-name="uni0450" unicode="&#x450;" horiz-adv-x="537" 
d="M278 466q-66 0 -108.5 -45t-49.5 -127h295q0 87 -37 129.5t-100 42.5zM481 241h-361q2 -99 47 -147.5t122 -48.5q74 0 159 52l20 -55q-86 -54 -188 -54q-105 0 -167.5 67.5t-62.5 192.5q0 128 65 201t166 73q93 0 147 -63t54 -180q0 -24 -1 -38zM333 574h-56l-124 146h84
z" />
    <glyph glyph-name="afii10071" unicode="&#x451;" horiz-adv-x="537" 
d="M278 466q-66 0 -108.5 -45t-49.5 -127h295q0 87 -37 129.5t-100 42.5zM481 241h-361q2 -99 47 -147.5t122 -48.5q74 0 159 52l20 -55q-86 -54 -188 -54q-105 0 -167.5 67.5t-62.5 192.5q0 128 65 201t166 73q93 0 147 -63t54 -180q0 -24 -1 -38zM137 622q0 18 12 30.5
t31 12.5t31 -12.5t12 -30.5t-12 -30.5t-31 -12.5t-31 12.5t-12 30.5zM323 622q0 18 12 30.5t31 12.5t31 -12.5t12 -30.5t-12 -30.5t-31 -12.5t-31 12.5t-12 30.5z" />
    <glyph glyph-name="afii10099" unicode="&#x452;" horiz-adv-x="638" 
d="M25 575v57h117v88h69v-88h197v-57h-197v-185q37 43 93.5 71.5t118.5 28.5q63 0 101 -33.5t38 -108.5v-382q0 -72 -31 -108t-102 -36q-28 0 -59 6v59q27 -6 49 -6q41 0 57.5 21t16.5 64v368q0 94 -90 94q-93 0 -192 -97v-331h-69v575h-117z" />
    <glyph glyph-name="afii10100" unicode="&#x453;" horiz-adv-x="405" 
d="M229 574h-56l96 146h84zM79 510h304v-59h-235v-451h-69v510z" />
    <glyph glyph-name="afii10101" unicode="&#x454;" horiz-adv-x="468" 
d="M424 476l-20 -61q-65 48 -125 48q-65 0 -108 -44t-51 -129h238v-55h-239q4 -94 48 -141.5t114 -47.5q67 0 125 47l20 -56q-64 -49 -152 -49q-101 0 -162.5 67t-61.5 195q0 131 64 201.5t168 70.5q80 0 142 -46z" />
    <glyph glyph-name="afii10102" unicode="&#x455;" horiz-adv-x="454" 
d="M388 473l-20 -60q-73 51 -134 51q-44 0 -70 -23t-26 -58q0 -34 27.5 -54.5t66.5 -31t78 -23.5t66.5 -45t27.5 -83q0 -73 -50.5 -115.5t-134.5 -42.5q-92 0 -169 50l20 60q80 -53 154 -53q53 0 82.5 25t29.5 67q0 38 -27.5 60.5t-66.5 34l-78 24t-66.5 42.5t-27.5 78
q0 65 46 105.5t121 40.5q81 0 151 -49z" />
    <glyph glyph-name="afii10103" unicode="&#x456;" horiz-adv-x="241" 
d="M86 0v510h69v-510h-69zM167 652q0 -20 -13 -33t-33 -13t-33 13t-13 33t13 33t33 13t33 -13t13 -33z" />
    <glyph glyph-name="afii10104" unicode="&#x457;" horiz-adv-x="241" 
d="M-15 622q0 18 12 30.5t31 12.5t31 -12.5t12 -30.5t-12 -30.5t-31 -12.5t-31 12.5t-12 30.5zM171 622q0 18 12 30.5t31 12.5t31 -12.5t12 -30.5t-12 -30.5t-31 -12.5t-31 12.5t-12 30.5zM86 0v510h69v-510h-69z" />
    <glyph glyph-name="afii10105" unicode="&#x458;" horiz-adv-x="241" 
d="M155 510v-582q0 -72 -31 -108t-102 -36q-28 0 -59 6v59q27 -6 49 -6q41 0 57.5 21t16.5 64v582h69zM167 652q0 -20 -13 -33t-33 -13t-33 13t-13 33t13 33t33 13t33 -13t13 -33z" />
    <glyph glyph-name="afii10106" unicode="&#x459;" horiz-adv-x="853" 
d="M611 0h-208v451h-184q-4 -186 -20.5 -280.5t-55 -135.5t-112.5 -41q-23 0 -31 2v57q6 -2 25 -2q28 0 48 10.5t33.5 36.5t21.5 59t13 88.5t7.5 113.5t5.5 146v5h318v-198h144q88 0 137 -39.5t49 -116.5t-49.5 -116.5t-141.5 -39.5zM472 55h134q127 0 127 100
q0 101 -127 101h-134v-201z" />
    <glyph glyph-name="afii10107" unicode="&#x45a;" horiz-adv-x="852" 
d="M618 0h-216v246h-254v-246h-69v510h69v-206h254v206h69v-206h149q87 0 134 -38.5t47 -113.5t-48.5 -113.5t-134.5 -38.5zM471 55h140q61 0 91 23.5t30 73.5q0 96 -121 96h-140v-193z" />
    <glyph glyph-name="afii10108" unicode="&#x45b;" horiz-adv-x="638" 
d="M25 575v57h117v88h69v-88h197v-57h-197v-185q37 43 93.5 71.5t118.5 28.5q63 0 101 -33.5t38 -108.5v-348h-69v334q0 94 -90 94q-93 0 -192 -97v-331h-69v575h-117z" />
    <glyph glyph-name="afii10109" unicode="&#x45c;" horiz-adv-x="524" 
d="M257 574h-56l96 146h84zM80 0v510h69v-217h37q38 0 53.5 9.5t29.5 34.5l48 85q30 53 58.5 73.5t89.5 20.5v-59q-36 0 -52 -9.5t-30 -33.5l-48 -85q-26 -47 -60 -59q41 -10 66 -33t51 -66l103 -171h-77l-90 150q-31 51 -58.5 70t-81.5 19h-39v-239h-69z" />
    <glyph glyph-name="uni045D" unicode="&#x45d;" horiz-adv-x="573" 
d="M345 574h-56l-124 146h84zM493 510v-510h-65v401l-287 -401h-62v510h65v-401l287 401h62z" />
    <glyph glyph-name="afii10110" unicode="&#x45e;" horiz-adv-x="505" 
d="M38 -212v62q30 -6 46 -6q46 0 76.5 34t67.5 134h-24l-178 498h73l153 -441l156 441h71l-183 -498q-51 -138 -94 -183t-117 -45q-30 0 -47 4zM252 627q87 0 87 93h56q0 -140 -143 -140t-143 140h56q0 -93 87 -93z" />
    <glyph glyph-name="afii10193" unicode="&#x45f;" horiz-adv-x="559" 
d="M148 510v-453h262v453h69v-510h-166v-130h-68v130h-166v510h69z" />
    <glyph glyph-name="afii10146" unicode="&#x462;" horiz-adv-x="710" 
d="M426 0h-239v555h-156v63h156v102h71v-102h187v-63h-187v-149h173q113 0 174.5 -51.5t61.5 -151.5q0 -101 -63 -152t-178 -51zM258 62h168q86 0 128 34t42 107q0 72 -42 106t-128 34h-168v-281z" />
    <glyph glyph-name="afii10194" unicode="&#x463;" horiz-adv-x="587" 
d="M350 0h-208v453h-117v57h117v210h69v-210h176v-57h-176v-141h144q89 0 137.5 -39.5t48.5 -116.5t-49.5 -116.5t-141.5 -39.5zM211 55h134q127 0 127 100q0 101 -127 101h-134v-201z" />
    <glyph glyph-name="afii10147" unicode="&#x472;" horiz-adv-x="716" 
d="M246 363q-47 0 -117 -45q9 -132 69.5 -199t159.5 -67q104 0 165 75t65 221q-65 -39 -119 -39q-40 0 -117 27t-106 27zM468 370q51 0 117 46q-11 124 -71.5 188t-155.5 64q-101 0 -162.5 -72t-67.5 -210q66 38 117 38q40 0 117 -27t106 -27zM657 362q0 -177 -83.5 -275.5
t-217.5 -98.5q-132 0 -214.5 96.5t-82.5 273.5q0 178 83.5 276t217.5 98q132 0 214.5 -97t82.5 -273z" />
    <glyph glyph-name="afii10195" unicode="&#x473;" horiz-adv-x="554" 
d="M195 255q-33 0 -77 -31q6 -90 49.5 -134t109.5 -44q68 0 111.5 47.5t47.5 144.5q-42 -25 -78 -25q-28 0 -85.5 21t-77.5 21zM358 268q34 0 77 30q-9 84 -51.5 125t-106.5 41q-66 0 -109.5 -44t-49.5 -134q41 24 78 24q28 0 85 -21t77 -21zM504 257q0 -131 -64.5 -200
t-164.5 -69q-98 0 -161.5 67t-63.5 198q0 132 65 200.5t164 68.5q98 0 161.5 -67.5t63.5 -197.5z" />
    <glyph glyph-name="afii10148" unicode="&#x474;" horiz-adv-x="662" 
d="M36 720h74l212 -628l167 502q24 74 59 103t114 29v-63q-50 0 -71 -16.5t-35 -57.5l-199 -589h-72z" />
    <glyph glyph-name="afii10196" unicode="&#x475;" horiz-adv-x="521" 
d="M250 89l106 297q26 73 58 101.5t107 28.5v-59q-44 0 -64 -16.5t-36 -60.5l-135 -380h-72l-189 510h73z" />
    <glyph glyph-name="afii10050" unicode="&#x490;" horiz-adv-x="554" 
d="M96 0v720h354v122h66v-187h-349v-655h-71z" />
    <glyph glyph-name="afii10098" unicode="&#x491;" horiz-adv-x="430" 
d="M79 510h257v122h65v-181h-253v-451h-69v510z" />
    <glyph glyph-name="uni0492" unicode="&#x492;" horiz-adv-x="542" 
d="M26 348v57h82v315h403v-65h-332v-250h191v-57h-191v-348h-71v348h-82z" />
    <glyph glyph-name="uni0493" unicode="&#x493;" horiz-adv-x="417" 
d="M91 510h304v-59h-235v-152h151v-57h-151v-242h-69v242h-80v57h80v211z" />
    <glyph glyph-name="uni0496" unicode="&#x496;" horiz-adv-x="992" 
d="M450 0v342h-51q-65 0 -101.5 -30t-80.5 -107l-117 -205h-78l129 226q37 65 71 99.5t87 49.5q-32 13 -52 36t-39 63l-57 115q-21 42 -42.5 58t-66.5 16v63q75 0 110.5 -28.5t72.5 -103.5l57 -116q21 -42 42.5 -58t68.5 -16h47v316h71v-316h47q47 0 68.5 16t42.5 58l57 116
q37 75 72.5 103.5t110.5 28.5v-63q-47 0 -68.5 -16t-42.5 -58l-57 -115q-20 -40 -39.5 -63t-50.5 -36q53 -15 87.5 -49t71.5 -100l93 -164h57v-216h-68v154h-33l-117 205q-44 77 -80.5 107t-101.5 30h-49v-342h-71z" />
    <glyph glyph-name="uni0497" unicode="&#x497;" horiz-adv-x="786" 
d="M349 0v239h-15q-54 0 -81.5 -19t-58.5 -70l-90 -150h-75l103 171q25 42 50.5 65.5t65.5 33.5q-23 8 -35.5 21.5t-25.5 37.5l-48 85q-14 24 -29.5 33.5t-50.5 9.5v59q61 0 89.5 -20.5t58.5 -73.5l48 -85q14 -25 29.5 -34.5t53.5 -9.5h11v217h69v-217h11q38 0 53.5 9.5
t29.5 34.5l48 85q30 53 58.5 73.5t89.5 20.5v-59q-36 0 -52 -9.5t-30 -33.5l-48 -85q-26 -47 -60 -59q41 -10 66 -33t51 -66l70 -116h52v-185h-67v130h-29l-90 150q-31 51 -58.5 70t-81.5 19h-13v-239h-69z" />
    <glyph glyph-name="uni049A" unicode="&#x49a;" horiz-adv-x="664" 
d="M96 0v720h71v-316h73q47 0 68.5 16t42.5 58l57 116q37 75 72.5 103.5t110.5 28.5v-63q-47 0 -68.5 -16t-42.5 -58l-57 -115q-20 -40 -39.5 -63t-50.5 -36q53 -15 87.5 -49t71.5 -100l93 -164h57v-216h-68v154h-33l-117 205q-44 77 -80.5 107t-101.5 30h-75v-342h-71z" />
    <glyph glyph-name="uni049B" unicode="&#x49b;" horiz-adv-x="543" 
d="M80 0v510h69v-217h37q38 0 53.5 9.5t29.5 34.5l48 85q30 53 58.5 73.5t89.5 20.5v-59q-36 0 -52 -9.5t-30 -33.5l-48 -85q-26 -47 -60 -59q41 -10 66 -33t51 -66l70 -116h52v-185h-67v130h-29l-90 150q-31 51 -58.5 70t-81.5 19h-39v-239h-69z" />
    <glyph glyph-name="uni049C" unicode="&#x49c;" horiz-adv-x="677" 
d="M96 0v720h71v-316h71v165h53v-165q37 3 56 19.5t38 54.5l57 116q37 75 72.5 103.5t110.5 28.5v-63q-47 0 -68.5 -16t-42.5 -58l-57 -115q-20 -40 -39.5 -63t-50.5 -36q53 -15 87.5 -49t71.5 -100l129 -226h-80l-117 205q-42 72 -76 102.5t-91 33.5v-178h-53v179h-71v-342
h-71z" />
    <glyph glyph-name="uni049D" unicode="&#x49d;" horiz-adv-x="558" 
d="M80 0v510h69v-217h52v112h51v-110q19 3 29.5 13t21.5 29l48 85q30 53 58.5 73.5t89.5 20.5v-59q-38 0 -53 -9.5t-29 -33.5l-48 -85q-25 -44 -60 -59q41 -10 66 -33t51 -66l103 -171h-77l-90 150q-26 44 -49 63t-61 24v-119h-51v121h-52v-239h-69z" />
    <glyph glyph-name="uni04A2" unicode="&#x4a2;" horiz-adv-x="712" 
d="M96 0v720h71v-312h369v312h71v-658h55v-216h-68v154h-58v343h-369v-343h-71z" />
    <glyph glyph-name="uni04A3" unicode="&#x4a3;" horiz-adv-x="593" 
d="M423 0v241h-275v-241h-69v510h69v-211h275v211h69v-455h51v-185h-67v130h-53z" />
    <glyph glyph-name="uni04AE" unicode="&#x4ae;" horiz-adv-x="603" 
d="M266 0v309l-240 411h79l197 -341l198 341h77l-240 -411v-309h-71z" />
    <glyph glyph-name="uni04AF" unicode="&#x4af;" horiz-adv-x="504" 
d="M215 -210v210l-190 510h73l153 -422l157 422h71l-195 -510v-210h-69z" />
    <glyph glyph-name="uni04B0" unicode="&#x4b0;" horiz-adv-x="603" 
d="M120 252v57h146l-240 411h79l197 -341l198 341h77l-240 -411h146v-57h-146v-252h-71v252h-146z" />
    <glyph glyph-name="uni04B1" unicode="&#x4b1;" horiz-adv-x="504" 
d="M90 -44v57h125l-190 497h73l153 -422l157 422h71l-195 -497h125v-57h-125v-166h-69v166h-125z" />
    <glyph glyph-name="uni04B2" unicode="&#x4b2;" horiz-adv-x="625" 
d="M540 -154v154h-31l-199 319l-197 -319h-80l234 371l-219 349h81l184 -297l183 297h80l-220 -349l195 -309h57v-216h-68z" />
    <glyph glyph-name="uni04B3" unicode="&#x4b3;" horiz-adv-x="508" 
d="M423 -130v130h-27l-145 220l-147 -220h-75l181 265l-167 245h78l131 -200l132 200h76l-167 -245l143 -210h54v-185h-67z" />
    <glyph glyph-name="uni04B6" unicode="&#x4b6;" horiz-adv-x="647" 
d="M295 360q81 0 177 31v329h71v-658h53v-216h-68v154h-56v330q-102 -33 -192 -33q-105 0 -162.5 47.5t-57.5 157.5v218h71v-209q0 -151 164 -151z" />
    <glyph glyph-name="uni04B7" unicode="&#x4b7;" horiz-adv-x="551" 
d="M50 510h69v-144q0 -65 31.5 -87t90.5 -22q65 0 139 21v232h69v-455h51v-185h-67v130h-53v223q-85 -23 -154 -23q-85 0 -130.5 35t-45.5 116v159z" />
    <glyph glyph-name="uni04B8" unicode="&#x4b8;" horiz-adv-x="659" 
d="M284 119v178q-224 0 -224 205v218h70v-209q0 -77 42 -113.5t112 -38.5v166h53v-165q67 4 156 31v329h70v-720h-70v330q-85 -26 -156 -31v-180h-53z" />
    <glyph glyph-name="uni04B9" unicode="&#x4b9;" horiz-adv-x="549" 
d="M233 80v120q-183 0 -183 162v148h68v-144q0 -105 115 -110v111h51v-110q54 3 117 21v232h68v-510h-68v223q-61 -16 -117 -21v-122h-51z" />
    <glyph glyph-name="uni04BA" unicode="&#x4ba;" horiz-adv-x="639" 
d="M344 387q-81 0 -177 -31v-356h-71v720h71v-301q102 33 192 33q105 0 162.5 -47.5t57.5 -157.5v-247h-71v236q0 151 -164 151z" />
    <glyph glyph-name="uni04BB" unicode="&#x4bb;" horiz-adv-x="529" 
d="M478 0h-69v145q0 65 -31.5 87t-90.5 22q-65 0 -139 -21v-233h-69v510h69v-221q85 23 154 23q85 0 130.5 -35t45.5 -116v-161z" />
    <glyph glyph-name="uni04C0" unicode="&#x4c0;" horiz-adv-x="281" 
d="M105 0v720h71v-720h-71z" />
    <glyph glyph-name="uni04CF" unicode="&#x4cf;" horiz-adv-x="241" 
d="M86 0v720h69v-720h-69z" />
    <glyph glyph-name="uni04D8" unicode="&#x4d8;" horiz-adv-x="697" 
d="M343 51q97 0 156.5 71t65.5 213h-435q5 -142 60.5 -213t152.5 -71zM329 667q-105 0 -211 -74l-24 63q107 76 241 76q138 0 220 -96t82 -274q0 -179 -81.5 -276.5t-214.5 -97.5q-130 0 -206 95.5t-76 276.5v36h506q-8 131 -69 201t-167 70z" />
    <glyph glyph-name="afii10846" unicode="&#x4d9;" horiz-adv-x="537" 
d="M264 43q69 0 109.5 48t43.5 144h-296q4 -192 143 -192zM54 287h362q-7 87 -50 131.5t-114 44.5q-73 0 -152 -52l-20 57q82 54 179 54q105 0 166 -68t61 -197q0 -131 -62.5 -200t-160.5 -69q-94 0 -152 64.5t-58 196.5q0 21 1 38z" />
    <glyph glyph-name="uni04E2" unicode="&#x4e2;" horiz-adv-x="709" 
d="M613 720v-720h-68v594l-384 -594h-65v720h68v-594l384 594h65zM214 789v56h280v-56h-280z" />
    <glyph glyph-name="uni04E3" unicode="&#x4e3;" horiz-adv-x="573" 
d="M146 585v57h280v-57h-280zM493 510v-510h-65v401l-287 -401h-62v510h65v-401l287 401h62z" />
    <glyph glyph-name="uni04E8" unicode="&#x4e8;" horiz-adv-x="716" 
d="M358 52q102 0 163.5 71.5t66.5 211.5h-460q5 -140 66.5 -211.5t163.5 -71.5zM358 668q-99 0 -160 -68.5t-69 -201.5h458q-8 133 -69 201.5t-160 68.5zM657 362q0 -177 -83.5 -275.5t-217.5 -98.5q-132 0 -214.5 96.5t-82.5 273.5q0 178 83.5 276t217.5 98
q132 0 214.5 -97t82.5 -273z" />
    <glyph glyph-name="uni04E9" unicode="&#x4e9;" horiz-adv-x="554" 
d="M277 46q68 0 111.5 46.5t48.5 141.5h-320q5 -95 48.5 -141.5t111.5 -46.5zM277 464q-65 0 -108.5 -43.5t-50.5 -131.5h318q-7 88 -50.5 131.5t-108.5 43.5zM504 257q0 -131 -64.5 -200t-164.5 -69q-98 0 -161.5 67t-63.5 198q0 132 65 200.5t164 68.5q98 0 161.5 -67.5
t63.5 -197.5z" />
    <glyph glyph-name="uni04EE" unicode="&#x4ee;" horiz-adv-x="603" 
d="M253 243l-227 477h77l199 -422l199 422h76l-228 -477q-70 -145 -121.5 -197t-134.5 -52q-30 0 -55 4v66q26 -6 55 -6q56 0 90.5 34t92.5 151h-23zM161 789v56h280v-56h-280z" />
    <glyph glyph-name="uni04EF" unicode="&#x4ef;" horiz-adv-x="505" 
d="M38 -212v62q30 -6 46 -6q46 0 76.5 34t67.5 134h-24l-178 498h73l153 -441l156 441h71l-183 -498q-51 -138 -94 -183t-117 -45q-30 0 -47 4zM112 585v57h280v-57h-280z" />
    <glyph glyph-name="Wgrave" unicode="&#x1e80;" horiz-adv-x="953" 
d="M653 0l-120 415q-37 128 -55 209h-2q-11 -50 -55 -205l-124 -419h-69l-188 720h74l106 -415q0 -1 4 -16.5l10 -39l12.5 -49.5t12.5 -53.5t9 -45.5h2q24 106 53 205l121 414h68l119 -413q35 -122 54 -206h2q12 69 47 204l108 415h72l-193 -720h-68zM535 783h-56l-125 125
h85z" />
    <glyph glyph-name="wgrave" unicode="&#x1e81;" horiz-adv-x="751" 
d="M248 0h-68l-154 510h70l87 -292q24 -82 34 -141h2q8 52 35 139l91 294h65l87 -293q29 -97 36 -140h2q10 62 34 142l88 291h68l-158 -510h-67l-85 284q-27 89 -38 145h-2q-10 -47 -39 -143zM434 574h-56l-124 146h84z" />
    <glyph glyph-name="Wacute" unicode="&#x1e82;" horiz-adv-x="953" 
d="M653 0l-120 415q-37 128 -55 209h-2q-11 -50 -55 -205l-124 -419h-69l-188 720h74l106 -415q0 -1 4 -16.5l10 -39l12.5 -49.5t12.5 -53.5t9 -45.5h2q24 106 53 205l121 414h68l119 -413q35 -122 54 -206h2q12 69 47 204l108 415h72l-193 -720h-68zM472 783h-56l96 125h85
z" />
    <glyph glyph-name="wacute" unicode="&#x1e83;" horiz-adv-x="751" 
d="M248 0h-68l-154 510h70l87 -292q24 -82 34 -141h2q8 52 35 139l91 294h65l87 -293q29 -97 36 -140h2q10 62 34 142l88 291h68l-158 -510h-67l-85 284q-27 89 -38 145h-2q-10 -47 -39 -143zM372 574h-56l96 146h84z" />
    <glyph glyph-name="Wdieresis" unicode="&#x1e84;" horiz-adv-x="953" 
d="M653 0l-120 415q-37 128 -55 209h-2q-11 -50 -55 -205l-124 -419h-69l-188 720h74l106 -415q0 -1 4 -16.5l10 -39l12.5 -49.5t12.5 -53.5t9 -45.5h2q24 106 53 205l121 414h68l119 -413q35 -122 54 -206h2q12 69 47 204l108 415h72l-193 -720h-68zM340 825q0 18 12 30.5
t31 12.5t31 -12.5t12 -30.5t-12 -30.5t-31 -12.5t-31 12.5t-12 30.5zM526 825q0 18 12 30.5t31 12.5t31 -12.5t12 -30.5t-12 -30.5t-31 -12.5t-31 12.5t-12 30.5z" />
    <glyph glyph-name="wdieresis" unicode="&#x1e85;" horiz-adv-x="751" 
d="M248 0h-68l-154 510h70l87 -292q24 -82 34 -141h2q8 52 35 139l91 294h65l87 -293q29 -97 36 -140h2q10 62 34 142l88 291h68l-158 -510h-67l-85 284q-27 89 -38 145h-2q-10 -47 -39 -143zM239 622q0 18 12 30.5t31 12.5t31 -12.5t12 -30.5t-12 -30.5t-31 -12.5t-31 12.5
t-12 30.5zM425 622q0 18 12 30.5t31 12.5t31 -12.5t12 -30.5t-12 -30.5t-31 -12.5t-31 12.5t-12 30.5z" />
    <glyph glyph-name="uni1E8A" unicode="&#x1e8a;" horiz-adv-x="625" 
d="M33 0l234 371l-219 349h81l184 -297l183 297h80l-220 -349l234 -371h-81l-199 319l-197 -319h-80zM358 827q0 -20 -13 -33t-33 -13t-33 13t-13 33t13 33t33 13t33 -13t13 -33z" />
    <glyph glyph-name="uni1E8B" unicode="&#x1e8b;" horiz-adv-x="504" 
d="M29 0l181 265l-167 245h78l131 -200l132 200h76l-167 -245l181 -265h-78l-145 220l-147 -220h-75zM297 619q0 -20 -13 -33t-33 -13t-33 13t-13 33t13 33t33 13t33 -13t13 -33z" />
    <glyph glyph-name="uni1E9E" unicode="&#x1e9e;" horiz-adv-x="1138" 
d="M618 56l24 65q102 -70 201 -70q76 0 120.5 38t44.5 102q0 48 -27.5 80t-68 46.5l-88.5 31.5t-88.5 34.5t-68 56t-27.5 95.5q0 90 61.5 143.5t160.5 53.5q109 0 198 -66l-23 -67q-91 69 -179 69q-68 0 -107.5 -33.5t-39.5 -90.5q0 -39 20.5 -66t53 -41.5t71.5 -26.5
t78 -26.5t71.5 -35t53 -58t20.5 -89.5q0 -98 -65.5 -155.5t-173.5 -57.5q-120 0 -222 68zM59 56l24 65q102 -70 201 -70q76 0 120.5 38t44.5 102q0 48 -27.5 80t-68 46.5l-88.5 31.5t-88.5 34.5t-68 56t-27.5 95.5q0 90 61.5 143.5t160.5 53.5q109 0 198 -66l-23 -67
q-91 69 -179 69q-68 0 -107.5 -33.5t-39.5 -90.5q0 -39 20.5 -66t53 -41.5t71.5 -26.5t78 -26.5t71.5 -35t53 -58t20.5 -89.5q0 -98 -65.5 -155.5t-173.5 -57.5q-120 0 -222 68z" />
    <glyph glyph-name="Ygrave" unicode="&#x1ef2;" horiz-adv-x="603" 
d="M266 0v309l-240 411h79l197 -341l198 341h77l-240 -411v-309h-71zM360 783h-56l-125 125h85z" />
    <glyph glyph-name="ygrave" unicode="&#x1ef3;" horiz-adv-x="505" 
d="M38 -212v62q30 -6 46 -6q46 0 76.5 34t67.5 134h-24l-178 498h73l153 -441l156 441h71l-183 -498q-51 -138 -94 -183t-117 -45q-30 0 -47 4zM311 574h-56l-124 146h84z" />
    <glyph glyph-name="uni2007" unicode="&#x2007;" horiz-adv-x="623" 
 />
    <glyph glyph-name="uni2008" unicode="&#x2008;" horiz-adv-x="279" 
 />
    <glyph glyph-name="uni200B" unicode="&#x200b;" horiz-adv-x="0" 
 />
    <glyph glyph-name="endash" unicode="&#x2013;" horiz-adv-x="500" 
d="M64 280v63h372v-63h-372z" />
    <glyph glyph-name="emdash" unicode="&#x2014;" 
d="M64 280v63h872v-63h-872z" />
    <glyph glyph-name="afii00208" unicode="&#x2015;" 
d="M64 280v63h872v-63h-872z" />
    <glyph glyph-name="quoteleft" unicode="&#x2018;" horiz-adv-x="262" 
d="M178 732l38 -33q-85 -52 -98 -122h5q23 0 37 -13.5t14 -34.5t-13.5 -35t-35.5 -14q-26 0 -43 21t-17 57q0 43 27.5 89.5t85.5 84.5z" />
    <glyph glyph-name="quoteright" unicode="&#x2019;" horiz-adv-x="262" 
d="M45 513q85 52 98 122h-5q-23 0 -37 13.5t-14 34.5t13.5 35t35.5 14q26 0 43 -21t17 -57q0 -43 -27.5 -89.5t-85.5 -84.5z" />
    <glyph glyph-name="quotesinglbase" unicode="&#x201a;" horiz-adv-x="262" 
d="M45 -131q85 52 98 122h-5q-23 0 -37 13.5t-14 34.5t13.5 35t35.5 14q26 0 43 -21t17 -57q0 -43 -27.5 -89.5t-85.5 -84.5z" />
    <glyph glyph-name="quotedblleft" unicode="&#x201c;" horiz-adv-x="433" 
d="M178 732l38 -33q-85 -52 -98 -122h5q23 0 37 -13.5t14 -34.5t-13.5 -35t-35.5 -14q-26 0 -43 21t-17 57q0 43 27.5 89.5t85.5 84.5zM349 732l38 -33q-85 -52 -98 -122h5q23 0 37 -13.5t14 -34.5t-13.5 -35t-35.5 -14q-26 0 -43 21t-17 57q0 43 27.5 89.5t85.5 84.5z" />
    <glyph glyph-name="quotedblright" unicode="&#x201d;" horiz-adv-x="433" 
d="M45 513q85 52 98 122h-5q-23 0 -37 13.5t-14 34.5t13.5 35t35.5 14q26 0 43 -21t17 -57q0 -43 -27.5 -89.5t-85.5 -84.5zM216 513q85 52 98 122h-5q-23 0 -37 13.5t-14 34.5t13.5 35t35.5 14q26 0 43 -21t17 -57q0 -43 -27.5 -89.5t-85.5 -84.5z" />
    <glyph glyph-name="quotedblbase" unicode="&#x201e;" horiz-adv-x="433" 
d="M45 -131q85 52 98 122h-5q-23 0 -37 13.5t-14 34.5t13.5 35t35.5 14q26 0 43 -21t17 -57q0 -43 -27.5 -89.5t-85.5 -84.5zM216 -131q85 52 98 122h-5q-23 0 -37 13.5t-14 34.5t13.5 35t35.5 14q26 0 43 -21t17 -57q0 -43 -27.5 -89.5t-85.5 -84.5z" />
    <glyph glyph-name="dagger" unicode="&#x2020;" horiz-adv-x="572" 
d="M251 -83l8 499l-186 -7v62l186 -7l-7 216h67l-7 -216l186 7v-62l-186 7l8 -499h-69z" />
    <glyph glyph-name="daggerdbl" unicode="&#x2021;" horiz-adv-x="572" 
d="M319 680l-7 -196l186 7v-62l-186 7v-275l186 7v-62l-186 7l7 -196h-67l7 196l-186 -7v62l186 -7v275l-186 -7v62l186 -7l-7 196h67z" />
    <glyph glyph-name="bullet" unicode="&#x2022;" horiz-adv-x="464" 
d="M350 350q0 -52 -33.5 -85.5t-84.5 -33.5t-84.5 33.5t-33.5 85.5t33.5 85.5t84.5 33.5t84.5 -33.5t33.5 -85.5z" />
    <glyph glyph-name="onedotenleader" unicode="&#x2024;" horiz-adv-x="279" 
d="M190 38q0 -21 -14 -35.5t-36 -14.5t-36 14.5t-14 35.5t14 35.5t36 14.5t36 -14.5t14 -35.5z" />
    <glyph glyph-name="twodotenleader" unicode="&#x2025;" horiz-adv-x="505" 
d="M190 38q0 -21 -14 -35.5t-36 -14.5t-36 14.5t-14 35.5t14 35.5t36 14.5t36 -14.5t14 -35.5zM415 38q0 -21 -14 -35.5t-36 -14.5t-36 14.5t-14 35.5t14 35.5t36 14.5t36 -14.5t14 -35.5z" />
    <glyph glyph-name="ellipsis" unicode="&#x2026;" horiz-adv-x="730" 
d="M190 38q0 -21 -14 -35.5t-36 -14.5t-36 14.5t-14 35.5t14 35.5t36 14.5t36 -14.5t14 -35.5zM415 38q0 -21 -14 -35.5t-36 -14.5t-36 14.5t-14 35.5t14 35.5t36 14.5t36 -14.5t14 -35.5zM640 38q0 -21 -14 -35.5t-36 -14.5t-36 14.5t-14 35.5t14 35.5t36 14.5t36 -14.5
t14 -35.5z" />
    <glyph glyph-name="perthousand" unicode="&#x2030;" horiz-adv-x="1089" 
d="M735 158q0 70 40 117t107 47q66 0 105.5 -46t39.5 -117t-40 -118t-107 -47t-106 46.5t-39 117.5zM790 158q0 -53 23 -85.5t68 -32.5t68 32.5t23 85.5t-23 85.5t-68 32.5t-68 -32.5t-23 -85.5zM354 563q0 -71 -40 -118t-107 -47q-66 0 -105.5 46t-39.5 117t40 118t107 47
q66 0 105.5 -46t39.5 -117zM299 562q0 53 -23 85.5t-68 32.5t-68 -32.5t-23 -85.5t23 -85.5t68 -32.5t68 32.5t23 85.5zM118 0l446 720h61l-446 -720h-61zM389 158q0 70 40 117t107 47q66 0 105.5 -46t39.5 -117t-40 -118t-107 -47t-106 46.5t-39 117.5zM444 158
q0 -53 23 -85.5t68 -32.5t68 32.5t23 85.5t-23 85.5t-68 32.5t-68 -32.5t-23 -85.5z" />
    <glyph glyph-name="minute" unicode="&#x2032;" horiz-adv-x="163" 
d="M31 467l38 253h64l-48 -253h-54z" />
    <glyph glyph-name="second" unicode="&#x2033;" horiz-adv-x="321" 
d="M188 467l38 253h64l-48 -253h-54zM31 467l38 253h64l-48 -253h-54z" />
    <glyph glyph-name="guilsinglleft" unicode="&#x2039;" horiz-adv-x="316" 
d="M186 24l-138 231l138 231h66l-133 -231l133 -231h-66z" />
    <glyph glyph-name="guilsinglright" unicode="&#x203a;" horiz-adv-x="316" 
d="M267 255l-138 -231h-66l133 231l-133 231h66z" />
    <glyph glyph-name="exclamdbl" unicode="&#x203c;" horiz-adv-x="533" 
d="M132 197l-12 523h74l-12 -523h-50zM204 35q0 -20 -13 -33.5t-34 -13.5t-34 13.5t-13 33.5t13 33.5t34 13.5t34 -13.5t13 -33.5zM349 197l-12 523h74l-12 -523h-50zM421 35q0 -20 -13 -33.5t-34 -13.5t-34 13.5t-13 33.5t13 33.5t34 13.5t34 -13.5t13 -33.5z" />
    <glyph glyph-name="fraction" unicode="&#x2044;" horiz-adv-x="64" 
d="M-157 0l450 720h58l-450 -720h-58z" />
    <glyph glyph-name="uni2070" unicode="&#x2070;" horiz-adv-x="397" 
d="M360 604q0 -111 -45.5 -171.5t-117.5 -60.5t-116.5 60t-44.5 170q0 111 45.5 171.5t117.5 60.5t116.5 -60t44.5 -170zM307 603q0 183 -109 183t-109 -183t109 -183t109 183z" />
    <glyph glyph-name="uni2071" unicode="&#x2071;" horiz-adv-x="163" 
d="M55 380v316h53v-316h-53zM115 784q0 -15 -9.5 -24.5t-23.5 -9.5q-15 0 -24.5 9.5t-9.5 24.5t9.5 24.5t24.5 9.5q14 0 23.5 -9.5t9.5 -24.5z" />
    <glyph glyph-name="uni2074" unicode="&#x2074;" horiz-adv-x="373" 
d="M22 473v46l203 307h64v-306h68v-47h-68v-93h-52v93h-215zM76 520h161v243z" />
    <glyph glyph-name="uni2075" unicode="&#x2075;" horiz-adv-x="341" 
d="M260 514q0 99 -119 99q-47 0 -100 -16l8 229h244v-48h-195l-5 -126q29 6 60 6q72 0 116 -37t44 -105q0 -69 -44 -106.5t-116 -37.5q-68 0 -128 31l17 49q57 -34 113 -34q50 0 77.5 24t27.5 72z" />
    <glyph glyph-name="uni2076" unicode="&#x2076;" horiz-adv-x="369" 
d="M214 834q58 0 104 -29l-18 -47q-44 28 -89 28q-115 0 -122 -166q52 51 118 51q59 0 96 -40t37 -106q0 -71 -41.5 -112t-102.5 -41q-72 0 -115.5 60t-43.5 168q0 114 48.5 174t128.5 60zM195 625q-52 0 -105 -50q10 -157 108 -157q40 0 65 27t25 76q0 48 -25 76t-68 28z
" />
    <glyph glyph-name="uni2077" unicode="&#x2077;" horiz-adv-x="344" 
d="M139 380h-58q76 199 174 397h-222v49h282v-46q-82 -160 -176 -400z" />
    <glyph glyph-name="uni2078" unicode="&#x2078;" horiz-adv-x="365" 
d="M25 493q0 45 28 72t77 48q-84 38 -84 105q0 52 39.5 84t99.5 32t97.5 -31t37.5 -81q0 -39 -22 -60.5t-66 -43.5q50 -20 79 -47t29 -74q0 -58 -45 -91.5t-115 -33.5q-69 0 -112 32.5t-43 88.5zM98 720q0 -29 20 -45.5t67 -35.5q44 18 63.5 35.5t19.5 44.5q0 33 -23.5 52
t-62.5 19q-38 0 -61 -18.5t-23 -51.5zM288 495q0 18 -7 31.5t-25.5 26t-32.5 19l-46 20.5q-51 -21 -75.5 -41.5t-24.5 -54.5q0 -37 28.5 -58.5t76.5 -21.5q47 0 76.5 21t29.5 58z" />
    <glyph glyph-name="uni2079" unicode="&#x2079;" horiz-adv-x="369" 
d="M155 372q-58 0 -104 29l18 46q44 -28 89 -28q115 0 121 166q-51 -50 -116 -50q-60 0 -97 40t-37 106q0 71 41.5 112t102.5 41q71 0 115 -59.5t44 -167.5q0 -114 -49 -174.5t-128 -60.5zM174 580q51 0 105 49q-5 78 -33.5 118t-75.5 40q-39 0 -64 -27t-25 -76
q0 -48 25 -76t68 -28z" />
    <glyph glyph-name="uni207A" unicode="&#x207a;" horiz-adv-x="364" 
d="M204 380h-44v135h-129v46h129v135h44v-135h129v-46h-129v-135z" />
    <glyph glyph-name="uni207B" unicode="&#x207b;" horiz-adv-x="364" 
d="M333 561v-46h-302v46h302z" />
    <glyph glyph-name="uni207C" unicode="&#x207c;" horiz-adv-x="364" 
d="M333 497v-44h-302v44h302zM333 623v-44h-302v44h302z" />
    <glyph glyph-name="uni207D" unicode="&#x207d;" horiz-adv-x="233" 
d="M84 549q0 -155 123 -255l-27 -30q-148 117 -148 285t148 285l27 -29q-123 -100 -123 -256z" />
    <glyph glyph-name="uni207E" unicode="&#x207e;" horiz-adv-x="233" 
d="M149 549q0 155 -123 255l27 30q148 -117 148 -285t-148 -285l-27 29q123 100 123 256z" />
    <glyph glyph-name="uni207F" unicode="&#x207f;" horiz-adv-x="361" 
d="M51 380v316h53v-47q53 55 124 55q85 0 85 -89v-235h-53v222q0 30 -12 42.5t-37 12.5q-54 0 -107 -51v-226h-53z" />
    <glyph glyph-name="uni2080" unicode="&#x2080;" horiz-adv-x="387" 
d="M360 118q0 -111 -45.5 -171.5t-117.5 -60.5t-116.5 60t-44.5 170q0 111 45.5 171.5t117.5 60.5t116.5 -60t44.5 -170zM307 117q0 183 -109 183t-109 -183t109 -183t109 183z" />
    <glyph glyph-name="uni2081" unicode="&#x2081;" horiz-adv-x="225" 
d="M39 242l-19 45l101 53h43v-446h-53v386z" />
    <glyph glyph-name="uni2082" unicode="&#x2082;" horiz-adv-x="349" 
d="M253 219q0 36 -20.5 58.5t-59.5 22.5q-61 0 -119 -68l-18 45q58 71 142 71q59 0 93.5 -34t34.5 -92q0 -57 -42.5 -119t-151.5 -161h207v-48h-283v42q122 109 169.5 170.5t47.5 112.5z" />
    <glyph glyph-name="uni2083" unicode="&#x2083;" horiz-adv-x="338" 
d="M168 348q57 0 93.5 -29.5t36.5 -82.5q0 -80 -90 -111q101 -23 101 -114q0 -59 -43.5 -92t-113.5 -33q-73 0 -130 32l16 48q59 -33 115 -33q48 0 75.5 20.5t27.5 59.5q0 83 -125 83q-10 0 -42 -2v47q74 0 115.5 23t41.5 67q0 33 -23 51t-62 18q-50 0 -107 -40l-15 45
q63 43 129 43z" />
    <glyph glyph-name="uni2084" unicode="&#x2084;" horiz-adv-x="368" 
d="M22 -13v46l203 307h64v-306h68v-47h-68v-93h-52v93h-215zM76 34h161v243z" />
    <glyph glyph-name="uni2085" unicode="&#x2085;" horiz-adv-x="334" 
d="M260 28q0 99 -119 99q-47 0 -100 -16l8 229h244v-48h-195l-5 -126q29 6 60 6q72 0 116 -37t44 -105q0 -69 -44 -106.5t-116 -37.5q-68 0 -128 31l17 49q57 -34 113 -34q50 0 77.5 24t27.5 72z" />
    <glyph glyph-name="uni2086" unicode="&#x2086;" horiz-adv-x="361" 
d="M214 348q58 0 104 -29l-18 -47q-44 28 -89 28q-115 0 -122 -166q52 51 118 51q59 0 96 -40t37 -106q0 -71 -41.5 -112t-102.5 -41q-72 0 -115.5 60t-43.5 168q0 114 48.5 174t128.5 60zM195 139q-52 0 -105 -50q10 -157 108 -157q40 0 65 27t25 76q0 48 -25 76t-68 28z
" />
    <glyph glyph-name="uni2087" unicode="&#x2087;" horiz-adv-x="333" 
d="M139 -106h-58q76 199 174 397h-222v49h282v-46q-82 -160 -176 -400z" />
    <glyph glyph-name="uni2088" unicode="&#x2088;" horiz-adv-x="360" 
d="M25 7q0 45 28 72t77 48q-84 38 -84 105q0 52 39.5 84t99.5 32t97.5 -31t37.5 -81q0 -39 -22 -60.5t-66 -43.5q50 -20 79 -47t29 -74q0 -58 -45 -91.5t-115 -33.5q-69 0 -112 32.5t-43 88.5zM98 234q0 -29 20 -45.5t67 -35.5q44 18 63.5 35.5t19.5 44.5q0 33 -23.5 52
t-62.5 19q-38 0 -61 -18.5t-23 -51.5zM288 9q0 18 -7 31.5t-25.5 26t-32.5 19l-46 20.5q-51 -21 -75.5 -41.5t-24.5 -54.5q0 -37 28.5 -58.5t76.5 -21.5q47 0 76.5 21t29.5 58z" />
    <glyph glyph-name="uni2089" unicode="&#x2089;" horiz-adv-x="361" 
d="M155 -114q-58 0 -104 29l18 46q44 -28 89 -28q115 0 121 166q-51 -50 -116 -50q-60 0 -97 40t-37 106q0 71 41.5 112t102.5 41q71 0 115 -59.5t44 -167.5q0 -114 -49 -174.5t-128 -60.5zM174 94q51 0 105 49q-5 78 -33.5 118t-75.5 40q-39 0 -64 -27t-25 -76
q0 -48 25 -76t68 -28z" />
    <glyph glyph-name="uni208A" unicode="&#x208a;" horiz-adv-x="362" 
d="M204 -106h-44v135h-129v46h129v135h44v-135h129v-46h-129v-135z" />
    <glyph glyph-name="uni208B" unicode="&#x208b;" horiz-adv-x="362" 
d="M333 75v-46h-302v46h302z" />
    <glyph glyph-name="uni208C" unicode="&#x208c;" horiz-adv-x="362" 
d="M333 11v-44h-302v44h302zM333 137v-44h-302v44h302z" />
    <glyph glyph-name="uni208D" unicode="&#x208d;" horiz-adv-x="225" 
d="M84 63q0 -155 123 -255l-27 -30q-148 117 -148 285t148 285l27 -29q-123 -100 -123 -256z" />
    <glyph glyph-name="uni208E" unicode="&#x208e;" horiz-adv-x="225" 
d="M149 63q0 155 -123 255l27 30q148 -117 148 -285t-148 -285l-27 29q123 100 123 256z" />
    <glyph glyph-name="Euro" unicode="&#x20ac;" horiz-adv-x="627" 
d="M17 263v56h106q-1 11 -1 35q0 30 1 45h-106v56h112q21 134 95 205.5t181 71.5q99 0 173 -64l-25 -64q-76 66 -154 66t-131 -54.5t-69 -160.5h245v-56h-251q-1 -13 -1 -40t1 -40h251v-56h-245q16 -106 69 -160t132 -54q80 0 157 65l23 -59q-82 -67 -186 -67
q-105 0 -176.5 70t-89.5 205h-111z" />
    <glyph glyph-name="uni20B1" unicode="&#x20b1;" horiz-adv-x="631" 
d="M15 472v56h91v192h222q106 0 167.5 -48.5t69.5 -143.5h67v-56h-68q-8 -94 -70.5 -141.5t-170.5 -47.5h-147v-283h-70v472h-91zM176 658v-130h318q-13 130 -171 130h-147zM176 343h147q157 0 171 129h-318v-129z" />
    <glyph glyph-name="uni20B4" unicode="&#x20b4;" horiz-adv-x="577" 
d="M20 399v56h368q48 36 48 94q0 54 -37 87.5t-101 33.5q-85 0 -170 -68l-24 60q90 70 200 70q92 0 147 -49.5t55 -132.5q0 -55 -27 -95h78v-56h-139q-31 -19 -101.5 -45t-89.5 -35h330v-56h-398q-28 -36 -28 -82q0 -62 42.5 -97t116.5 -35q97 0 193 70l23 -59
q-99 -72 -221 -72q-103 0 -163.5 51t-60.5 142q0 45 16 82h-57v56h99q12 11 26 20t36.5 19l30.5 13.5t39.5 15.5t32.5 12h-264z" />
    <glyph glyph-name="afii61289" unicode="&#x2113;" horiz-adv-x="572" 
d="M42 290q53 0 101 6l45 257q16 87 60 133t109 46q63 0 102.5 -42.5t39.5 -127.5q0 -119 -79 -199.5t-218 -111.5l-11 -65q-5 -30 -5 -48q0 -50 26 -71t76 -21q64 0 118 34l11 -59q-53 -33 -135 -33q-164 0 -164 143q0 24 7 64l8 44q-40 -5 -101 -5zM254 544l-41 -233
q106 29 165.5 94t59.5 158q0 57 -22 84t-56 27q-37 0 -65.5 -31t-40.5 -99z" />
    <glyph glyph-name="afii61352" unicode="&#x2116;" horiz-adv-x="1053" 
d="M699 528q0 70 40 117t107 47q66 0 105.5 -46t39.5 -117t-40 -118t-107 -47t-106 46.5t-39 117.5zM754 528q0 -53 23 -85.5t68 -32.5t68 32.5t23 85.5t-23 85.5t-68 32.5t-68 -32.5t-23 -85.5zM96 0v720h81l369 -579v579h67v-720h-59l-391 612v-612h-67z" />
    <glyph glyph-name="uni2117" unicode="&#x2117;" horiz-adv-x="838" 
d="M303 541h136q64 0 99.5 -28t35.5 -82q0 -55 -36.5 -82.5t-102.5 -27.5h-75v-146h-57v366zM360 369h76q81 0 81 61t-81 61h-76v-122zM92 360q0 -140 94.5 -233.5t232.5 -93.5t232.5 93.5t94.5 233.5t-94.5 233.5t-232.5 93.5t-232.5 -93.5t-94.5 -233.5zM791 360
q0 -159 -107.5 -265.5t-264.5 -106.5t-264.5 106.5t-107.5 265.5t107.5 265.5t264.5 106.5t264.5 -106.5t107.5 -265.5z" />
    <glyph glyph-name="uni2120" unicode="&#x2120;" horiz-adv-x="770" 
d="M545 380h-46l-75 203q-21 57 -26 78h-2q0 -16 -4 -80l-16 -201h-49l33 340h65l72 -202q0 -1 5 -13.5t10.5 -30.5t9.5 -35h2q8 32 25 76l77 205h65l28 -340h-50l-15 206q-3 48 -3 75h-2q-5 -25 -27 -80zM38 405l13 43q57 -32 100 -32q33 0 53 15.5t20 41.5q0 27 -27 43
t-60 23t-60 29.5t-27 60.5q0 44 32 71t84 27q56 0 102 -31l-13 -45q-46 31 -89 31q-31 0 -48.5 -13t-17.5 -35q0 -21 18 -33.5t43.5 -20t51 -17t43.5 -31t18 -55.5q0 -48 -33.5 -76t-90.5 -28q-61 0 -112 32z" />
    <glyph glyph-name="trademark" unicode="&#x2122;" horiz-adv-x="753" 
d="M528 380h-46l-75 203q-21 57 -26 78h-2q0 -16 -4 -80l-16 -201h-49l33 340h65l72 -202q0 -1 5 -13.5t10.5 -30.5t9.5 -35h2q8 32 25 76l77 205h65l28 -340h-50l-15 206q-3 48 -3 75h-2q-5 -25 -27 -80zM122 380v295h-102v45h255v-45h-102v-295h-51z" />
    <glyph glyph-name="Omega" unicode="&#x2126;" horiz-adv-x="716" 
d="M359 732q131 0 214.5 -91.5t83.5 -246.5q0 -203 -154 -330h184v-64h-267v55q84 69 125 149.5t41 183.5q0 132 -62 206t-166 74t-166 -74t-62 -206q0 -103 41 -183.5t125 -149.5v-55h-267v64h183q-153 127 -153 325q0 157 84 250t216 93z" />
    <glyph glyph-name="estimated" unicode="&#x212e;" horiz-adv-x="736" 
d="M368 15q120 0 196 82h48q-43 -50 -107 -79.5t-137 -29.5q-126 0 -217 81.5t-91 195.5t91 195.5t217 81.5t217 -81.5t91 -195.5v-14h-513v-146q79 -90 205 -90zM368 515q-126 0 -205 -90v-146h410v146q-79 90 -205 90z" />
    <glyph glyph-name="uni2150" unicode="&#x2150;" horiz-adv-x="796" 
d="M88 0l450 720h58l-450 -720h-58zM39 622l-19 45l101 53h43v-446h-53v386zM598 0h-58q76 199 174 397h-222v49h282v-46q-82 -160 -176 -400z" />
    <glyph glyph-name="uni2151" unicode="&#x2151;" horiz-adv-x="785" 
d="M88 0l450 720h58l-450 -720h-58zM573 -5q-58 0 -104 29l18 46q44 -28 89 -28q115 0 121 166q-51 -50 -116 -50q-60 0 -97 40t-37 106q0 71 41.5 112t102.5 41q71 0 115 -59.5t44 -167.5q0 -114 -49 -174.5t-128 -60.5zM592 203q51 0 105 49q-5 78 -33.5 118t-75.5 40
q-39 0 -64 -27t-25 -76q0 -48 25 -76t68 -28zM39 622l-19 45l101 53h43v-446h-53v386z" />
    <glyph glyph-name="uni2152" unicode="&#x2152;" horiz-adv-x="1073" 
d="M88 0l450 720h58l-450 -720h-58zM39 622l-19 45l101 53h43v-446h-53v386zM472 348l-19 45l101 53h43v-446h-53v386zM1039 224q0 -111 -45.5 -171.5t-117.5 -60.5t-116.5 60t-44.5 170q0 111 45.5 171.5t117.5 60.5t116.5 -60t44.5 -170zM986 223q0 183 -109 183
t-109 -183t109 -183t109 183z" />
    <glyph glyph-name="onethird" unicode="&#x2153;" horiz-adv-x="785" 
d="M88 0l450 720h58l-450 -720h-58zM609 454q57 0 93.5 -29.5t36.5 -82.5q0 -80 -90 -111q101 -23 101 -114q0 -59 -43.5 -92t-113.5 -33q-73 0 -130 32l16 48q59 -33 115 -33q48 0 75.5 20.5t27.5 59.5q0 83 -125 83q-10 0 -42 -2v47q74 0 115.5 23t41.5 67q0 33 -23 51
t-62 18q-50 0 -107 -40l-15 45q63 43 129 43zM39 622l-19 45l101 53h43v-446h-53v386z" />
    <glyph glyph-name="twothirds" unicode="&#x2154;" horiz-adv-x="894" 
d="M234 0l450 720h58l-450 -720h-58zM726 454q57 0 93.5 -29.5t36.5 -82.5q0 -80 -90 -111q101 -23 101 -114q0 -59 -43.5 -92t-113.5 -33q-73 0 -130 32l16 48q59 -33 115 -33q48 0 75.5 20.5t27.5 59.5q0 83 -125 83q-10 0 -42 -2v47q74 0 115.5 23t41.5 67q0 33 -23 51
t-62 18q-50 0 -107 -40l-15 45q63 43 129 43zM253 599q0 36 -20.5 58.5t-59.5 22.5q-61 0 -119 -68l-18 45q58 71 142 71q59 0 93.5 -34t34.5 -92q0 -57 -42.5 -119t-151.5 -161h207v-48h-283v42q122 109 169.5 170.5t47.5 112.5z" />
    <glyph glyph-name="uni2155" unicode="&#x2155;" horiz-adv-x="784" 
d="M88 0l450 720h58l-450 -720h-58zM702 134q0 99 -119 99q-47 0 -100 -16l8 229h244v-48h-195l-5 -126q29 6 60 6q72 0 116 -37t44 -105q0 -69 -44 -106.5t-116 -37.5q-68 0 -128 31l17 49q57 -34 113 -34q50 0 77.5 24t27.5 72zM39 622l-19 45l101 53h43v-446h-53v386z
" />
    <glyph glyph-name="uni2156" unicode="&#x2156;" horiz-adv-x="926" 
d="M230 0l450 720h58l-450 -720h-58zM253 599q0 36 -20.5 58.5t-59.5 22.5q-61 0 -119 -68l-18 45q58 71 142 71q59 0 93.5 -34t34.5 -92q0 -57 -42.5 -119t-151.5 -161h207v-48h-283v42q122 109 169.5 170.5t47.5 112.5zM844 134q0 99 -119 99q-47 0 -100 -16l8 229h244
v-48h-195l-5 -126q29 6 60 6q72 0 116 -37t44 -105q0 -69 -44 -106.5t-116 -37.5q-68 0 -128 31l17 49q57 -34 113 -34q50 0 77.5 24t27.5 72z" />
    <glyph glyph-name="uni2157" unicode="&#x2157;" horiz-adv-x="853" 
d="M160 0l450 720h58l-450 -720h-58zM774 134q0 99 -119 99q-47 0 -100 -16l8 229h244v-48h-195l-5 -126q29 6 60 6q72 0 116 -37t44 -105q0 -69 -44 -106.5t-116 -37.5q-68 0 -128 31l17 49q57 -34 113 -34q50 0 77.5 24t27.5 72zM168 728q57 0 93.5 -29.5t36.5 -82.5
q0 -80 -90 -111q101 -23 101 -114q0 -59 -43.5 -92t-113.5 -33q-73 0 -130 32l16 48q59 -33 115 -33q48 0 75.5 20.5t27.5 59.5q0 83 -125 83q-10 0 -42 -2v47q74 0 115.5 23t41.5 67q0 33 -23 51t-62 18q-50 0 -107 -40l-15 45q63 43 129 43z" />
    <glyph glyph-name="uni2158" unicode="&#x2158;" horiz-adv-x="894" 
d="M200 0l450 720h58l-450 -720h-58zM22 367v46l203 307h64v-306h68v-47h-68v-93h-52v93h-215zM76 414h161v243zM815 134q0 99 -119 99q-47 0 -100 -16l8 229h244v-48h-195l-5 -126q29 6 60 6q72 0 116 -37t44 -105q0 -69 -44 -106.5t-116 -37.5q-68 0 -128 31l17 49
q57 -34 113 -34q50 0 77.5 24t27.5 72z" />
    <glyph glyph-name="uni2159" unicode="&#x2159;" horiz-adv-x="754" 
d="M88 0l450 720h58l-450 -720h-58zM603 454q58 0 104 -29l-18 -47q-44 28 -89 28q-115 0 -122 -166q52 51 118 51q59 0 96 -40t37 -106q0 -71 -41.5 -112t-102.5 -41q-72 0 -115.5 60t-43.5 168q0 114 48.5 174t128.5 60zM584 245q-52 0 -105 -50q10 -157 108 -157
q40 0 65 27t25 76q0 48 -25 76t-68 28zM39 622l-19 45l101 53h43v-446h-53v386z" />
    <glyph glyph-name="uni215A" unicode="&#x215a;" horiz-adv-x="825" 
d="M159 0l450 720h58l-450 -720h-58zM260 408q0 99 -119 99q-47 0 -100 -16l8 229h244v-48h-195l-5 -126q29 6 60 6q72 0 116 -37t44 -105q0 -69 -44 -106.5t-116 -37.5q-68 0 -128 31l17 49q57 -34 113 -34q50 0 77.5 24t27.5 72zM673 454q58 0 104 -29l-18 -47
q-44 28 -89 28q-115 0 -122 -166q52 51 118 51q59 0 96 -40t37 -106q0 -71 -41.5 -112t-102.5 -41q-72 0 -115.5 60t-43.5 168q0 114 48.5 174t128.5 60zM654 245q-52 0 -105 -50q10 -157 108 -157q40 0 65 27t25 76q0 48 -25 76t-68 28z" />
    <glyph glyph-name="oneeighth" unicode="&#x215b;" horiz-adv-x="766" 
d="M88 0l450 720h58l-450 -720h-58zM427 113q0 45 28 72t77 48q-84 38 -84 105q0 52 39.5 84t99.5 32t97.5 -31t37.5 -81q0 -39 -22 -60.5t-66 -43.5q50 -20 79 -47t29 -74q0 -58 -45 -91.5t-115 -33.5q-69 0 -112 32.5t-43 88.5zM500 340q0 -29 20 -45.5t67 -35.5
q44 18 63.5 35.5t19.5 44.5q0 33 -23.5 52t-62.5 19q-38 0 -61 -18.5t-23 -51.5zM690 115q0 18 -7 31.5t-25.5 26t-32.5 19l-46 20.5q-51 -21 -75.5 -41.5t-24.5 -54.5q0 -37 28.5 -58.5t76.5 -21.5q47 0 76.5 21t29.5 58zM39 622l-19 45l101 53h43v-446h-53v386z" />
    <glyph glyph-name="threeeighths" unicode="&#x215c;" horiz-adv-x="838" 
d="M160 0l450 720h58l-450 -720h-58zM499 113q0 45 28 72t77 48q-84 38 -84 105q0 52 39.5 84t99.5 32t97.5 -31t37.5 -81q0 -39 -22 -60.5t-66 -43.5q50 -20 79 -47t29 -74q0 -58 -45 -91.5t-115 -33.5q-69 0 -112 32.5t-43 88.5zM572 340q0 -29 20 -45.5t67 -35.5
q44 18 63.5 35.5t19.5 44.5q0 33 -23.5 52t-62.5 19q-38 0 -61 -18.5t-23 -51.5zM762 115q0 18 -7 31.5t-25.5 26t-32.5 19l-46 20.5q-51 -21 -75.5 -41.5t-24.5 -54.5q0 -37 28.5 -58.5t76.5 -21.5q47 0 76.5 21t29.5 58zM168 728q57 0 93.5 -29.5t36.5 -82.5
q0 -80 -90 -111q101 -23 101 -114q0 -59 -43.5 -92t-113.5 -33q-73 0 -130 32l16 48q59 -33 115 -33q48 0 75.5 20.5t27.5 59.5q0 83 -125 83q-10 0 -42 -2v47q74 0 115.5 23t41.5 67q0 33 -23 51t-62 18q-50 0 -107 -40l-15 45q63 43 129 43z" />
    <glyph glyph-name="fiveeighths" unicode="&#x215d;" horiz-adv-x="837" 
d="M159 0l450 720h58l-450 -720h-58zM498 113q0 45 28 72t77 48q-84 38 -84 105q0 52 39.5 84t99.5 32t97.5 -31t37.5 -81q0 -39 -22 -60.5t-66 -43.5q50 -20 79 -47t29 -74q0 -58 -45 -91.5t-115 -33.5q-69 0 -112 32.5t-43 88.5zM571 340q0 -29 20 -45.5t67 -35.5
q44 18 63.5 35.5t19.5 44.5q0 33 -23.5 52t-62.5 19q-38 0 -61 -18.5t-23 -51.5zM761 115q0 18 -7 31.5t-25.5 26t-32.5 19l-46 20.5q-51 -21 -75.5 -41.5t-24.5 -54.5q0 -37 28.5 -58.5t76.5 -21.5q47 0 76.5 21t29.5 58zM260 408q0 99 -119 99q-47 0 -100 -16l8 229h244
v-48h-195l-5 -126q29 6 60 6q72 0 116 -37t44 -105q0 -69 -44 -106.5t-116 -37.5q-68 0 -128 31l17 49q57 -34 113 -34q50 0 77.5 24t27.5 72z" />
    <glyph glyph-name="seveneighths" unicode="&#x215e;" horiz-adv-x="727" 
d="M49 0l450 720h58l-450 -720h-58zM388 113q0 45 28 72t77 48q-84 38 -84 105q0 52 39.5 84t99.5 32t97.5 -31t37.5 -81q0 -39 -22 -60.5t-66 -43.5q50 -20 79 -47t29 -74q0 -58 -45 -91.5t-115 -33.5q-69 0 -112 32.5t-43 88.5zM461 340q0 -29 20 -45.5t67 -35.5
q44 18 63.5 35.5t19.5 44.5q0 33 -23.5 52t-62.5 19q-38 0 -61 -18.5t-23 -51.5zM651 115q0 18 -7 31.5t-25.5 26t-32.5 19l-46 20.5q-51 -21 -75.5 -41.5t-24.5 -54.5q0 -37 28.5 -58.5t76.5 -21.5q47 0 76.5 21t29.5 58zM139 274h-58q76 199 174 397h-222v49h282v-46
q-82 -160 -176 -400z" />
    <glyph glyph-name="uni215F" unicode="&#x215f;" horiz-adv-x="528" 
d="M88 0l450 720h58l-450 -720h-58zM39 622l-19 45l101 53h43v-446h-53v386z" />
    <glyph glyph-name="uni2189" unicode="&#x2189;" horiz-adv-x="891" 
d="M194 0l450 720h58l-450 -720h-58zM715 454q57 0 93.5 -29.5t36.5 -82.5q0 -80 -90 -111q101 -23 101 -114q0 -59 -43.5 -92t-113.5 -33q-73 0 -130 32l16 48q59 -33 115 -33q48 0 75.5 20.5t27.5 59.5q0 83 -125 83q-10 0 -42 -2v47q74 0 115.5 23t41.5 67q0 33 -23 51
t-62 18q-50 0 -107 -40l-15 45q63 43 129 43zM360 498q0 -111 -45.5 -171.5t-117.5 -60.5t-116.5 60t-44.5 170q0 111 45.5 171.5t117.5 60.5t116.5 -60t44.5 -170zM307 497q0 183 -109 183t-109 -183t109 -183t109 183z" />
    <glyph glyph-name="arrowleft" unicode="&#x2190;" 
d="M462 556l-99 -99q-99 -99 -125 -120v-2q33 4 170 4h458v-60h-458q-137 0 -170 4v-2q26 -21 125 -120l99 -99l-40 -42l-288 289l288 289z" />
    <glyph glyph-name="arrowup" unicode="&#x2191;" 
d="M530 0h-60v458q0 126 4 170h-2q-25 -31 -119 -125l-101 -101l-40 41l288 289l288 -289l-40 -41l-101 101q-94 94 -119 125h-2q4 -44 4 -170v-458z" />
    <glyph glyph-name="arrowright" unicode="&#x2192;" 
d="M538 62l99 99q99 99 125 120v2q-33 -4 -170 -4h-458v60h458q137 0 170 -4v2q-26 21 -125 120l-99 99l40 42l288 -289l-288 -289z" />
    <glyph glyph-name="arrowdown" unicode="&#x2193;" 
d="M470 720h60v-458q0 -126 -4 -170h2q25 31 119 125l101 101l40 -41l-288 -289l-288 289l40 41l101 -101q94 -94 119 -125h2q-4 44 -4 170v458z" />
    <glyph glyph-name="uni2196" unicode="&#x2196;" 
d="M725 140l-40 -41l-325 325q-97 97 -118 123l-1 -2q3 -33 3 -173v-143h-57v409h408v-59h-142q-139 0 -172 3l-2 -1q17 -14 122 -117z" />
    <glyph glyph-name="uni2197" unicode="&#x2197;" 
d="M261 99l-40 41l324 324q100 100 122 117l-2 1q-33 -3 -172 -3h-142v59h408v-409h-57v143q0 140 3 173l-1 2q-21 -26 -118 -123z" />
    <glyph glyph-name="uni2198" unicode="&#x2198;" 
d="M221 564l40 41l325 -325q97 -97 118 -123l1 2q-3 33 -3 173v143h57v-409h-408v59h142q139 0 172 -3l2 1q-17 14 -122 117z" />
    <glyph glyph-name="uni2199" unicode="&#x2199;" 
d="M685 605l40 -41l-324 -324q-100 -100 -122 -117l2 -1q33 3 172 3h142v-59h-408v409h57v-143q0 -140 -3 -173l1 -2q21 26 118 123z" />
    <glyph glyph-name="partialdiff" unicode="&#x2202;" horiz-adv-x="572" 
d="M315 673q-68 0 -135 -51l-11 59q64 51 151 51q97 0 153.5 -77.5t56.5 -236.5q0 -195 -82.5 -312.5t-204.5 -117.5q-84 0 -142.5 57.5t-58.5 165.5q0 123 75 197t180 74q92 0 165 -62q-1 253 -147 253zM247 45q84 0 142 81.5t70 222.5q-72 75 -157 75q-81 0 -136 -58
t-55 -156q0 -82 38.5 -123.5t97.5 -41.5z" />
    <glyph glyph-name="emptyset" unicode="&#x2205;" horiz-adv-x="676" 
d="M171 -73l-47 29l49 83q-53 38 -83 96.5t-30 129.5q0 120 79.5 198.5t198.5 78.5q61 0 117 -24l50 85l47 -29l-49 -83q53 -38 83 -96.5t30 -129.5q0 -120 -79.5 -198.5t-198.5 -78.5q-61 0 -117 24zM116 265q0 -113 85 -178l226 383q-39 16 -88 16q-96 0 -159.5 -62.5
t-63.5 -158.5zM560 265q0 113 -85 178l-226 -383q39 -16 88 -16q96 0 159.5 62.5t63.5 158.5z" />
    <glyph glyph-name="Delta" unicode="&#x2206;" horiz-adv-x="673" 
d="M380 720l237 -665v-55h-561v55l241 665h83zM337 646l-206 -582h409z" />
    <glyph glyph-name="product" unicode="&#x220f;" horiz-adv-x="712" 
d="M96 -140v860h519v-860h-71v795h-377v-795h-71z" />
    <glyph glyph-name="summation" unicode="&#x2211;" horiz-adv-x="568" 
d="M50 -140v54l289 383l-267 368v55h460v-65h-370l259 -357l-282 -374h396v-64h-485z" />
    <glyph glyph-name="minus" unicode="&#x2212;" horiz-adv-x="572" 
d="M530 285v-60h-488v60h488z" />
    <glyph glyph-name="uni2215" unicode="&#x2215;" horiz-adv-x="572" 
d="M32 0l450 720h58l-450 -720h-58z" />
    <glyph glyph-name="uni2219" unicode="&#x2219;" horiz-adv-x="572" 
d="M405 350q0 -52 -33.5 -85.5t-84.5 -33.5t-84.5 33.5t-33.5 85.5t33.5 85.5t84.5 33.5t84.5 -33.5t33.5 -85.5z" />
    <glyph glyph-name="radical" unicode="&#x221a;" horiz-adv-x="572" 
d="M215 -80l-200 510h72l164 -426l278 716h70l-313 -800h-71z" />
    <glyph glyph-name="infinity" unicode="&#x221e;" horiz-adv-x="800" 
d="M187 61q-65 0 -106 49.5t-41 140.5q0 93 42 145.5t110 52.5q24 0 44.5 -6t43 -24t35.5 -30t43 -44l44 -47q11 11 37 39.5l35.5 38.5t30.5 28.5t34.5 25t33 13t40.5 6.5q65 0 106 -49.5t41 -140.5q0 -92 -42 -145t-110 -53q-24 0 -44.5 6t-43 24t-35.5 30t-43 44l-44 47
l-44 -47t-43 -44t-35.5 -30t-43 -24t-45.5 -6zM610 391q-35 0 -69 -27.5t-107 -107.5q69 -78 106 -107.5t72 -29.5q42 0 69.5 36t27.5 100t-27.5 100t-71.5 36zM190 119q35 0 69 27.5t107 107.5q-69 78 -106 107.5t-72 29.5q-42 0 -69.5 -36t-27.5 -100t27.5 -100t71.5 -36z
" />
    <glyph glyph-name="integral" unicode="&#x222b;" horiz-adv-x="347" 
d="M139 -80v670q0 130 144 130h31v-58h-31q-42 0 -58.5 -18t-16.5 -54v-670q0 -130 -144 -130h-31v58h31q42 0 58.5 18t16.5 54z" />
    <glyph glyph-name="congruent" unicode="&#x2245;" horiz-adv-x="572" 
d="M530 49v-56h-488v56h488zM530 253v-56h-488v56h488zM165 426q-57 0 -106 -46l-29 48q60 54 136 54q40 0 124 -25t117 -25q57 0 106 46l29 -48q-60 -54 -136 -54q-40 0 -124 25t-117 25z" />
    <glyph glyph-name="approxequal" unicode="&#x2248;" horiz-adv-x="572" 
d="M165 346q-57 0 -106 -46l-29 48q60 54 136 54q40 0 124 -25t117 -25q57 0 106 46l29 -48q-60 -54 -136 -54q-40 0 -124 25t-117 25zM165 158q-57 0 -106 -46l-29 48q60 54 136 54q40 0 124 -25t117 -25q57 0 106 46l29 -48q-60 -54 -136 -54q-40 0 -124 25t-117 25z" />
    <glyph glyph-name="notequal" unicode="&#x2260;" horiz-adv-x="572" 
d="M530 181v-56h-286l-82 -142l-49 29l65 113h-136v56h169l85 148h-254v56h286l82 142l49 -29l-65 -113h136v-56h-169l-85 -148h254z" />
    <glyph glyph-name="lessequal" unicode="&#x2264;" horiz-adv-x="572" 
d="M42 277v56l488 177v-59l-411 -146l411 -146v-59zM530 49v-56h-488v56h488z" />
    <glyph glyph-name="greaterequal" unicode="&#x2265;" horiz-adv-x="572" 
d="M530 333v-56l-488 -177v59l411 146l-411 146v59zM42 -7v56h488v-56h-488z" />
    <glyph glyph-name="circleplus" unicode="&#x2295;" 
d="M173 360q0 -140 94.5 -233.5t232.5 -93.5t232.5 93.5t94.5 233.5t-94.5 233.5t-232.5 93.5t-232.5 -93.5t-94.5 -233.5zM872 360q0 -159 -107.5 -265.5t-264.5 -106.5t-264.5 106.5t-107.5 265.5t107.5 265.5t264.5 106.5t264.5 -106.5t107.5 -265.5zM529 113h-58v218
h-209v58h209v218h58v-218h209v-58h-209v-218z" />
    <glyph glyph-name="uni2296" unicode="&#x2296;" 
d="M173 360q0 -140 94.5 -233.5t232.5 -93.5t232.5 93.5t94.5 233.5t-94.5 233.5t-232.5 93.5t-232.5 -93.5t-94.5 -233.5zM872 360q0 -159 -107.5 -265.5t-264.5 -106.5t-264.5 106.5t-107.5 265.5t107.5 265.5t264.5 106.5t264.5 -106.5t107.5 -265.5zM738 331h-476v58
h476v-58z" />
    <glyph glyph-name="circlemultiply" unicode="&#x2297;" 
d="M173 360q0 -140 94.5 -233.5t232.5 -93.5t232.5 93.5t94.5 233.5t-94.5 233.5t-232.5 93.5t-232.5 -93.5t-94.5 -233.5zM872 360q0 -159 -107.5 -265.5t-264.5 -106.5t-264.5 106.5t-107.5 265.5t107.5 265.5t264.5 106.5t264.5 -106.5t107.5 -265.5zM294 526l39 41
l167 -167l167 167l39 -41l-166 -166l166 -166l-39 -41l-167 167l-167 -167l-39 41l166 166z" />
    <glyph glyph-name="uni2298" unicode="&#x2298;" 
d="M173 360q0 -140 94.5 -233.5t232.5 -93.5t232.5 93.5t94.5 233.5t-94.5 233.5t-232.5 93.5t-232.5 -93.5t-94.5 -233.5zM872 360q0 -159 -107.5 -265.5t-264.5 -106.5t-264.5 106.5t-107.5 265.5t107.5 265.5t264.5 106.5t264.5 -106.5t107.5 -265.5zM294 194l373 373
l39 -41l-373 -373z" />
    <glyph glyph-name="uni229C" unicode="&#x229c;" 
d="M173 360q0 -140 94.5 -233.5t232.5 -93.5t232.5 93.5t94.5 233.5t-94.5 233.5t-232.5 93.5t-232.5 -93.5t-94.5 -233.5zM872 360q0 -159 -107.5 -265.5t-264.5 -106.5t-264.5 106.5t-107.5 265.5t107.5 265.5t264.5 106.5t264.5 -106.5t107.5 -265.5zM738 486v-54h-476
v54h476zM738 288v-54h-476v54h476z" />
    <glyph glyph-name="dotmath" unicode="&#x22c5;" horiz-adv-x="572" 
d="M336 257q0 -21 -14 -35.5t-36 -14.5t-36 14.5t-14 35.5t14 35.5t36 14.5t36 -14.5t14 -35.5z" />
    <glyph glyph-name="uni2460" unicode="&#x2460;" 
d="M403 454l-19 44l100 52h42v-440h-52v381zM968 330q0 -201 -135 -334.5t-333 -133.5t-333 133.5t-135 334.5t135 334.5t333 133.5t333 -133.5t135 -334.5zM923 330q0 181 -122 302t-301 121t-301 -121t-122 -302t122 -302t301 -121t301 121t122 302z" />
    <glyph glyph-name="uni2461" unicode="&#x2461;" 
d="M574 431q0 36 -20.5 58t-58.5 22q-60 0 -118 -67l-17 44q55 70 140 70q58 0 92.5 -33.5t34.5 -90.5q0 -56 -42 -117t-150 -159h204v-48h-279v42q120 108 167 168t47 111zM968 330q0 -201 -135 -334.5t-333 -133.5t-333 133.5t-135 334.5t135 334.5t333 133.5t333 -133.5
t135 -334.5zM923 330q0 181 -122 302t-301 121t-301 -121t-122 -302t122 -302t301 -121t301 121t122 302z" />
    <glyph glyph-name="uni2462" unicode="&#x2462;" 
d="M503 558q57 0 93 -29t36 -81q0 -79 -89 -110q100 -23 100 -112q0 -59 -43.5 -91.5t-112.5 -32.5q-73 0 -128 32l16 47q55 -32 113 -32q48 0 75 20t27 59q0 82 -123 82q-10 0 -42 -2v46q73 0 114 23t41 66q0 32 -22.5 50t-61.5 18q-49 0 -106 -40l-14 45q60 42 127 42z
M968 330q0 -201 -135 -334.5t-333 -133.5t-333 133.5t-135 334.5t135 334.5t333 133.5t333 -133.5t135 -334.5zM923 330q0 181 -122 302t-301 121t-301 -121t-122 -302t122 -302t301 -121t301 121t122 302z" />
    <glyph glyph-name="uni2463" unicode="&#x2463;" 
d="M302 202v45l200 303h64v-302h67v-46h-67v-92h-52v92h-212zM355 248h159v240zM968 330q0 -201 -135 -334.5t-333 -133.5t-333 133.5t-135 334.5t135 334.5t333 133.5t333 -133.5t135 -334.5zM923 330q0 181 -122 302t-301 121t-301 -121t-122 -302t122 -302t301 -121
t301 121t122 302z" />
    <glyph glyph-name="uni2464" unicode="&#x2464;" 
d="M590 242q0 98 -118 98q-46 0 -98 -16l7 226h242v-47h-193l-5 -124q29 6 59 6q71 0 114.5 -36.5t43.5 -104.5t-43.5 -105t-114.5 -37q-68 0 -126 31l17 48q54 -33 111 -33q104 0 104 94zM968 330q0 -201 -135 -334.5t-333 -133.5t-333 133.5t-135 334.5t135 334.5
t333 133.5t333 -133.5t135 -334.5zM923 330q0 181 -122 302t-301 121t-301 -121t-122 -302t122 -302t301 -121t301 121t122 302z" />
    <glyph glyph-name="uni2465" unicode="&#x2465;" 
d="M516 558q56 0 102 -28l-17 -47q-44 28 -88 28q-114 0 -121 -164q51 50 117 50q58 0 94.5 -39.5t36.5 -104.5q0 -69 -41 -110t-101 -41q-71 0 -114 59t-43 166q0 112 48 171.5t127 59.5zM497 352q-51 0 -104 -49q10 -155 107 -155q39 0 64 26.5t25 74.5t-24.5 75.5
t-67.5 27.5zM968 330q0 -201 -135 -334.5t-333 -133.5t-333 133.5t-135 334.5t135 334.5t333 133.5t333 -133.5t135 -334.5zM923 330q0 181 -122 302t-301 121t-301 -121t-122 -302t122 -302t301 -121t301 121t122 302z" />
    <glyph glyph-name="uni2466" unicode="&#x2466;" 
d="M469 110h-57q73 192 172 392h-219v48h278v-45q-79 -155 -174 -395zM968 330q0 -201 -135 -334.5t-333 -133.5t-333 133.5t-135 334.5t135 334.5t333 133.5t333 -133.5t135 -334.5zM923 330q0 181 -122 302t-301 121t-301 -121t-122 -302t122 -302t301 -121t301 121
t122 302z" />
    <glyph glyph-name="uni2467" unicode="&#x2467;" 
d="M968 330q0 -201 -135 -334.5t-333 -133.5t-333 133.5t-135 334.5t135 334.5t333 133.5t333 -133.5t135 -334.5zM923 330q0 181 -122 302t-301 121t-301 -121t-122 -302t122 -302t301 -121t301 121t122 302zM344 222q0 45 27.5 71t76.5 47q-84 38 -84 104q0 51 39.5 82.5
t98.5 31.5t96 -30.5t37 -79.5q0 -39 -21.5 -60t-65.5 -43q50 -20 78.5 -46.5t28.5 -72.5q0 -57 -44.5 -90.5t-113.5 -33.5q-68 0 -110.5 32.5t-42.5 87.5zM415 446q0 -28 19.5 -44t67.5 -36q44 18 63 35t19 44q0 32 -23.5 51t-61.5 19q-37 0 -60.5 -18.5t-23.5 -50.5z
M604 223q0 18 -7 31.5t-25.5 25.5t-32.5 19t-45 20q-50 -20 -74.5 -40t-24.5 -54q0 -37 28.5 -58t75.5 -21t76 20.5t29 56.5z" />
    <glyph glyph-name="uni2468" unicode="&#x2468;" 
d="M484 102q-57 0 -103 29l18 45q42 -27 88 -27q114 0 120 164q-51 -50 -115 -50q-59 0 -95.5 39.5t-36.5 104.5q0 70 41 110.5t101 40.5q70 0 113.5 -58.5t43.5 -165.5q0 -113 -48.5 -172.5t-126.5 -59.5zM503 308q51 0 104 48q-5 77 -33 116.5t-75 39.5q-38 0 -63 -27
t-25 -75q0 -47 24.5 -74.5t67.5 -27.5zM968 330q0 -201 -135 -334.5t-333 -133.5t-333 133.5t-135 334.5t135 334.5t333 133.5t333 -133.5t135 -334.5zM923 330q0 181 -122 302t-301 121t-301 -121t-122 -302t122 -302t301 -121t301 121t122 302z" />
    <glyph glyph-name="uni2469" unicode="&#x2469;" 
d="M772 331q0 -110 -44.5 -169.5t-116.5 -59.5q-71 0 -115 59t-44 168q0 110 44.5 169.5t116.5 59.5q71 0 115 -59t44 -168zM720 330q0 181 -108 181t-108 -181q0 -180 108 -180t108 180zM252 454l-19 44l100 52h42v-440h-52v381zM968 330q0 -201 -135 -334.5t-333 -133.5
t-333 133.5t-135 334.5t135 334.5t333 133.5t333 -133.5t135 -334.5zM923 330q0 181 -122 302t-301 121t-301 -121t-122 -302t122 -302t301 -121t301 121t122 302z" />
    <glyph glyph-name="uni246A" unicode="&#x246a;" 
d="M535 454l-19 44l100 52h42v-440h-52v381zM300 454l-19 44l100 52h42v-440h-52v381zM968 330q0 -201 -135 -334.5t-333 -133.5t-333 133.5t-135 334.5t135 334.5t333 133.5t333 -133.5t135 -334.5zM923 330q0 181 -122 302t-301 121t-301 -121t-122 -302t122 -302
t301 -121t301 121t122 302z" />
    <glyph glyph-name="uni246B" unicode="&#x246b;" 
d="M253 454l-19 44l100 52h42v-440h-52v381zM686 431q0 36 -20.5 58t-58.5 22q-60 0 -118 -67l-17 44q55 70 140 70q58 0 92.5 -33.5t34.5 -90.5q0 -56 -42 -117t-150 -159h204v-48h-279v42q120 108 167 168t47 111zM968 330q0 -201 -135 -334.5t-333 -133.5t-333 133.5
t-135 334.5t135 334.5t333 133.5t333 -133.5t135 -334.5zM923 330q0 181 -122 302t-301 121t-301 -121t-122 -302t122 -302t301 -121t301 121t122 302z" />
    <glyph glyph-name="uni246C" unicode="&#x246c;" 
d="M253 454l-19 44l100 52h42v-440h-52v381zM604 558q57 0 93 -29t36 -81q0 -79 -89 -110q100 -23 100 -112q0 -59 -43.5 -91.5t-112.5 -32.5q-73 0 -128 32l16 47q55 -32 113 -32q48 0 75 20t27 59q0 82 -123 82q-10 0 -42 -2v46q73 0 114 23t41 66q0 32 -22.5 50t-61.5 18
q-49 0 -106 -40l-14 45q60 42 127 42zM968 330q0 -201 -135 -334.5t-333 -133.5t-333 133.5t-135 334.5t135 334.5t333 133.5t333 -133.5t135 -334.5zM923 330q0 181 -122 302t-301 121t-301 -121t-122 -302t122 -302t301 -121t301 121t122 302z" />
    <glyph glyph-name="uni246D" unicode="&#x246d;" 
d="M440 202v45l200 303h64v-302h67v-46h-67v-92h-52v92h-212zM493 248h159v240zM253 454l-19 44l100 52h42v-440h-52v381zM968 330q0 -201 -135 -334.5t-333 -133.5t-333 133.5t-135 334.5t135 334.5t333 133.5t333 -133.5t135 -334.5zM923 330q0 181 -122 302t-301 121
t-301 -121t-122 -302t122 -302t301 -121t301 121t122 302z" />
    <glyph glyph-name="uni246E" unicode="&#x246e;" 
d="M696 242q0 98 -118 98q-46 0 -98 -16l7 226h242v-47h-193l-5 -124q29 6 59 6q71 0 114.5 -36.5t43.5 -104.5t-43.5 -105t-114.5 -37q-68 0 -126 31l17 48q54 -33 111 -33q104 0 104 94zM253 454l-19 44l100 52h42v-440h-52v381zM968 330q0 -201 -135 -334.5t-333 -133.5
t-333 133.5t-135 334.5t135 334.5t333 133.5t333 -133.5t135 -334.5zM923 330q0 181 -122 302t-301 121t-301 -121t-122 -302t122 -302t301 -121t301 121t122 302z" />
    <glyph glyph-name="uni246F" unicode="&#x246f;" 
d="M634 558q56 0 102 -28l-17 -47q-44 28 -88 28q-114 0 -121 -164q51 50 117 50q58 0 94.5 -39.5t36.5 -104.5q0 -69 -41 -110t-101 -41q-71 0 -114 59t-43 166q0 112 48 171.5t127 59.5zM615 352q-51 0 -104 -49q10 -155 107 -155q39 0 64 26.5t25 74.5t-24.5 75.5
t-67.5 27.5zM253 454l-19 44l100 52h42v-440h-52v381zM968 330q0 -201 -135 -334.5t-333 -133.5t-333 133.5t-135 334.5t135 334.5t333 133.5t333 -133.5t135 -334.5zM923 330q0 181 -122 302t-301 121t-301 -121t-122 -302t122 -302t301 -121t301 121t122 302z" />
    <glyph glyph-name="uni2470" unicode="&#x2470;" 
d="M578 110h-57q73 192 172 392h-219v48h278v-45q-79 -155 -174 -395zM272 454l-19 44l100 52h42v-440h-52v381zM968 330q0 -201 -135 -334.5t-333 -133.5t-333 133.5t-135 334.5t135 334.5t333 133.5t333 -133.5t135 -334.5zM923 330q0 181 -122 302t-301 121t-301 -121
t-122 -302t122 -302t301 -121t301 121t122 302z" />
    <glyph glyph-name="uni2471" unicode="&#x2471;" 
d="M452 222q0 45 27.5 71t76.5 47q-84 38 -84 104q0 51 39.5 82.5t98.5 31.5t96 -30.5t37 -79.5q0 -39 -21.5 -60t-65.5 -43q50 -20 78.5 -46.5t28.5 -72.5q0 -57 -44.5 -90.5t-113.5 -33.5q-68 0 -110.5 32.5t-42.5 87.5zM523 446q0 -28 19.5 -44t67.5 -36q44 18 63 35
t19 44q0 32 -23.5 51t-61.5 19q-37 0 -60.5 -18.5t-23.5 -50.5zM712 223q0 18 -7 31.5t-25.5 25.5t-32.5 19t-45 20q-50 -20 -74.5 -40t-24.5 -54q0 -37 28.5 -58t75.5 -21t76 20.5t29 56.5zM253 454l-19 44l100 52h42v-440h-52v381zM968 330q0 -201 -135 -334.5
t-333 -133.5t-333 133.5t-135 334.5t135 334.5t333 133.5t333 -133.5t135 -334.5zM923 330q0 181 -122 302t-301 121t-301 -121t-122 -302t122 -302t301 -121t301 121t122 302z" />
    <glyph glyph-name="uni2472" unicode="&#x2472;" 
d="M592 102q-57 0 -103 29l18 45q42 -27 88 -27q114 0 120 164q-51 -50 -115 -50q-59 0 -95.5 39.5t-36.5 104.5q0 70 41 110.5t101 40.5q70 0 113.5 -58.5t43.5 -165.5q0 -113 -48.5 -172.5t-126.5 -59.5zM611 308q51 0 104 48q-5 77 -33 116.5t-75 39.5q-38 0 -63 -27
t-25 -75q0 -47 24.5 -74.5t67.5 -27.5zM253 454l-19 44l100 52h42v-440h-52v381zM968 330q0 -201 -135 -334.5t-333 -133.5t-333 133.5t-135 334.5t135 334.5t333 133.5t333 -133.5t135 -334.5zM923 330q0 181 -122 302t-301 121t-301 -121t-122 -302t122 -302t301 -121
t301 121t122 302z" />
    <glyph glyph-name="uni2473" unicode="&#x2473;" 
d="M836 331q0 -110 -44.5 -169.5t-116.5 -59.5q-71 0 -115 59t-44 168q0 110 44.5 169.5t116.5 59.5q71 0 115 -59t44 -168zM784 330q0 181 -108 181t-108 -181q0 -180 108 -180t108 180zM412 431q0 36 -20.5 58t-58.5 22q-60 0 -118 -67l-17 44q55 70 140 70
q58 0 92.5 -33.5t34.5 -90.5q0 -56 -42 -117t-150 -159h204v-48h-279v42q120 108 167 168t47 111zM968 330q0 -201 -135 -334.5t-333 -133.5t-333 133.5t-135 334.5t135 334.5t333 133.5t333 -133.5t135 -334.5zM923 330q0 181 -122 302t-301 121t-301 -121t-122 -302
t122 -302t301 -121t301 121t122 302z" />
    <glyph glyph-name="uni24EA" unicode="&#x24ea;" 
d="M660 331q0 -110 -44.5 -169.5t-116.5 -59.5q-71 0 -115 59t-44 168q0 110 44.5 169.5t116.5 59.5q71 0 115 -59t44 -168zM608 330q0 181 -108 181t-108 -181q0 -180 108 -180t108 180zM968 330q0 -201 -135 -334.5t-333 -133.5t-333 133.5t-135 334.5t135 334.5
t333 133.5t333 -133.5t135 -334.5zM923 330q0 181 -122 302t-301 121t-301 -121t-122 -302t122 -302t301 -121t301 121t122 302z" />
    <glyph glyph-name="uni24EB" unicode="&#x24eb;" 
d="M516 498l19 -44l71 37v-381h52v440h-42zM281 498l19 -44l71 37v-381h52v440h-42zM968 330q0 -201 -135 -334.5t-333 -133.5t-333 133.5t-135 334.5t135 334.5t333 133.5t333 -133.5t135 -334.5z" />
    <glyph glyph-name="uni24EC" unicode="&#x24ec;" 
d="M234 498l19 -44l71 37v-381h52v440h-42zM686 431q0 -51 -47 -111t-167 -168v-42h279v48h-204q108 98 150 159t42 117q0 57 -34.5 90.5t-92.5 33.5q-85 0 -140 -70l17 -44q58 67 118 67q38 0 58.5 -22t20.5 -58zM968 330q0 -201 -135 -334.5t-333 -133.5t-333 133.5
t-135 334.5t135 334.5t333 133.5t333 -133.5t135 -334.5z" />
    <glyph glyph-name="uni24ED" unicode="&#x24ed;" 
d="M234 498l19 -44l71 37v-381h52v440h-42zM604 558q-67 0 -127 -42l14 -45q57 40 106 40q39 0 61.5 -18t22.5 -50q0 -43 -41 -66t-114 -23v-46q32 2 42 2q123 0 123 -82q0 -39 -27 -59t-75 -20q-58 0 -113 32l-16 -47q55 -32 128 -32q69 0 112.5 32.5t43.5 91.5
q0 89 -100 112q89 31 89 110q0 52 -36 81t-93 29zM968 330q0 -201 -135 -334.5t-333 -133.5t-333 133.5t-135 334.5t135 334.5t333 133.5t333 -133.5t135 -334.5z" />
    <glyph glyph-name="uni24EE" unicode="&#x24ee;" 
d="M440 247v-45h212v-92h52v92h67v46h-67v302h-64zM652 248h-159l159 240v-240zM234 498l19 -44l71 37v-381h52v440h-42zM968 330q0 -201 -135 -334.5t-333 -133.5t-333 133.5t-135 334.5t135 334.5t333 133.5t333 -133.5t135 -334.5z" />
    <glyph glyph-name="uni24EF" unicode="&#x24ef;" 
d="M696 242q0 -94 -104 -94q-57 0 -111 33l-17 -48q58 -31 126 -31q71 0 114.5 37t43.5 105t-43.5 104.5t-114.5 36.5q-30 0 -59 -6l5 124h193v47h-242l-7 -226q52 16 98 16q118 0 118 -98zM234 498l19 -44l71 37v-381h52v440h-42zM968 330q0 -201 -135 -334.5t-333 -133.5
t-333 133.5t-135 334.5t135 334.5t333 133.5t333 -133.5t135 -334.5z" />
    <glyph glyph-name="uni24F0" unicode="&#x24f0;" 
d="M634 558q-79 0 -127 -59.5t-48 -171.5q0 -107 43 -166t114 -59q60 0 101 41t41 110q0 65 -36.5 104.5t-94.5 39.5q-66 0 -117 -50q7 164 121 164q44 0 88 -28l17 47q-46 28 -102 28zM615 352q43 0 67.5 -27.5t24.5 -75.5t-25 -74.5t-64 -26.5q-97 0 -107 155
q53 49 104 49zM234 498l19 -44l71 37v-381h52v440h-42zM968 330q0 -201 -135 -334.5t-333 -133.5t-333 133.5t-135 334.5t135 334.5t333 133.5t333 -133.5t135 -334.5z" />
    <glyph glyph-name="uni24F1" unicode="&#x24f1;" 
d="M521 110h57q95 240 174 395v45h-278v-48h219q-99 -200 -172 -392zM253 498l19 -44l71 37v-381h52v440h-42zM968 330q0 -201 -135 -334.5t-333 -133.5t-333 133.5t-135 334.5t135 334.5t333 133.5t333 -133.5t135 -334.5z" />
    <glyph glyph-name="uni24F2" unicode="&#x24f2;" 
d="M452 222q0 -55 42.5 -87.5t110.5 -32.5q69 0 113.5 33.5t44.5 90.5q0 46 -28.5 72.5t-78.5 46.5q44 22 65.5 43t21.5 60q0 49 -37 79.5t-96 30.5t-98.5 -31.5t-39.5 -82.5q0 -66 84 -104q-49 -21 -76.5 -47t-27.5 -71zM523 446q0 32 23.5 50.5t60.5 18.5q38 0 61.5 -19
t23.5 -51q0 -27 -19 -44t-63 -35q-48 20 -67.5 36t-19.5 44zM712 223q0 -36 -29 -56.5t-76 -20.5t-75.5 21t-28.5 58q0 34 24.5 54t74.5 40q31 -13 45 -20t32.5 -19t25.5 -25.5t7 -31.5zM234 498l19 -44l71 37v-381h52v440h-42zM968 330q0 -201 -135 -334.5t-333 -133.5
t-333 133.5t-135 334.5t135 334.5t333 133.5t333 -133.5t135 -334.5z" />
    <glyph glyph-name="uni24F3" unicode="&#x24f3;" 
d="M592 102q78 0 126.5 59.5t48.5 172.5q0 107 -43.5 165.5t-113.5 58.5q-60 0 -101 -40.5t-41 -110.5q0 -65 36.5 -104.5t95.5 -39.5q64 0 115 50q-6 -164 -120 -164q-46 0 -88 27l-18 -45q46 -29 103 -29zM611 308q-43 0 -67.5 27.5t-24.5 74.5q0 48 25 75t63 27
q47 0 75 -39.5t33 -116.5q-53 -48 -104 -48zM234 498l19 -44l71 37v-381h52v440h-42zM968 330q0 -201 -135 -334.5t-333 -133.5t-333 133.5t-135 334.5t135 334.5t333 133.5t333 -133.5t135 -334.5z" />
    <glyph glyph-name="uni24F4" unicode="&#x24f4;" 
d="M836 331q0 109 -44 168t-115 59q-72 0 -116.5 -59.5t-44.5 -169.5q0 -109 44 -168t115 -59q72 0 116.5 59.5t44.5 169.5zM784 330q0 -180 -108 -180t-108 180q0 181 108 181t108 -181zM412 431q0 -51 -47 -111t-167 -168v-42h279v48h-204q108 98 150 159t42 117
q0 57 -34.5 90.5t-92.5 33.5q-85 0 -140 -70l17 -44q58 67 118 67q38 0 58.5 -22t20.5 -58zM968 330q0 -201 -135 -334.5t-333 -133.5t-333 133.5t-135 334.5t135 334.5t333 133.5t333 -133.5t135 -334.5z" />
    <glyph glyph-name="filledbox" unicode="&#x25a0;" 
d="M140 0v720h720v-720h-720z" />
    <glyph glyph-name="H22073" unicode="&#x25a1;" 
d="M140 0v720h720v-720h-720zM198 662v-604h604v604h-604z" />
    <glyph glyph-name="triagup" unicode="&#x25b2;" horiz-adv-x="584" 
d="M292 542l255 -442h-510z" />
    <glyph glyph-name="triagrt" unicode="&#x25ba;" horiz-adv-x="584" 
d="M542 309l-442 -255v510z" />
    <glyph glyph-name="triagdn" unicode="&#x25bc;" horiz-adv-x="584" 
d="M547 518l-255 -442l-255 442h510z" />
    <glyph glyph-name="triaglf" unicode="&#x25c4;" horiz-adv-x="584" 
d="M484 54l-442 255l442 255v-510z" />
    <glyph glyph-name="uni25C6" unicode="&#x25c6;" 
d="M128 360l372 372l372 -372l-372 -372z" />
    <glyph glyph-name="uni25C7" unicode="&#x25c7;" 
d="M500 650l-290 -290l290 -290l290 290zM128 360l372 372l372 -372l-372 -372z" />
    <glyph glyph-name="lozenge" unicode="&#x25ca;" horiz-adv-x="584" 
d="M319 0h-54l-229 360l229 360h54l229 -360zM487 360l-195 302l-195 -302l195 -302z" />
    <glyph glyph-name="circle" unicode="&#x25cb;" 
d="M814 360q0 134 -90.5 224t-223.5 90t-223.5 -90t-90.5 -224t90.5 -224t223.5 -90t223.5 90t90.5 224zM872 360q0 -159 -107.5 -265.5t-264.5 -106.5t-264.5 106.5t-107.5 265.5t107.5 265.5t264.5 106.5t264.5 -106.5t107.5 -265.5z" />
    <glyph glyph-name="H18533" unicode="&#x25cf;" 
d="M872 360q0 -159 -107.5 -265.5t-264.5 -106.5t-264.5 106.5t-107.5 265.5t107.5 265.5t264.5 106.5t264.5 -106.5t107.5 -265.5z" />
    <glyph glyph-name="uni2605" unicode="&#x2605;" 
d="M409 459l91 282l91 -282h294l-239 -173l92 -279l-238 172l-238 -172l92 279l-239 173h294z" />
    <glyph glyph-name="uni272D" unicode="&#x272d;" 
d="M409 459l91 282l91 -282h294l-239 -173l92 -279l-238 172l-238 -172l92 279l-239 173h294zM500 590l-57 -177h-186l151 -110l-58 -176l150 109l150 -109l-58 176l151 110h-186z" />
    <glyph glyph-name="uni2756" unicode="&#x2756;" 
d="M127 360l170 170l170 -170l-170 -170zM330 158l169 169l170 -169l-170 -170zM330 562l170 170l170 -170l-170 -169zM533 360l169 170l170 -170l-170 -170z" />
    <glyph glyph-name="uni2767" unicode="&#x2767;" horiz-adv-x="1278" 
d="M106 124l-66 16q11 28 20 48.5t35.5 56t58 58.5t86.5 40.5t123 17.5q73 0 135.5 -19.5t108.5 -50t87.5 -62t91.5 -60.5t102 -41v6q-43 17 -81.5 43.5t-68 54l-60 54.5t-71 49.5t-87.5 34.5q0 69 46 112t117 43q50 0 85.5 -23.5t55.5 -61t35 -83l30 -90.5t35 -82.5t56 -61
t86 -23.5q84 0 164 55l8 -75q-80 -49 -187 -49q-90 0 -147 35q-138 -78 -282 -78q-109 0 -163.5 44.5t-54.5 118.5q0 82 68 126q-56 18 -115 18t-105.5 -17t-75 -45.5t-44.5 -54t-26 -54.5z" />
    <glyph glyph-name="uni2780" unicode="&#x2780;" 
d="M403 454l-19 44l100 52h42v-440h-52v381zM968 330q0 -201 -135 -334.5t-333 -133.5t-333 133.5t-135 334.5t135 334.5t333 133.5t333 -133.5t135 -334.5zM923 330q0 181 -122 302t-301 121t-301 -121t-122 -302t122 -302t301 -121t301 121t122 302z" />
    <glyph glyph-name="uni2781" unicode="&#x2781;" 
d="M574 431q0 36 -20.5 58t-58.5 22q-60 0 -118 -67l-17 44q55 70 140 70q58 0 92.5 -33.5t34.5 -90.5q0 -56 -42 -117t-150 -159h204v-48h-279v42q120 108 167 168t47 111zM968 330q0 -201 -135 -334.5t-333 -133.5t-333 133.5t-135 334.5t135 334.5t333 133.5t333 -133.5
t135 -334.5zM923 330q0 181 -122 302t-301 121t-301 -121t-122 -302t122 -302t301 -121t301 121t122 302z" />
    </font>
</defs>
</svg>
